<svg xmlns="http://www.w3.org/2000/svg" width="24" height="24.025" viewBox="0 0 24 24.025">
  <g id="active_home" data-name="active home" transform="translate(0 0.013)">
    <rect id="back" width="24" height="24" fill="none"/>
    <g id="active_home-2" data-name="active home" transform="translate(0.179 0.046)">
      <path id="Path_12193" data-name="Path 12193" d="M.246,9.6l.2,9.809a2.534,2.534,0,0,0,2.1,2.443l10.427,1.8a2.532,2.532,0,0,0,2.923-2.064,2.3,2.3,0,0,0,.034-.431V11.119L8.292,5.054a2.529,2.529,0,0,0-2.936-.148L1.416,7.428A2.529,2.529,0,0,0,.246,9.6Z" fill="none" stroke="#2560fc" stroke-linecap="round" stroke-linejoin="round" stroke-width="0.493"/>
      <path id="Path_12194" data-name="Path 12194" d="M5.581,4.775l.97-.554L12.806.645A2.527,2.527,0,0,1,15.742.8L23.4,6.861v8.728a2.534,2.534,0,0,1-1.076,2.069s-5.7,4.2-7.543,5.63" fill="none" stroke="#2560fc" stroke-linecap="round" stroke-linejoin="round" stroke-width="0.493"/>
      <path id="Path_12196" data-name="Path 12196" d="M6.824,4.211l9.07,6.938s7.558-4.231,7.474-4.317S15.685.739,15.685.739L14.53.3,13.442.362" fill="#2560fc"/>
      <path id="Path_12195" data-name="Path 12195" d="M10.6,18.574V16.281a2.8,2.8,0,0,0-5.59-.106v1.867" fill="none" stroke="#2560fc" stroke-linecap="round" stroke-linejoin="round" stroke-width="0.493"/>
    </g>
  </g>
</svg>
