<svg id="active_profile" xmlns="http://www.w3.org/2000/svg" width="24" height="24" viewBox="0 0 24 24">
  <rect id="Rectangle_1203" data-name="Rectangle 1203" width="24" height="24" transform="translate(0 0)" fill="none"/>
  <path id="Path_12240" data-name="Path 12240" d="M22.946,5.322V17.339A2.1,2.1,0,0,1,22,19.085L17.209,22.27V9.123a3.315,3.315,0,0,0-2.681-3.242L8.6,4.719,2.863,3.606,7.482.544A3.282,3.282,0,0,1,9.916.06L20.272,2.073a3.31,3.31,0,0,1,2.674,3.25Z" transform="translate(0.527 0)" fill="#2560fc"/>
  <path id="Path_12241" data-name="Path 12241" d="M11.922,7.744,3.045,6.018a2.347,2.347,0,0,0-2.8,2.3V18.905a2.965,2.965,0,0,0,2.4,2.913L12.4,23.711A1.853,1.853,0,0,0,14.6,21.891v-10.9a3.31,3.31,0,0,0-2.681-3.25Z" transform="translate(0.527 0)" fill="none" stroke="#2560fc" stroke-linecap="round" stroke-linejoin="round" stroke-width="0.499"/>
  <path id="Path_12242" data-name="Path 12242" d="M7.482,10.545h0a1.116,1.116,0,0,0-1.349,1.177v.115A1.763,1.763,0,0,0,7.482,13.51h0a1.107,1.107,0,0,0,1.337-1.165v-.125A1.763,1.763,0,0,0,7.482,10.545Z" transform="translate(0.527 0)" fill="none" stroke="#2560fc" stroke-linecap="round" stroke-linejoin="round" stroke-width="0.499"/>
  <path id="Path_12243" data-name="Path 12243" d="M9.478,16.034l-3.866-.748a1.157,1.157,0,0,0-1.4,1.22v.12a1.838,1.838,0,0,0,1.4,1.761l3.866.748a1.155,1.155,0,0,0,1.4-1.217V17.8a1.838,1.838,0,0,0-1.4-1.761Z" transform="translate(0.527 0)" fill="none" stroke="#2560fc" stroke-linecap="round" stroke-linejoin="round" stroke-width="0.499"/>
</svg>
