<svg id="active_cat" xmlns="http://www.w3.org/2000/svg" width="24" height="24" viewBox="0 0 24 24">
  <rect id="Rectangle_1202" data-name="Rectangle 1202" width="24" height="24" transform="translate(0 0)" fill="none"/>
  <path id="Path_12232" data-name="Path 12232" d="M8.377.711,4.823.038A2.178,2.178,0,0,0,3.021.5a2.132,2.132,0,0,0-.187.175L2.767.741,2.7.8a.7.7,0,0,0-.076.07L2.566.933C2.546.953,2.522.974,2.5,1a.7.7,0,0,0-.067.064l-.067.061L2.3,1.187c-.02.023-.044.041-.067.064s-.044.041-.064.064a.657.657,0,0,0-.128.143l-.067.061-.023.023a2.152,2.152,0,0,1,.239,0,2.852,2.852,0,0,1,.522.05l3.546.647A2.773,2.773,0,0,1,8.511,4.957v3.5a2.709,2.709,0,0,1-.035.437h0l.067-.064c.02-.02.044-.041.064-.064A.7.7,0,0,0,8.675,8.7l.134-.128.067-.061c.02-.023.044-.044.064-.064l.067-.064.134-.128.067-.064.064-.061.067-.064L9.407,8l.067-.064a2.181,2.181,0,0,0,.671-1.572v-3.5A2.19,2.19,0,0,0,8.377.711Z" transform="translate(1.073 0.001)" fill="#2560fc"/>
  <path id="Path_12233" data-name="Path 12233" d="M8.342,11.783l-3.117-.615-.085-.017-.359-.07a2.164,2.164,0,0,0-1.75.464,2.2,2.2,0,0,0-.19.178l-.067.064-.067.064-.085.067-.067.064c-.02.02-.044.041-.064.064a.7.7,0,0,0-.067.064l-.067.061-.055.076a.7.7,0,0,1-.067.064l-.064.064a.7.7,0,0,0-.067.064.7.7,0,0,0-.067.064l-.067.061-.026.026a2.152,2.152,0,0,1,.239,0,2.8,2.8,0,0,1,.54.053l3.5.691a2.782,2.782,0,0,1,2.234,2.7v3.47a2.709,2.709,0,0,1-.035.437h0l.067-.061a.7.7,0,0,1,.067-.064c.02-.023.044-.044.064-.064s.047-.041.067-.064a.7.7,0,0,0,.067-.064l.067-.064c.02-.02.044-.041.064-.064l.067-.061.067-.064.067-.064.067-.064c.02-.02.044-.041.064-.064a.7.7,0,0,0,.067-.064l.067-.061c.02-.023.047-.044.067-.064a2.178,2.178,0,0,0,.674-1.575v-3.49A2.19,2.19,0,0,0,8.342,11.783Z" transform="translate(1.073 0.001)" fill="#2560fc"/>
  <path id="Path_12234" data-name="Path 12234" d="M19.641,14.075,16.169,13.4a2.184,2.184,0,0,0-1.811.458,1.823,1.823,0,0,0-.19.178l-.134.128-.064.061-.067.064-.067.064a.7.7,0,0,0-.067.064l-.067.064-.064.064a.7.7,0,0,0-.067.064l-.067.061-.067.064-.067.064-.064.064a.088.088,0,0,0-.023.023,2.134,2.134,0,0,1,.236,0,2.788,2.788,0,0,1,.537.052l3.47.682a2.773,2.773,0,0,1,2.236,2.718V21.8a2.747,2.747,0,0,1-.035.44h0l.067-.067.067-.064.064-.061.067-.064c.023-.023.047-.041.067-.064s.044-.041.064-.064l.134-.128.067-.061.067-.064.067-.064.064-.061.067-.067.067-.061a.7.7,0,0,1,.067-.064,2.175,2.175,0,0,0,.671-1.575V16.221a2.193,2.193,0,0,0-1.752-2.146Z" transform="translate(1.073 0.001)" fill="#2560fc"/>
  <path id="Path_12235" data-name="Path 12235" d="M21.321,5.211,18.869,2.382a2.187,2.187,0,0,0-3.105-.2l-1.114.988a2.172,2.172,0,0,1,.338-.023,2.779,2.779,0,0,1,2.1.956l2.449,2.828A2.744,2.744,0,0,1,20.2,8.987a.806.806,0,0,1-.026.2.636.636,0,0,1,.064-.061l.064-.064A.7.7,0,0,0,20.367,9l.064-.061.07-.067.064-.061.067-.064.067-.064.067-.064a.665.665,0,0,0,.064-.064l.067-.061.067-.067.067-.061c.02-.02.044-.041.064-.064l.07-.064a2.187,2.187,0,0,0,.155-3.024Z" transform="translate(1.073 0.001)" fill="#2560fc"/>
  <path id="Path_12236" data-name="Path 12236" d="M5.386,10.311,1.834,9.622A1.892,1.892,0,0,1,.292,7.774V4.289A1.9,1.9,0,0,1,2.54,2.426L6.094,3.1a1.9,1.9,0,0,1,1.54,1.857v3.5a1.9,1.9,0,0,1-2.248,1.855Z" transform="translate(1.073 0.001)" fill="none" stroke="#2560fc" stroke-linecap="round" stroke-linejoin="round" stroke-width="0.583"/>
  <path id="Path_12237" data-name="Path 12237" d="M5.324,21.371l-3.5-.691a1.9,1.9,0,0,1-1.534-1.86V15.34a1.9,1.9,0,0,1,2.263-1.86l3.5.691a1.892,1.892,0,0,1,1.528,1.866V19.51a1.9,1.9,0,0,1-2.257,1.86Z" transform="translate(1.073 0.001)" fill="none" stroke="#2560fc" stroke-linecap="round" stroke-linejoin="round" stroke-width="0.583"/>
  <path id="Path_12238" data-name="Path 12238" d="M16.621,23.665l-3.467-.682a1.892,1.892,0,0,1-1.528-1.857V17.644a1.9,1.9,0,0,1,2.26-1.86l3.47.682a1.892,1.892,0,0,1,1.531,1.857V21.8a1.9,1.9,0,0,1-2.266,1.86Z" transform="translate(1.073 0.001)" fill="none" stroke="#2560fc" stroke-linecap="round" stroke-linejoin="round" stroke-width="0.583"/>
  <path id="Path_12239" data-name="Path 12239" d="M13.728,4.5l-1.971,1.75a1.9,1.9,0,0,0-.172,2.659l2.376,2.753a1.9,1.9,0,0,0,2.624.23l2.041-1.662a1.9,1.9,0,0,0,.239-2.712L16.419,4.665A1.892,1.892,0,0,0,13.728,4.5Z" transform="translate(1.073 0.001)" fill="none" stroke="#2560fc" stroke-linecap="round" stroke-linejoin="round" stroke-width="0.583"/>
</svg>
