<svg id="Arabic" xmlns="http://www.w3.org/2000/svg" width="24" height="24" viewBox="0 0 24 24">
  <defs>
    <clipPath id="clip-path">
      <path id="Path_12373" data-name="Path 12373" d="M23.994,12.009A12,12,0,1,1,12,0a12,12,0,0,1,12,12.009Z" transform="translate(0.006 0)" fill="none"/>
    </clipPath>
    <clipPath id="clip-path-2">
      <rect id="Rectangle_1330" data-name="Rectangle 1330" width="39.966" height="26.158" fill="none"/>
    </clipPath>
  </defs>
  <rect id="Boundary" width="24" height="24" fill="none"/>
  <g id="Group_2240" data-name="Group 2240" clip-path="url(#clip-path)">
    <g id="Group_2239" data-name="Group 2239" transform="translate(-7.978 -1.07)" clip-path="url(#clip-path-2)">
      <rect id="Rectangle_1329" data-name="Rectangle 1329" width="39.966" height="26.158" fill="#3d9635"/>
    </g>
    <path id="Path_12344" data-name="Path 12344" d="M5.913,10.952c.509.051.271-.859.416-1.065.051-.075.1-.084.1,0v.8a.35.35,0,0,0,.29.392c.131,0,.224,0,.276.131,0,.467.042.934.061,1.4,0,0,.308.093.327-.78a8.6,8.6,0,0,1-.033-1.042c0-.1.121-.107.206-.056s.192.215.4.168c.313-.089.5-.248.509-.5a2.293,2.293,0,0,0-.145-.715c0-.042-.061-.154-.047-.2.056.093.14.084.163,0a.729.729,0,0,0-.276-.434c-.107-.1-.271-.079-.332.131a1.182,1.182,0,0,0,.257.775.752.752,0,0,1,.065.383.2.2,0,0,1-.262-.051s-.252-.2-.252-.238a.934.934,0,0,0,0-.617A.813.813,0,0,0,7.474,9.1c-.061-.07-.145-.07-.187,0a1.2,1.2,0,0,0,0,.817c.061.177.149.29.107.29-.033.1-.107.075-.159-.042a2.933,2.933,0,0,1-.089-.752,1.312,1.312,0,0,0-.173-.724.121.121,0,0,0-.229.042,1.481,1.481,0,0,0,0,.575c.061.322.112.593.154.934,0,.434-.243.192-.234-.028a1.92,1.92,0,0,0,0-.831c-.037-.112-.089-.14-.187-.121s-.285.229-.346.612c0,0-.047.2-.07.374s-.154.341-.243-.023c-.075-.271-.121-.934-.252-.775C5.535,9.952,5.493,10.858,5.913,10.952Z" transform="translate(-1.382 -2.156)" fill="#ededed"/>
    <path id="Path_12345" data-name="Path 12345" d="M6.708,12.232a1.35,1.35,0,0,0-1.046.883l1.327-.663C6.913,12.339,6.983,12.237,6.708,12.232Z" transform="translate(-1.411 -3.058)" fill="#ededed"/>
    <path id="Path_12346" data-name="Path 12346" d="M9.258,13.028a4.143,4.143,0,0,0,.056-1.158h0c.224.252.542.037.612-.051a.1.1,0,0,1,.154,0,.355.355,0,0,0,.542-.163,5.465,5.465,0,0,0,.079-.7.813.813,0,0,0-.248.1s0,.023,0,.037l-.028.2h0a.07.07,0,0,1-.112-.051c-.056-.257-.28-.29-.416.107-.089.075-.257.089-.271-.023,0-.266-.084-.3-.29-.178-.065-.528-.135-1.028-.2-1.555.089,0,.168.065.243-.037a2.943,2.943,0,0,0-.364-.888H8.959L8.874,8.7A.262.262,0,0,0,8.7,9.02c.126.808.21,1.4.341,2.228,0,.1-.056.22-.154.21-.168-.117-.21-.355-.5-.346a.565.565,0,0,0-.467.467,1.182,1.182,0,0,0,0,.528.406.406,0,0,0,.467.121c.126-.056.229-.187.271-.154h0c.028.051,0,.467-.589.8-.364.168-.654.206-.808-.1-.093-.2,0-.934-.229-.757-.7,1.868,1.64,2.135,1.9.079,0-.061.065-.117.1-.1s.033.028.037.07c-.056,1.868-1.808,1.99-2.107,1.4a1.784,1.784,0,0,1-.1-.631.336.336,0,0,0-.07-.2c-.075-.056-.168.089-.192.341a2.471,2.471,0,0,0,0,.467C6.632,14.873,8.888,14.242,9.258,13.028Zm-.873-1.271h0c0,.023-.079,0-.126,0A.126.126,0,0,1,8.15,11.7a.266.266,0,0,1,.051-.135h0a.14.14,0,0,1,.075-.033.107.107,0,0,1,.121.079.14.14,0,0,1-.014.145Z" transform="translate(-1.644 -2.167)" fill="#ededed"/>
    <path id="Path_12347" data-name="Path 12347" d="M10.412,10.091h0a1.724,1.724,0,0,0,.49,0h0a7.24,7.24,0,0,0,.808-.845c-.033-.033-.065-.051-.1-.084a.061.061,0,0,1,0-.1.285.285,0,0,0,.028-.42.411.411,0,0,0-.2-.042.42.42,0,0,0-.159.047.322.322,0,0,0-.051.416c.089.042.177.135.117.187-.248.276-.9.743-.934.827h0Zm.99-1.238h0a.131.131,0,0,1,.112.089.1.1,0,0,1-.028.126c-.028.014-.1-.033-.121-.089s0-.135.037-.145Z" transform="translate(-2.597 -2.15)" fill="#ededed"/>
    <path id="Path_12348" data-name="Path 12348" d="M5.838,15.031c-.107.234-.154.075-.163-.056a3.181,3.181,0,0,1,.028-.654c.028-.182,0-.126-.056-.051a1.4,1.4,0,0,0-.131,1.21.276.276,0,0,0,.28.1c.159-.07.224-.4.187-.518S5.89,14.961,5.838,15.031Z" transform="translate(-1.354 -3.55)" fill="#ededed"/>
    <path id="Path_12349" data-name="Path 12349" d="M16.852,9.229c.294.406.575.817.845,1.243.042.313.075.621.093.934a18.442,18.442,0,0,1,0,2.219c.121,0,.318-.2.383-.509a14.536,14.536,0,0,0,0-1.532v-.355c.318.537.621,1.1.934,1.724.107-.051.084-.691,0-.78-.238-.542-.575-1.074-.677-1.28-.042-.07-.168-.28-.327-.518a6.945,6.945,0,0,0-.079-.71c-.051-.36.145.037.117-.168a2.336,2.336,0,0,0-.467-.934c-.075-.107-.07-.131-.182.028A.64.64,0,0,0,17.446,9l-.121-.159-.364-.322c-.084-.061-.28-.173-.318,0a1.107,1.107,0,0,0,0,.378,1.312,1.312,0,0,0,.21.336Zm.621-.028v.107l.042.22-.135-.187C17.236,9.164,17.4,9.224,17.474,9.2Z" transform="translate(-4.152 -2.106)" fill="#ededed"/>
    <path id="Path_12350" data-name="Path 12350" d="M19.645,13.157a3.349,3.349,0,0,1-1.126.85c-.051.056.117.294.332.294a1.28,1.28,0,0,0,.962-.8,1.5,1.5,0,0,0,.229-.607A13.663,13.663,0,0,0,19.8,9.779a.6.6,0,0,1,0-.22c.028-.028.1,0,.145-.07a2.067,2.067,0,0,0-.29-.808c-.047-.093-.061-.154-.135,0a1.191,1.191,0,0,0-.126.584c.173,1.224.224,2.3.336,3.522A.509.509,0,0,1,19.645,13.157Z" transform="translate(-4.623 -2.147)" fill="#ededed"/>
    <path id="Path_12351" data-name="Path 12351" d="M25.888,9.742a2.074,2.074,0,0,1-.037-.318c.028-.056.14,0,.182-.061s-.3-.551-.425-.757c-.047-.093-.061-.154-.14,0a1.037,1.037,0,0,0-.075.584,33.726,33.726,0,0,1,.364,3.8,1.359,1.359,0,0,1-.075.313,2.4,2.4,0,0,1-.35.425c-.117.089-.364.178-.467.243-.257.154-.257.332-.051.336a1.247,1.247,0,0,0,1.093-.5,1.78,1.78,0,0,0,.178-.682A16.4,16.4,0,0,0,25.888,9.742Z" transform="translate(-6.162 -2.128)" fill="#ededed"/>
    <path id="Path_12352" data-name="Path 12352" d="M22.479,11.56a3.335,3.335,0,0,1,.028-.542c0-.051,0-.107.065-.126s.135.056.135,0a.743.743,0,0,0-.089-.346.187.187,0,0,0-.332.1c0,.07.033.107,0,.173s-.047.065-.131,0L22.1,10.7a.535.535,0,0,0-.22.042.36.36,0,0,0,0,.276C21.979,11.233,22.315,11.555,22.479,11.56Z" transform="translate(-5.458 -2.619)" fill="#ededed"/>
    <path id="Path_12353" data-name="Path 12353" d="M22.092,9.369c.234.3.467.626.719.962.051.682.065,1.308.117,1.995,0,.29-.093.682-.178.715,0,0-.126.079-.206,0a2.508,2.508,0,0,1-.308-.425.182.182,0,0,0-.294,0,4.307,4.307,0,0,0-.523,1.023c-.047.07-.163.131-.3,0a1.434,1.434,0,0,1-.182-1.014,1.13,1.13,0,0,0-.1,1.07.822.822,0,0,0,.374.444.257.257,0,0,0,.392-.042c.182-.2.182-.687.266-.78a.154.154,0,0,1,.28-.07.7.7,0,0,0,.252.229.42.42,0,0,0,.565.037.668.668,0,0,0,.3-.378,13.831,13.831,0,0,0,0-2.139c.126.187.252.369.374.561a14.013,14.013,0,0,1,.079,1.766c0,.112.378-.336.378-.551v-.5c.187.313.369.631.542.934.107-.056.075-.691,0-.78-.178-.308-.416-.654-.593-.934-.037-.332-.084-.729-.107-.85s-.065-.467-.121-.691a2.4,2.4,0,0,1-.042-.392c0-.065.1,0,.14-.07a2.546,2.546,0,0,0-.336-.976c-.051-.093-.135-.061-.243.084s-.065.318-.028.528c.1.537.192,1.084.262,1.63l-.444-.677-.023-.1a3.192,3.192,0,0,0-.037-.542c-.037-.1,0-.056.028-.051a.248.248,0,0,0,.079.056c.042,0,.084-.07.056-.145-.14-.266-.276-.533-.416-.794-.033-.037-.079-.075-.131,0a.332.332,0,0,0-.1.234c0,.192.047.383.056.575v.075l-.047-.061c-.355-.383.163-.061-.065-.36a3.017,3.017,0,0,0-.42-.425c-.084-.056-.135-.163-.163,0a3.373,3.373,0,0,0,0,.467.617.617,0,0,0,.149.374Z" transform="translate(-5.183 -2.11)" fill="#ededed"/>
    <path id="Path_12354" data-name="Path 12354" d="M19.611,22.058l-.4.042c-.336-.037-.589-.042-.967-.061.037-.047.1-.234.023-.3a.117.117,0,0,0-.093,0h0a.317.317,0,0,0-.042-.117h0a.252.252,0,0,0-.079.467c-2.658,0-6.736-.047-7.609-.047-.49,0-2.041-.061-2.069-.061A1.539,1.539,0,0,0,9.82,22.6h8.2a.6.6,0,0,0,.1.593h0a.2.2,0,0,0,.187-.112,10.188,10.188,0,0,0,1.2,0h0c.056.089.117.173.224.154.2-.042.35-.061.355-.467C20.073,22.689,20.054,22.012,19.611,22.058Zm-.192.743h-.327c-.033-.093-.248-.089-.3,0h0a2.924,2.924,0,0,1-.5,0,.173.173,0,0,1,0-.21h0c.392,0,.757,0,1.144.023A.149.149,0,0,1,19.419,22.8Z" transform="translate(-2.09 -5.406)" fill="#ededed"/>
    <path id="Path_12355" data-name="Path 12355" d="M12.792,10.5c.206.089.336-.313.416-.757.061-.121.1-.135.131-.07,0,.589.042.715.187.892a.467.467,0,0,0,.612,0l.252-.262a.149.149,0,0,1,.21,0c.079.075.065.2.234.285a.5.5,0,0,0,.5-.107c.093-.168.112-.22.154-.285s.182-.051.182-.023-.079.1-.033.2.1,0,.145,0c.163-.079.285-.467.285-.467,0-.14-.065-.131-.117-.1s-.065.051-.126.093a.244.244,0,0,1-.318-.061,4.036,4.036,0,0,1-.135-.5s-.107-.238,0-.252.154.042.168-.051a.892.892,0,0,0-.22-.467.229.229,0,0,0-.355,0c-.093.089-.079.182-.1.271a.467.467,0,0,0,.089.374,1.154,1.154,0,0,1,.2.752.28.28,0,0,1-.262.135c-.07,0-.182-.047-.243-.509a3.587,3.587,0,0,0-.131-1.065c-.051-.135-.089-.271-.215-.033a.575.575,0,0,0-.075.523,1.635,1.635,0,0,1,.084.813,1.6,1.6,0,0,1-.154.224.243.243,0,0,1-.318.047.36.36,0,0,1-.192-.28,4.246,4.246,0,0,0-.028-.9.159.159,0,0,0-.266-.056,2.167,2.167,0,0,0-.467,1.014c-.07.248-.149.178-.206.079-.135-.131-.14-1.149-.3-.986C12.1,9.716,12.512,10.557,12.792,10.5Z" transform="translate(-3.067 -2.088)" fill="#ededed"/>
    <path id="Path_12356" data-name="Path 12356" d="M15.968,12.883h0l-.079-.051H14.38l-.042-.023h0l.051-.028c.36-.051,1-.159,1.046-.8a.509.509,0,1,0-.995.023c0,.084.028.257-.061.276-.556.051-1.163.416-1.186.673h-.023a.149.149,0,0,1-.075-.159,3.214,3.214,0,0,0-.383-1.345c-.079-.084-.112-.117-.135-.121h0a1.057,1.057,0,0,1-.084.075.406.406,0,0,0-.084.332s.14.425.262.705a2.256,2.256,0,0,1,.1.934,2.3,2.3,0,0,1-.934,1,.467.467,0,0,1-.388,0h0a.248.248,0,0,1-.1-.224h0a2.219,2.219,0,0,0,.934-1,1.042,1.042,0,0,0,.028-.719.687.687,0,0,0-.159-.332h0c.056-.028.187.079.21,0a1.051,1.051,0,0,0-.266-.509.22.22,0,0,0-.327,0c-.112.065-.135.3-.084.5s.224.178.336.467h0a.579.579,0,0,1,0,.318,3.765,3.765,0,0,1-.747.663h0a.551.551,0,0,1,0-.093c0-.093.033-.3.028-.341h0c-.2.135-.266.547-.3.668a9.412,9.412,0,0,0-1.4,1.009c-.173.28,1.191-.322,1.35-.4h0a1,1,0,0,0,.126.262.7.7,0,0,0,.733.248,2.336,2.336,0,0,0,1.065-.934c.042-.061.107-.112.168-.061a1.663,1.663,0,0,0,1.5.836c.173-.215.093-.322.023-.369s-.369-.154-.425-.294.051-.243.215-.332a7.394,7.394,0,0,0,1.4-.276,1.285,1.285,0,0,1,.154-.5A.182.182,0,0,1,15.968,12.883Zm-1.247-.99h0a.089.089,0,0,1,.042,0,.248.248,0,0,1,.117.033.159.159,0,0,1,.089.131h0a.154.154,0,0,1-.163,0c-.056-.037-.1-.089-.093-.131Zm-.607,1.579c-.163.056-.318.1-.318.346a.36.36,0,0,1,0,.215h0a.294.294,0,0,1-.14-.056.883.883,0,0,1-.425-.645.163.163,0,0,1,.159-.168h0a4.751,4.751,0,0,0,.635.075C14.189,13.266,14.278,13.411,14.114,13.471Z" transform="translate(-2.39 -2.831)" fill="#ededed"/>
    <path id="Path_12357" data-name="Path 12357" d="M8.094,9.01c.178.089.5.051.467-.243a1.322,1.322,0,0,0,0-.135.081.081,0,0,0-.154,0,.113.113,0,0,0,0,.093c0,.019-.07,0-.065-.075a.14.14,0,0,0-.028-.07H8.272c-.042,0,0,0-.033.028a.154.154,0,0,0,0,.065c0,.028,0,.042-.033.047s0,0-.033,0-.028,0-.028-.037a.318.318,0,0,0,0-.07.061.061,0,0,0-.042,0c-.1,0-.084.112-.1.154A.2.2,0,0,0,8.094,9.01Z" transform="translate(-1.994 -2.144)" fill="#ededed"/>
    <path id="Path_12358" data-name="Path 12358" d="M14.914,12.012c.178.084.593.033.467-.243a1.322,1.322,0,0,0,0-.14c-.037-.084-.131-.065-.154.028s0,.075,0,.089-.07,0-.065-.075a.121.121,0,0,0-.033-.07.061.061,0,0,0-.037,0c-.023,0-.023,0-.037.028a.36.36,0,0,0,0,.07.047.047,0,0,1-.037.042h-.037c-.037,0-.023,0-.023-.042a.318.318,0,0,0,0-.07.075.075,0,0,0-.042-.023c-.1,0-.1.112-.1.154A.271.271,0,0,0,14.914,12.012Z" transform="translate(-3.698 -2.894)" fill="#ededed"/>
    <path id="Path_12359" data-name="Path 12359" d="M18.907,10.767c.177.089.5.051.49-.243a1.321,1.321,0,0,0,0-.135c-.033-.084-.131-.065-.154.023s0,.079,0,.093-.07,0-.065-.075a.112.112,0,0,0-.033-.07h-.037c-.037,0-.023,0-.037.028a.327.327,0,0,0,0,.065c0,.033,0,.042-.033.047s0,0-.033,0-.028,0-.028-.042a.318.318,0,0,0,0-.07.075.075,0,0,0-.042-.023c-.1,0-.1.112-.1.154S18.78,10.711,18.907,10.767Z" transform="translate(-4.702 -2.584)" fill="#ededed"/>
    <path id="Path_12360" data-name="Path 12360" d="M21,14.007Z" transform="translate(-5.246 -3.502)" fill="#ededed"/>
    <path id="Path_12361" data-name="Path 12361" d="M19.006,9.214c.065.182-.047.35,0,.378s.145-.187.177-.388a.612.612,0,0,0-.234-.556c-.093-.023-.229.033-.187.168S18.973,9.1,19.006,9.214Z" transform="translate(-4.684 -2.161)" fill="#ededed"/>
    <path id="Path_12362" data-name="Path 12362" d="M21.075,13.432c.121,0,.262-.29.322-.579a5.166,5.166,0,0,0-.033-.869c0-.229-.252-2.111-.3-2.289-.061-.332.234-.042.2-.234a8.738,8.738,0,0,0-.434-.813c-.051-.089-.028-.168-.135,0a1.868,1.868,0,0,0-.1.827A18.61,18.61,0,0,1,21.075,13.432Z" transform="translate(-5.142 -2.138)" fill="#ededed"/>
    <path id="Path_12363" data-name="Path 12363" d="M25.2,9.889c.028.089-.042.383,0,.406s.131-.2.159-.416c0-.117-.065-.528-.21-.6a.135.135,0,0,0-.168.182C24.979,9.53,25.17,9.759,25.2,9.889Z" transform="translate(-6.238 -2.318)" fill="#ededed"/>
    <path id="Path_12364" data-name="Path 12364" d="M11.092,14.069c.051.023.126-.149.149-.3a.457.457,0,0,0-.2-.444c-.135-.051-.2,0-.163.131s.187.154.2.318C11.125,13.812,11.036,14.027,11.092,14.069Z" transform="translate(-2.713 -3.325)" fill="#ededed"/>
    <path id="Path_12365" data-name="Path 12365" d="M6.2,8.986c.028.07-.028.29.028.313s.121-.154.149-.318c0-.093,0-.4-.2-.467-.084,0-.159.023-.163.14S6.177,8.888,6.2,8.986Z" transform="translate(-1.501 -2.128)" fill="#ededed"/>
    <path id="Path_12366" data-name="Path 12366" d="M11.486,10.443a.388.388,0,0,0-.121.5.234.234,0,0,0,.252.084c.149,0,.238-.294.238-.294s0-.089-.173.079c-.075,0-.084,0-.1-.061A.364.364,0,0,1,11.6,10.5C11.631,10.424,11.57,10.391,11.486,10.443Z" transform="translate(-2.826 -2.604)" fill="#ededed"/>
    <path id="Path_12367" data-name="Path 12367" d="M13,8.952a.21.21,0,0,0,.093-.145c.023-.121-.126.061-.145-.079s.065-.178.154-.3c0-.084,0-.145-.107-.075a.575.575,0,0,0-.238.411c0,.107-.023.107.042.178S12.9,9.008,13,8.952Z" transform="translate(-3.183 -2.081)" fill="#ededed"/>
    <path id="Path_12368" data-name="Path 12368" d="M14.423,9.032a1.4,1.4,0,0,0,.107-.518c-.033-.182-.149-.178-.229.028a2.831,2.831,0,0,0-.065.467C14.208,9.135,14.358,9.186,14.423,9.032Z" transform="translate(-3.554 -2.095)" fill="#ededed"/>
    <path id="Path_12369" data-name="Path 12369" d="M22.991,11.914s-.808.593-.827.617-.042.332,0,.3a3.3,3.3,0,0,0,.855-.617C23.056,12.222,23.075,11.881,22.991,11.914Z" transform="translate(-5.53 -2.978)" fill="#ededed"/>
    <path id="Path_12370" data-name="Path 12370" d="M23.088,13.733c.056.033.2-.154.192-.383,0-.117-.042-.551-.182-.621a.14.14,0,0,0-.163.192,2.083,2.083,0,0,0,.131.439C23.093,13.457,23.014,13.705,23.088,13.733Z" transform="translate(-5.726 -3.181)" fill="#ededed"/>
    <path id="Path_12371" data-name="Path 12371" d="M16.951,15.532a.121.121,0,0,0,.149,0,2.392,2.392,0,0,1,.514-.187c.061,0,.056-.177-.042-.182a.561.561,0,0,0-.374.121c-.084,0-.093-.033-.112-.079s.047-.187.028-.271a.135.135,0,0,0-.149-.028.99.99,0,0,0-.234.21c-.037.023-.033.051-.023.093s.075.047.131,0,.1.042.1.131a.177.177,0,0,0,.014.192Z" transform="translate(-4.171 -3.724)" fill="#ededed"/>
    <path id="Path_12372" data-name="Path 12372" d="M24.648,15.562c-.033-.037-.107,0-.159-.023s-.1,0-.061-.084a.467.467,0,0,0,.061-.126c.023-.051,0-.089-.079-.117a.579.579,0,0,0-.22,0c-.051,0-.07.033-.079.1s.061.093.121.135.056.084,0,.163l-.149.135c-.028.047-.047.121.037.145a1.687,1.687,0,0,0,.5-.2.126.126,0,0,0,.028-.131Z" transform="translate(-6.01 -3.8)" fill="#ededed"/>
  </g>
</svg>
