<svg xmlns="http://www.w3.org/2000/svg" width="20.001" height="13.92" viewBox="0 0 20.001 13.92">
  <g id="more" transform="translate(0.5 0.5)">
    <path id="more-2" data-name="more" d="M19,6.525a.711.711,0,0,1-.5.716,4.889,4.889,0,0,0-3.536,5.109.564.564,0,1,1-1.128,0,6.108,6.108,0,0,1,2.39-5.219H.564a.57.57,0,0,1,0-1.139h15.6C14.048,4.2,13.845.78,13.836.6A.565.565,0,1,1,14.964.541c0,.073.293,4.7,3.462,5.319A.715.715,0,0,1,19,6.525" transform="translate(0 0)" fill="#2560fc" stroke="#2560fc" stroke-width="1"/>
  </g>
</svg>
