<svg id="Awaiting" xmlns="http://www.w3.org/2000/svg" xmlns:xlink="http://www.w3.org/1999/xlink" width="27" height="27" viewBox="0 0 27 27">
  <defs>
    <clipPath id="clip-path">
      <rect id="back" width="27" height="27" transform="translate(30 370)" fill="#9e9e9e" opacity="0.2"/>
    </clipPath>
  </defs>
  <g id="Awaiting-2" data-name="Awaiting" transform="translate(-30 -370)" clip-path="url(#clip-path)">
    <g id="Awaiting-3" data-name="Awaiting" transform="translate(30 370.002)">
      <path id="Path_13226" data-name="Path 13226" d="M24.053,24.463C19.916,27.84,7,27.84,2.946,24.463c-4.137-3.377-3.715-17.814,0-21.613s17.392-3.8,21.107,0S28.19,21.085,24.053,24.463Z" fill="#9e9e9e"/>
      <g id="Group_2394" data-name="Group 2394">
        <rect id="Rectangle_1460" data-name="Rectangle 1460" width="6.31" height="1.798" rx="0.873" transform="translate(10.189 4.439)" fill="#fff"/>
        <path id="Path_13227" data-name="Path 13227" d="M21.027,14.833a7.684,7.684,0,1,1-7.684-7.684h0a7.684,7.684,0,0,1,7.684,7.684Zm-8.209.737c.522.4,1.049.784,1.573,1.178a1.911,1.911,0,0,0,.484.29.9.9,0,0,0,1.038-1.329,2.631,2.631,0,0,0-.549-.492q-.549-.41-1.093-.821a.069.069,0,0,1-.027-.054q0-.823,0-1.647a1.33,1.33,0,0,0-.061-.459.9.9,0,0,0-1.682.017,1.474,1.474,0,0,0-.059.483q0,.958,0,1.916a.984.984,0,0,0,.375.918Z" fill="#fff"/>
      </g>
    </g>
  </g>
</svg>
