<svg id="Cancelled" xmlns="http://www.w3.org/2000/svg" xmlns:xlink="http://www.w3.org/1999/xlink" width="27" height="27" viewBox="0 0 27 27">
  <defs>
    <clipPath id="clip-path">
      <rect id="back" width="27" height="27" transform="translate(30 370)" fill="#ff0d09" opacity="0.2"/>
    </clipPath>
  </defs>
  <g id="Cancelled-2" data-name="Cancelled" transform="translate(-30 -370)" clip-path="url(#clip-path)">
    <g id="Cancelled-3" data-name="Cancelled" transform="translate(30 370.002)">
      <path id="Path_13207" data-name="Path 13207" d="M24.053,24.463C19.916,27.84,7,27.84,2.946,24.463c-4.137-3.377-3.715-17.814,0-21.613s17.392-3.8,21.107,0S28.19,21.085,24.053,24.463Z" fill="#ff0d09"/>
      <path id="Path_13208" data-name="Path 13208" d="M17.569,15.661a1.333,1.333,0,0,1,.057,1.833,1.316,1.316,0,0,1-1.6.285,3,3,0,0,1-.588-.492q-1.71-1.712-3.422-3.423a.036.036,0,0,0-.051,0c-1.207,1.2-2.434,2.389-3.658,3.573a2.051,2.051,0,0,1-.458.357,1.329,1.329,0,0,1-1.9-.952,1.5,1.5,0,0,1,.618-1.419l3.436-3.436a.032.032,0,0,0,0-.046L6.594,8.526a3.117,3.117,0,0,1-.519-.619,1.342,1.342,0,0,1,.387-1.647,1.37,1.37,0,0,1,1.875.247l3.638,3.561a.03.03,0,0,0,.043,0l3.424-3.424a2.952,2.952,0,0,1,.6-.507,1.324,1.324,0,0,1,1.719,1.88,2.791,2.791,0,0,1-.364.417q-1.751,1.753-3.506,3.507h0a.032.032,0,0,0,0,.045l3.675,3.675Z" transform="translate(1.55 1.538)" fill="#fff"/>
    </g>
  </g>
</svg>
