<svg id="card" xmlns="http://www.w3.org/2000/svg" width="18" height="18" viewBox="0 0 18 18">
  <rect id="Rectangle_1304" data-name="Rectangle 1304" width="18" height="18" transform="translate(0)" fill="none"/>
  <path id="Path_12340" data-name="Path 12340" d="M5.745,16.314c-.1-.09-.2-.176-.3-.268L.934,11.53a1.74,1.74,0,0,1,0-2.655L9.2.617a1.777,1.777,0,0,1,2.681,0l5.182,5.182a1.744,1.744,0,0,1,0,2.656l-7.74,7.733c-.049.05-.1.1-.173.186H17.29a.642.642,0,0,1,.663.854.629.629,0,0,1-.555.429,1.8,1.8,0,0,1-.2,0H.792a1.388,1.388,0,0,1-.28-.015A.64.64,0,0,1,.644,16.37c.623,0,1.245,0,1.867,0H5.717ZM12.518,3.043,3.379,12.182a.954.954,0,0,1,.122.093q1.77,1.765,3.535,3.534c.314.314.531.312.851-.007l8.262-8.259c.322-.322.322-.527,0-.848l-3.18-3.18C12.806,3.353,12.652,3.185,12.518,3.043ZM2.408,11.163l9.112-9.11c-.164-.161-.353-.339-.536-.522-.351-.348-.536-.348-.89,0L1.847,9.777c-.043.043-.087.084-.125.13a.418.418,0,0,0,0,.583C1.954,10.734,2.2,10.959,2.408,11.163Z" transform="translate(0.006 0.171)"/>
  <path id="Path_12341" data-name="Path 12341" d="M7.793,13.809a.669.669,0,0,1-.677-.395.605.605,0,0,1,.135-.7c.365-.373.737-.739,1.106-1.107s.736-.74,1.107-1.106a.641.641,0,0,1,.946-.033.633.633,0,0,1-.032.932c-.731.735-1.461,1.471-2.2,2.194A1.422,1.422,0,0,1,7.793,13.809Z" transform="translate(0.006 0.171)"/>
</svg>
