<svg id="change_dp" xmlns="http://www.w3.org/2000/svg" width="13" height="11.7" viewBox="0 0 13 11.7">
  <path id="Path_12292" data-name="Path 12292" d="M17.36,15.28a2.08,2.08,0,1,1-2.08-2.08A2.08,2.08,0,0,1,17.36,15.28Z" transform="translate(-8.78 -8.78)" fill="#fff"/>
  <path id="Path_12293" data-name="Path 12293" d="M7.55,3,6.36,4.3H4.3A1.3,1.3,0,0,0,3,5.6v7.8a1.3,1.3,0,0,0,1.3,1.3H14.7A1.3,1.3,0,0,0,16,13.4V5.6a1.3,1.3,0,0,0-1.3-1.3H12.639L11.45,3ZM9.5,12.75A3.25,3.25,0,1,1,12.75,9.5,3.251,3.251,0,0,1,9.5,12.75Z" transform="translate(-3 -3)" fill="#fff"/>
</svg>
