<svg id="Confirmed" xmlns="http://www.w3.org/2000/svg" xmlns:xlink="http://www.w3.org/1999/xlink" width="27" height="27" viewBox="0 0 27 27">
  <defs>
    <clipPath id="clip-path">
      <rect id="back" width="27" height="27" transform="translate(30 370)" fill="#d6a90a" opacity="0.26"/>
    </clipPath>
  </defs>
  <g id="Confirmed-2" data-name="Confirmed" transform="translate(-30 -370)" clip-path="url(#clip-path)">
    <g id="Confirmed-3" data-name="Confirmed" transform="translate(30 370.002)">
      <path id="Path_13214" data-name="Path 13214" d="M24.053,24.463C19.916,27.84,7,27.84,2.946,24.463c-4.137-3.377-3.715-17.814,0-21.613s17.392-3.8,21.107,0S28.19,21.085,24.053,24.463Z" fill="#d6a90a"/>
      <g id="Group_2393" data-name="Group 2393">
        <path id="Path_13215" data-name="Path 13215" d="M12.736,4.417a3.07,3.07,0,0,0-1.145,0,.029.029,0,0,1-.034-.024V4.387a.6.6,0,1,1,1.205.008.022.022,0,0,1-.022.021h0Z" fill="#fff"/>
        <path id="Path_13216" data-name="Path 13216" d="M23.583,7.068a3.3,3.3,0,1,1-3.3-3.3A3.3,3.3,0,0,1,23.583,7.068Zm-1.306-1.01-.392-.392a.02.02,0,0,0-.031,0L19.7,7.822a.029.029,0,0,1-.042,0h0L18.7,6.868a.023.023,0,0,0-.033,0h0l-.393.4a.023.023,0,0,0,0,.031q.559.566,1.126,1.126c.156.153.329.222.5.054L22.277,6.1a.028.028,0,0,0,0-.04h0Z" fill="#fff"/>
        <path id="Path_13217" data-name="Path 13217" d="M12.261,4.967a.014.014,0,0,1,.012.008,5.52,5.52,0,0,1,.488,2.367.024.024,0,0,1-.027.027H11.588a.024.024,0,0,1-.027-.027,5.512,5.512,0,0,1,.486-2.363.028.028,0,0,1,.027-.017l.188,0Z" fill="#fff"/>
        <path id="Path_13218" data-name="Path 13218" d="M9.757,7.351A2.4,2.4,0,0,1,11.31,5.127q.028-.01.018.018a6.125,6.125,0,0,0-.369,2.2.022.022,0,0,1-.021.023H9.775a.016.016,0,0,1-.018-.018Z" fill="#fff"/>
        <path id="Path_13219" data-name="Path 13219" d="M13.021,5.128a2.408,2.408,0,0,1,1.542,2.223.016.016,0,0,1-.018.018H13.384a.019.019,0,0,1-.022-.022A6.13,6.13,0,0,0,13,5.153C12.985,5.126,12.994,5.117,13.021,5.128Z" fill="#fff"/>
        <path id="Path_13220" data-name="Path 13220" d="M15.164,8.876a.3.3,0,0,1-.3.3h-6a.608.608,0,0,1-.619-.6V8.569a.609.609,0,0,1,.619-.6h6a.3.3,0,0,1,.3.3h0v.609Z" fill="#fff"/>
        <path id="Path_13221" data-name="Path 13221" d="M14.559,9.782a.01.01,0,0,1,.01.01h0v.56A2.417,2.417,0,0,1,12.16,12.78H12.15a2.417,2.417,0,0,1-2.4-2.436h0v-.56a.01.01,0,0,1,.01-.01h0Z" fill="#fff"/>
        <path id="Path_13222" data-name="Path 13222" d="M11.362,13.97a1.2,1.2,0,0,1-.4-.813c0-.016.005-.021.02-.015a2.989,2.989,0,0,0,2.357,0,.009.009,0,0,1,.012,0s0,0,0,0a1.2,1.2,0,0,1-.4.823.051.051,0,0,1-.035.014H11.4a.051.051,0,0,1-.037-.015Z" fill="#fff"/>
        <path id="Path_13223" data-name="Path 13223" d="M8.619,13.961c.249-.731,1.17-.582,1.739-.578a.031.031,0,0,1,.033.028,1.687,1.687,0,0,0,.2.546.018.018,0,0,1-.006.024.017.017,0,0,1-.009,0H8.635c-.016,0-.021-.008-.016-.023Z" fill="#fff"/>
        <path id="Path_13224" data-name="Path 13224" d="M14.845,13.387a.9.9,0,0,1,.855.572.018.018,0,0,1-.01.024H13.748a.018.018,0,0,1-.018-.017.014.014,0,0,1,0-.008,1.773,1.773,0,0,0,.2-.555.022.022,0,0,1,.022-.018q.445-.009.893,0Z" fill="#fff"/>
        <path id="Path_13225" data-name="Path 13225" d="M16.06,14.586a.6.6,0,0,1,.6.6q.005,2.1.007,4.19a.02.02,0,0,1-.02.02H7.668a.019.019,0,0,1-.019-.019h0V15.362c0-.536.187-.776.741-.777h7.67Zm-3,2.405a.9.9,0,1,0-.9.9A.9.9,0,0,0,13.06,16.991Z" fill="#fff"/>
        <circle id="Ellipse_89" data-name="Ellipse 89" cx="0.297" cy="0.297" r="0.297" transform="translate(11.862 16.694)" fill="#fff"/>
        <rect id="Rectangle_1459" data-name="Rectangle 1459" width="12.028" height="1.199" rx="0.012" transform="translate(6.146 20.003)" fill="#fff"/>
      </g>
    </g>
  </g>
</svg>
