<svg id="current_location" xmlns="http://www.w3.org/2000/svg" width="17.997" height="18" viewBox="0 0 17.997 18">
  <path id="Path_11271" data-name="Path 11271" d="M413.517,319.9a10.6,10.6,0,0,1,1.145.253,4.854,4.854,0,0,1,3.351,4.882,6.338,6.338,0,0,1-.54,1.915,40.847,40.847,0,0,1-2.812,5.393c-.136.225-.268.455-.408.676a1.321,1.321,0,0,1-2.23,0,41.506,41.506,0,0,1-3.22-6.051,6.341,6.341,0,0,1-.554-2,4.894,4.894,0,0,1,3.708-4.919c.263-.061.526-.1.793-.145C413,319.9,413.259,319.9,413.517,319.9Zm-.38,2.6a1.967,1.967,0,1,0,1.957,1.967A1.965,1.965,0,0,0,413.137,322.5Z" transform="translate(-404.129 -319.9)" fill="#485a6f"/>
  <path id="Path_11272" data-name="Path 11272" d="M338.584,589.495a2.843,2.843,0,0,1-1.77,1.887,11.554,11.554,0,0,1-3.126.962,23.477,23.477,0,0,1-6.069.272,15.767,15.767,0,0,1-4.868-1.051,4.409,4.409,0,0,1-1.685-1.113,1.648,1.648,0,0,1-.019-2.3,3.607,3.607,0,0,1,1.094-.84.523.523,0,0,1,.526.9c-.2.136-.408.254-.6.4-.573.46-.573.878,0,1.347a5.246,5.246,0,0,0,1.8.892,16.779,16.779,0,0,0,3.91.714,23,23,0,0,0,3.685,0,14.609,14.609,0,0,0,4.722-1.047,3.379,3.379,0,0,0,1.042-.667.665.665,0,0,0-.014-1.122,5.794,5.794,0,0,0-.681-.488.55.55,0,0,1-.258-.54.5.5,0,0,1,.427-.432.568.568,0,0,1,.319.047,3.05,3.05,0,0,1,1.188.962,5,5,0,0,1,.371.8C338.584,589.218,338.584,589.359,338.584,589.495Z" transform="translate(-320.587 -574.699)" fill="#485a6f"/>
  <path id="Path_11273" data-name="Path 11273" d="M388.923,576.1a6.475,6.475,0,0,0-2.248.695,2.478,2.478,0,0,0-.2.16c.16.1.3.2.441.277a6.76,6.76,0,0,0,1.887.526,17.193,17.193,0,0,0,4.708.066,8.06,8.06,0,0,0,2.2-.521,2.888,2.888,0,0,0,.573-.343,5.31,5.31,0,0,0-2.417-.854c.178-.305.347-.6.526-.887a.176.176,0,0,1,.145-.052,6.318,6.318,0,0,1,1.99.652,2.453,2.453,0,0,1,.5.38,1.023,1.023,0,0,1-.009,1.507,3.055,3.055,0,0,1-1.291.718,11.769,11.769,0,0,1-2.877.521,18.209,18.209,0,0,1-3.577-.066,8.634,8.634,0,0,1-2.826-.713,2.569,2.569,0,0,1-.657-.455,1.026,1.026,0,0,1,0-1.544,2.9,2.9,0,0,1,1.2-.676c.4-.127.812-.221,1.22-.329a.184.184,0,0,1,.239.108C388.59,575.55,388.754,575.818,388.923,576.1Z" transform="translate(-382.393 -563.172)" fill="#485a6f"/>
</svg>
