<?xml version="1.0" standalone="no"?>
<!DOCTYPE svg PUBLIC "-//W3C//DTD SVG 20010904//EN"
 "http://www.w3.org/TR/2001/REC-SVG-20010904/DTD/svg10.dtd">
<svg version="1.0" xmlns="http://www.w3.org/2000/svg"
 width="24" height="24" viewBox="0 0 90.000000 90.000000"
 preserveAspectRatio="xMidYMid meet">

<g transform="translate(0.000000,90.000000) scale(0.100000,-0.100000)"
fill="#000000" stroke="none">
<path d="M249 771 c-65 -21 -111 -74 -124 -142 -5 -26 -2 -39 9 -48 20 -17 46
1 46 31 0 32 29 77 60 93 23 12 68 15 210 15 200 0 227 -6 255 -60 8 -16 15
-49 15 -75 l0 -45 -42 0 -43 0 58 -57 57 -58 57 58 58 57 -41 0 -41 0 -6 60
c-6 71 -34 120 -85 152 -35 22 -48 23 -227 25 -104 1 -202 -2 -216 -6z"/>
<path d="M90 415 l-54 -55 40 0 41 0 6 -60 c6 -71 34 -120 85 -152 35 -22 45
-23 242 -23 197 0 207 1 242 23 64 40 108 143 74 171 -20 17 -46 -1 -46 -31 0
-32 -29 -77 -60 -93 -42 -22 -378 -22 -420 0 -39 20 -60 63 -60 120 l0 45 42
0 42 0 -54 55 c-30 30 -57 55 -60 55 -3 0 -30 -25 -60 -55z"/>
</g>
</svg>
