<svg id="dr_address" xmlns="http://www.w3.org/2000/svg" width="24" height="24" viewBox="0 0 24 24">
  <rect id="Rectangle_1375" data-name="Rectangle 1375" width="24" height="24" transform="translate(0)" fill="none"/>
  <path id="Path_12870" data-name="Path 12870" d="M100.706,39.046c.061-.4.107-.807.183-1.2a9.5,9.5,0,0,1,3.518-5.718,9.3,9.3,0,0,1,4.416-1.919,9.606,9.606,0,0,1,11.01,10.386c-.069-.053-.114-.084-.16-.122-.525-.48-1.051-.952-1.576-1.439a.536.536,0,0,1-.152-.289,7.636,7.636,0,0,0-1.881-4.157,7.716,7.716,0,0,0-12.83,8.239,20.7,20.7,0,0,0,3.518,5.246,37.422,37.422,0,0,0,3.3,3.3.64.64,0,0,1,.244.541c-.015.609-.008,1.218-.008,1.827,0,.076-.008.152-.015.274l-.48-.381a35.3,35.3,0,0,1-6.86-7.462,13.4,13.4,0,0,1-2.071-4.652c-.069-.335-.114-.678-.168-1.013C100.706,40.013,100.706,39.533,100.706,39.046Z" transform="translate(-100.69 -30.075)"/>
  <path id="Path_12871" data-name="Path 12871" d="M114.2,54.046c-.16-.038-.312-.076-.472-.122a2.545,2.545,0,0,1-1.812-2.505c-.008-.868,0-1.736,0-2.6v-.3c-.19.175-.35.312-.525.464-.419-.457-.83-.914-1.256-1.378l7.279-6.64q3.655,3.324,7.279,6.64c-.419.464-.83.914-1.256,1.378-.168-.145-.335-.289-.533-.457V51.4a2.536,2.536,0,0,1-2.208,2.627.408.408,0,0,0-.084.038C118.485,54.046,116.345,54.046,114.2,54.046Zm3.228-10.561c-.038.03-.069.046-.091.069-1.142,1.043-2.284,2.079-3.426,3.129a.41.41,0,0,0-.114.282c-.008,1.477-.008,2.954-.008,4.431a.692.692,0,0,0,.792.769h5.673c.548,0,.8-.251.8-.807V47.817a2.836,2.836,0,0,0-.038-1.02c-.122-.282-.464-.472-.708-.7C119.345,45.236,118.393,44.368,117.426,43.485Z" transform="translate(-100.69 -30.075)"/>
  <path id="Path_12872" data-name="Path 12872" d="M114.259,39.693a3.967,3.967,0,1,1-3.944-3.982A3.968,3.968,0,0,1,114.259,39.693Zm-1.873-.008a2.1,2.1,0,1,0-2.109,2.094A2.1,2.1,0,0,0,112.386,39.685Z" transform="translate(-100.69 -30.075)"/>
  <path id="Path_12873" data-name="Path 12873" d="M116.056,47.444h2.772v2.787h-2.772Z" transform="translate(-100.69 -30.075)"/>
</svg>
