<svg xmlns="http://www.w3.org/2000/svg" width="24" height="24.075" viewBox="0 0 24 24.075">
  <g id="dr_help" transform="translate(0 0.037)">
    <rect id="Rectangle_1190" data-name="Rectangle 1190" width="24" height="24" fill="none"/>
    <path id="Path_12147" data-name="Path 12147" d="M12.279.75h1.05a9.16,9.16,0,0,1,8.944,9.362v.912" transform="translate(0.572 -0.037)" fill="none" stroke="#000" stroke-linecap="round" stroke-linejoin="round" stroke-width="1.5"/>
    <path id="Path_12148" data-name="Path 12148" d="M12.279,5.556h.538a4.791,4.791,0,0,1,4.575,4.981v.487" transform="translate(0.572 -0.037)" fill="none" stroke="#000" stroke-linecap="round" stroke-linejoin="round" stroke-width="1.5"/>
    <path id="Path_12149" data-name="Path 12149" d="M6.709,11.187s1.144-.871,1.3-1.357S6.962,6.8,5.574,5.549a2.676,2.676,0,0,0-3.656-.126,3.786,3.786,0,0,0-.831,4.244C1.906,11.277,5.549,19.806,15,23.1a3.286,3.286,0,0,0,3.692-1.261c1.307-2.035.835-2.781-.715-4.011s-2.947-2.446-4.425-1.519l-.638.775" transform="translate(0.572 -0.037)" fill="none" stroke="#000" stroke-linecap="round" stroke-linejoin="round" stroke-width="1.5"/>
  </g>
</svg>
