<svg xmlns="http://www.w3.org/2000/svg" width="24" height="24" viewBox="0 0 24 24">
  <g id="delete_account" data-name="delete account" transform="translate(3262 -7728)">
    <path id="Path_6495" data-name="Path 6495" d="M168.008,174.857a16.561,16.561,0,0,1-1.621-.375,6.4,6.4,0,0,1,2.079-12.444l.142,0a6.416,6.416,0,0,1,6.231,5.374c.019.124.04.251.062.378l.027.159v.994l-.007.029c-.012.05-.025.107-.033.168v.012a6.292,6.292,0,0,1-4.26,5.33,12.145,12.145,0,0,1-1.6.371Zm.524-11.569a5.19,5.19,0,0,0-5.182,5.162,5.167,5.167,0,0,0,5.168,5.17h0a5.448,5.448,0,0,0,1.116-.117,5.169,5.169,0,0,0-1.1-10.215Z" transform="translate(-3412.927 7577.143)"/>
    <path id="Path_6496" data-name="Path 6496" d="M57.3,8.952A4.474,4.474,0,0,1,56.457.085c.11-.021.221-.044.332-.068L56.87,0l.891,0,.243.051c.189.039.367.076.541.125A4.473,4.473,0,0,1,61.6,5.72a4.5,4.5,0,0,1-4.3,3.232m.007-7.709a3.239,3.239,0,0,0,.007,6.477h.007a3.239,3.239,0,1,0-.013-6.477Z" transform="translate(-3311.18 7728)"/>
    <path id="Path_6497" data-name="Path 6497" d="M3.187,171.1c-.326,0-.657-.015-.982-.044A2.514,2.514,0,0,1,.04,168.982l0-.025-.008-.024c-.008-.026-.018-.051-.028-.076v-.889c.015-.081.029-.163.044-.244.039-.222.077-.432.125-.641a6.388,6.388,0,0,1,6.151-4.937c.434,0,.9-.007,1.43-.007q.872,0,1.744.005h.369a.619.619,0,0,1,.016,1.237H6.4a5.148,5.148,0,0,0-5.092,4.306,4.777,4.777,0,0,0-.069.732A1.313,1.313,0,0,0,2.4,169.855a1.318,1.318,0,0,0,.148.008c.034,0,.068,0,.1,0H8.138a.632.632,0,0,1,.588.407.619.619,0,0,1-.582.83H8.121q-1.115,0-2.23,0t-2.23,0H3.646c-.152.006-.307.01-.459.01" transform="translate(-3262 7577.049)"/>
    <path id="Path_6498" data-name="Path 6498" d="M222.36,247.25l-.044,0H218.5a.621.621,0,0,1-.036-1.241h.037l.044,0h3.816a.621.621,0,0,1,.036,1.241h-.037" transform="translate(-3464.839 7498.968)"/>
    <rect id="Rectangle_2912" data-name="Rectangle 2912" width="24" height="24" transform="translate(-3262 7728)" fill="none"/>
  </g>
</svg>
