<svg id="dr_edit_profile" xmlns="http://www.w3.org/2000/svg" width="24" height="23.997" viewBox="0 0 24 23.997">
  <path id="Path_12156" data-name="Path 12156" d="M24,17.947a6.21,6.21,0,0,1-1.468,4.121A5.548,5.548,0,0,1,19.3,23.859a6.839,6.839,0,0,1-1.339.13C15.974,24,13.986,24,12,24H6.033a6.371,6.371,0,0,1-3.344-.921,5.547,5.547,0,0,1-2.609-4.1,9.217,9.217,0,0,1-.067-1.486C.005,13.67.008,9.854,0,6.038A6.442,6.442,0,0,1,.761,2.961,5.561,5.561,0,0,1,5.044.075,9.219,9.219,0,0,1,6.472.01Q12.213,0,17.952,0a6.144,6.144,0,0,1,4.118,1.473,5.641,5.641,0,0,1,1.8,3.292,6.788,6.788,0,0,1,.122,1.311C24,10.034,24,13.99,24,17.947Z" transform="translate(0)" fill="#2560fc"/>
  <path id="Path_12157" data-name="Path 12157" d="M5.231,16.7c0-.44.061-.881.065-1.321a2.1,2.1,0,0,1,.631-1.517q2.82-2.827,5.647-5.65a.318.318,0,0,1,.526.009q.9.909,1.813,1.8a.785.785,0,0,0,1.189.075.817.817,0,0,0-.079-1.2c-.581-.585-1.166-1.166-1.749-1.751-.251-.251-.251-.386-.005-.637s.47-.485.712-.719a1.875,1.875,0,0,1,2.659-.016q.811.786,1.591,1.6a1.87,1.87,0,0,1,.04,2.6c-.474.518-.984,1-1.481,1.5q-3.237,3.247-6.472,6.5a2.532,2.532,0,0,1-1.934.8c-.806-.014-1.613,0-2.419,0-.562,0-.74-.186-.734-.743,0-.44,0-.882,0-1.322Z" transform="translate(0)" fill="#fff"/>
</svg>
