<svg id="dr_favorite" xmlns="http://www.w3.org/2000/svg" width="24" height="24" viewBox="0 0 24 24">
  <rect id="Rectangle_1379" data-name="Rectangle 1379" width="24" height="24" transform="translate(0)" fill="none"/>
  <path id="Path_12884" data-name="Path 12884" d="M58.447,14.643a6.3,6.3,0,0,0-4.963-2.327,7.822,7.822,0,0,0-1.02.069,6.2,6.2,0,0,0-3.846,2.1c-.138.149-.269.3-.4.459-.132-.16-.264-.321-.407-.47A6.337,6.337,0,0,0,43.133,12.3a7.069,7.069,0,0,0-2.126.344,6.634,6.634,0,0,0-4.539,5.009,8.325,8.325,0,0,0-.178.963c-.023.143-.04.287-.063.43l-.006.023v1.106l.006.029c.006.017.011.04.017.057a.33.33,0,0,1,.011.057,8.429,8.429,0,0,0,1.427,3.937A16.533,16.533,0,0,0,40.6,27.6c1.851,1.651,3.754,3.3,5.6,4.9l.9.779a1.675,1.675,0,0,0,1.118.453,1.819,1.819,0,0,0,1.2-.5l.51-.436c1.473-1.267,2.992-2.573,4.482-3.869a26.239,26.239,0,0,0,3.926-4.035,8.774,8.774,0,0,0,1.777-3.943A7.533,7.533,0,0,0,58.447,14.643ZM49.816,30.313c-.533.458-1.06.917-1.593,1.375-.092-.08-.183-.16-.275-.235-.321-.275-.659-.562-.98-.848L45.621,29.43c-1.215-1.055-2.47-2.149-3.685-3.244a15.313,15.313,0,0,1-2.619-2.98,6.15,6.15,0,0,1-.791-5.634,4.617,4.617,0,0,1,3.536-3.21,5.1,5.1,0,0,1,1.043-.115A4.26,4.26,0,0,1,46.28,15.7a7.842,7.842,0,0,1,.722.917l.275.378a1.191,1.191,0,0,0,.946.5,1.173,1.173,0,0,0,.946-.5c.057-.075.1-.155.155-.229.029-.046.063-.092.092-.143a5.317,5.317,0,0,1,2.063-1.909,4.529,4.529,0,0,1,1.972-.476,4.633,4.633,0,0,1,2.35.682A5.019,5.019,0,0,1,58.23,18.9a6.182,6.182,0,0,1-1.1,4.316,19.143,19.143,0,0,1-3.4,3.708C52.435,28.054,51.106,29.2,49.816,30.313Z" transform="translate(-36.222 -11.014)"/>
</svg>
