<svg id="dr_help" xmlns="http://www.w3.org/2000/svg" width="24" height="24" viewBox="0 0 24 24">
  <rect id="Rectangle_1383" data-name="Rectangle 1383" width="24" height="24" fill="none"/>
  <path id="Path_12893" data-name="Path 12893" d="M28.481,25.465a.589.589,0,0,0-.138.081.619.619,0,0,0-.151.159.594.594,0,0,0-.081.2c.049-.049.094-.1.138-.151h0c.049-.049.094-.1.142-.151s.106-.11.155-.167C28.529,25.445,28.5,25.457,28.481,25.465Z" transform="translate(-20.631 -9.605)"/>
  <path id="Path_12894" data-name="Path 12894" d="M42.121,23.829a1.789,1.789,0,0,0-.252-.016H39.8a3.112,3.112,0,0,0,.37-1.628H41.8a2.128,2.128,0,0,0,.313-.016.578.578,0,0,0,.517-.619.569.569,0,0,0-.529-.57,1.98,1.98,0,0,0-.26-.012h-.948c-.273,0-.5,0-.724,0,0-.334,0-.675,0-1.005v-.631h1.615a2.212,2.212,0,0,0,.362-.02.561.561,0,0,0,.484-.549.571.571,0,0,0-.439-.614,1.359,1.359,0,0,0-.338-.033H40.167V14.767a2.541,2.541,0,0,0-.252-1.209,2.448,2.448,0,0,0-2.324-1.416H23.117c-.037,0-.094,0-.151,0a2.543,2.543,0,0,0-1.729.867,3.288,3.288,0,0,0-.606,2.328v7.235a1.546,1.546,0,0,0,.049.488,2.793,2.793,0,0,0,.883,1.412,2.594,2.594,0,0,0,1.5.566c.094,0,.13.024.134.033a.365.365,0,0,1-.008.22c-.094.407-.191.814-.285,1.221-.061.252-.122.509-.179.765-.057.236-.11.476-.167.712q-.244,1.038-.472,2.031a.869.869,0,0,0,.163.749.785.785,0,0,0,.61.3.935.935,0,0,0,.183-.02,1.135,1.135,0,0,0,.545-.342c1.705-1.79,3.162-3.333,4.533-4.789a.522.522,0,0,1,.081-.2.557.557,0,0,1,.151-.159.773.773,0,0,1,.138-.081.515.515,0,0,1,.073-.024l.2-.208a.59.59,0,0,1,.484-.208c1.945,0,4.114,0,7.023,0h5.538a1.727,1.727,0,0,0,.374-.033.568.568,0,0,0,.452-.61A.593.593,0,0,0,42.121,23.829Zm-18.2,3.642.452-1.929a1.417,1.417,0,0,0-.187-1.2,1.368,1.368,0,0,0-1.034-.525,1.37,1.37,0,0,1-1.314-1.493c.016-1.8.016-3.609.012-5.363v-.028c0-.708,0-1.42,0-2.128A1.3,1.3,0,0,1,23.3,13.351H37.53a1.281,1.281,0,0,1,1.367.968,1.8,1.8,0,0,1,.045.456c0,2.621,0,5.111,0,7.609a1.272,1.272,0,0,1-.96,1.375,2.073,2.073,0,0,1-.521.049h-.533c-1.522,0-2.69,0-3.793,0-1.457,0-2.739,0-3.923-.008H29.2a1.722,1.722,0,0,0-1.335.582c-1.062,1.135-2.149,2.283-3.2,3.394,0,0-.907.96-1.086,1.148C23.691,28.444,23.8,27.956,23.919,27.471Z" transform="translate(-20.631 -9.605)"/>
  <path id="Path_12895" data-name="Path 12895" d="M28.192,25.705c.049-.053.1-.106.151-.159A.619.619,0,0,0,28.192,25.705Z" transform="translate(-20.631 -9.605)"/>
  <path id="Path_12896" data-name="Path 12896" d="M44.623,25.587a2.425,2.425,0,0,1-2.572,2.466c-.557,0-1.322,0-2.3,0h-9.1a2.519,2.519,0,0,1-1.9-.741,2.42,2.42,0,0,1-.623-1.131.644.644,0,0,1-.012-.277c.049-.049.094-.1.138-.151h0c.049-.049.094-.1.142-.151s.106-.11.155-.167a.564.564,0,0,1,.163-.024.6.6,0,0,1,.545.374,1.16,1.16,0,0,1,.065.175v0c.016.049.033.1.049.138a1.242,1.242,0,0,0,1.257.732h0c.6,0,1.241,0,2.075,0h6.36q1.477,0,2.954,0a1.3,1.3,0,0,0,1.119-.484,1.232,1.232,0,0,0,.256-.777V24.155c0-2.136,0-4.346,0-6.531a1.2,1.2,0,0,0-1.241-1.253h-.582c-.142,0-.26,0-.37-.012a.893.893,0,0,1-.562-.277.551.551,0,0,1-.065-.582.524.524,0,0,1,.444-.326c.11,0,.224-.012.334-.016h0c.2-.012.395-.02.594-.02a2.791,2.791,0,0,1,1.29.265,2.354,2.354,0,0,1,1.371,2.206C44.635,20.3,44.635,22.987,44.623,25.587Z" transform="translate(-20.631 -9.605)"/>
  <path id="Path_12897" data-name="Path 12897" d="M28.554,25.441c-.053.057-.106.11-.155.167s-.094.1-.142.151h0c-.045.049-.094.1-.138.151a.522.522,0,0,1,.081-.2.557.557,0,0,1,.151-.159.773.773,0,0,1,.138-.081A.242.242,0,0,1,28.554,25.441Z" transform="translate(-20.631 -9.605)"/>
  <path id="Path_12898" data-name="Path 12898" d="M28.4,25.608c-.049.049-.094.1-.142.151A.556.556,0,0,1,28.4,25.608Z" transform="translate(-20.631 -9.605)"/>
  <path id="Path_12899" data-name="Path 12899" d="M25.555,18.389h1.213V17.148c0-.317.183-.452.492-.37a.263.263,0,0,1,.224.277q0,1.7,0,3.394c0,.2-.138.293-.362.289s-.346-.1-.35-.305c0-.48,0-.96,0-1.461H25.555v1.371c0,.317-.183.452-.492.37a.258.258,0,0,1-.224-.273c0-1.131,0-2.262,0-3.394,0-.2.126-.289.358-.289s.35.094.35.3C25.563,17.494,25.555,17.929,25.555,18.389Z" transform="translate(-20.631 -9.605)"/>
  <path id="Path_12900" data-name="Path 12900" d="M34.356,19.243v1.1c0,.321-.179.456-.488.374a.258.258,0,0,1-.224-.273v-3.41a.239.239,0,0,1,.252-.264,11.419,11.419,0,0,1,1.347.02,1.085,1.085,0,0,1,.993,1.294,1.1,1.1,0,0,1-1.2,1.16C34.824,19.252,34.6,19.243,34.356,19.243Zm0-.566a4.087,4.087,0,0,0,.745-.012.49.49,0,0,0,.346-.273,1.9,1.9,0,0,0,0-.712.4.4,0,0,0-.264-.248,6.934,6.934,0,0,0-.83-.057C34.361,17.835,34.361,18.246,34.361,18.678Z" transform="translate(-20.631 -9.605)"/>
  <path id="Path_12901" data-name="Path 12901" d="M28.851,17.4v1.066c.24,0,.468,0,.7,0,.2,0,.33.057.334.281,0,.2-.09.273-.33.277s-.456,0-.7,0v1.091c.48,0,.952,0,1.424,0a.282.282,0,0,1,.321.3.269.269,0,0,1-.3.321c-.61,0-1.221.008-1.835,0-.26,0-.338-.094-.338-.354V17.107c0-.256.081-.342.342-.346.6,0,1.209,0,1.811,0a.274.274,0,0,1,.313.305.279.279,0,0,1-.305.317c-.435,0-.871,0-1.306,0A1.069,1.069,0,0,0,28.851,17.4Z" transform="translate(-20.631 -9.605)"/>
  <path id="Path_12902" data-name="Path 12902" d="M31.72,20.11h1.168c.273,0,.374.09.374.317s-.1.309-.378.309c-.488,0-.977,0-1.465,0-.334,0-.4-.069-.4-.407V17.123c0-.273.09-.366.346-.366s.354.094.354.358v2.7C31.72,19.907,31.72,19.988,31.72,20.11Z" transform="translate(-20.631 -9.605)"/>
</svg>
