<svg id="dr_invite_friend" xmlns="http://www.w3.org/2000/svg" width="24" height="24" viewBox="0 0 24 24">
  <rect id="Rectangle_1384" data-name="Rectangle 1384" width="24" height="24" fill="none"/>
  <path id="Path_12903" data-name="Path 12903" d="M45.076,43.883a2.361,2.361,0,0,1-2.2-1.38,2.842,2.842,0,0,1-.216-.6c-.024-.091-.053-.183-.082-.279v-.592a7.831,7.831,0,0,1,1.082-2.5,9.085,9.085,0,0,1,4.184-3.453c.053-.024.106-.043.164-.067l.5-.207-.308-.308a4.53,4.53,0,0,1-1.424-4.122,4.61,4.61,0,0,1,4.545-3.886,4.7,4.7,0,0,1,2.511.721,4.548,4.548,0,0,1,1.765,2.111l.12.3,2.665-1.448L58.1,27.9a4.57,4.57,0,0,1-1.361-4.3,4.316,4.316,0,0,1,1.64-2.665,4.672,4.672,0,0,1,2.891-1.005,4.531,4.531,0,0,1,3.256,1.366,4.648,4.648,0,0,1-.168,6.642l-.308.289.38.178c.082.038.164.072.24.111.173.077.337.154.491.236.341.188.7.39,1.053.62a.742.742,0,0,1,.337.462.669.669,0,0,1-.64.789.748.748,0,0,1-.414-.13,7.462,7.462,0,0,0-2.535-1.121,8.636,8.636,0,0,0-1.823-.2,7.367,7.367,0,0,0-5.055,2.03.659.659,0,0,0-.207.4,4.532,4.532,0,0,1-1.395,2.814.851.851,0,0,0-.072.087c0,.01-.014.019-.024.034l-.221.289.327.149c.077.034.154.067.226.1.159.072.308.135.447.212.337.188.731.4,1.1.64a.659.659,0,0,1,.25.952.635.635,0,0,1-.543.308.8.8,0,0,1-.423-.135,7.275,7.275,0,0,0-2.564-1.125,9.039,9.039,0,0,0-1.8-.188,7.626,7.626,0,0,0-5.425,2.289,7.027,7.027,0,0,0-1.746,2.766,1.355,1.355,0,0,0,.115,1.255,1.337,1.337,0,0,0,1.135.524h8.138a.685.685,0,0,1,.755.524.615.615,0,0,1-.115.539.6.6,0,0,1-.481.231H48.678c-1.409,0-2.554,0-3.607,0h0Zm6.238-16.04A3.263,3.263,0,0,0,51.3,34.37h.019a3.263,3.263,0,0,0,0-6.527Zm9.937-6.57a3.263,3.263,0,0,0-.01,6.527h.01a3.261,3.261,0,0,0,2.309-5.565,3.223,3.223,0,0,0-2.3-.962Z" transform="translate(-42.575 -19.909)"/>
  <path id="Path_12904" data-name="Path 12904" d="M62.289,43.893c-.058,0-.12,0-.183-.01a.64.64,0,0,1-.467-.611c-.01-.558,0-1.121,0-1.669V40.329H58.817a.688.688,0,0,1-.779-.669.62.62,0,0,1,.178-.457.819.819,0,0,1,.592-.216h2.828V36.144a.679.679,0,0,1,.664-.755h0a.676.676,0,0,1,.669.765v2.833h2.842a.683.683,0,0,1,.76.664.631.631,0,0,1-.178.462.815.815,0,0,1-.587.216H62.972v2.833a1.137,1.137,0,0,1-.01.192A.593.593,0,0,1,62.289,43.893Z" transform="translate(-42.575 -19.909)"/>
</svg>
