<svg id="dr_language" xmlns="http://www.w3.org/2000/svg" width="24" height="24" viewBox="0 0 24 24">
  <rect id="Rectangle_1193" data-name="Rectangle 1193" width="24" height="24" fill="none"/>
  <circle id="Ellipse_48" data-name="Ellipse 48" cx="5.891" cy="5.891" r="5.891" transform="translate(11.468 0.75)" fill="none" stroke="#000" stroke-linecap="round" stroke-linejoin="round" stroke-width="1.5"/>
  <circle id="Ellipse_49" data-name="Ellipse 49" cx="5.891" cy="5.891" r="5.891" transform="translate(0.75 11.468)" fill="none" stroke="#000" stroke-linecap="round" stroke-linejoin="round" stroke-width="1.5"/>
  <path id="Path_12150" data-name="Path 12150" d="M7.308,4.131C1.3,3.531,1.863,8.066,1.863,8.066" fill="none" stroke="#000" stroke-linecap="round" stroke-linejoin="round" stroke-width="1.5"/>
  <path id="Path_12151" data-name="Path 12151" d="M5.6,1.69,8.151,4.077,6.043,6.071" fill="none" stroke="#000" stroke-linecap="round" stroke-linejoin="round" stroke-width="1.5"/>
  <path id="Path_12152" data-name="Path 12152" d="M16.669,20.432c6.007.6,5.444-3.934,5.444-3.934" fill="none" stroke="#000" stroke-linecap="round" stroke-linejoin="round" stroke-width="1.5"/>
  <path id="Path_12153" data-name="Path 12153" d="M18.372,22.873l-2.547-2.387,2.108-1.994" fill="none" stroke="#000" stroke-linecap="round" stroke-linejoin="round" stroke-width="1.5"/>
  <line id="Line_45" data-name="Line 45" y2="4.707" transform="translate(18.785 4.548)" fill="none" stroke="#000" stroke-linecap="round" stroke-linejoin="round" stroke-width="1.5"/>
  <path id="Path_12154" data-name="Path 12154" d="M14.429,4.548H16.8a3.869,3.869,0,0,1-2.25,3.2" fill="none" stroke="#000" stroke-linecap="round" stroke-linejoin="round" stroke-width="1.5"/>
  <line id="Line_46" data-name="Line 46" x1="0.983" transform="translate(18.785 5.788)" fill="none" stroke="#000" stroke-linecap="round" stroke-linejoin="round" stroke-width="1.5"/>
  <path id="Path_12155" data-name="Path 12155" d="M4.637,19.8l2.015-4.874,1.993,4.819" fill="none" stroke="#000" stroke-linecap="round" stroke-linejoin="round" stroke-width="1.5"/>
  <line id="Line_47" data-name="Line 47" x2="3.291" transform="translate(5.007 18.902)" fill="none" stroke="#000" stroke-linecap="round" stroke-linejoin="round" stroke-width="1.5"/>
</svg>
