<svg id="dr_order_history" xmlns="http://www.w3.org/2000/svg" width="24" height="24" viewBox="0 0 24 24">
  <rect id="Rectangle_1374" data-name="Rectangle 1374" width="24" height="24" fill="none"/>
  <path id="Path_12868" data-name="Path 12868" d="M88.426,33.879c.151-.1.223-.151.3-.2a.783.783,0,0,1,1.1.216.829.829,0,0,1-.059,1.148c-.643.689-1.292,1.364-1.961,2.027a.8.8,0,0,1-1.233-.033c-.636-.636-1.266-1.286-1.883-1.948a.9.9,0,0,1-.046-1.279.8.8,0,0,1,1.233.039,5.227,5.227,0,0,1,.485.649l.157-.1c.085-.341.164-.689.256-1.03a11.08,11.08,0,0,1,11.112-8.311,11.207,11.207,0,0,1,10.383,9.662,11.558,11.558,0,0,1-5.739,11.813,10.732,10.732,0,0,1-12.7-1.771,1.326,1.326,0,0,1-.466-.754,1.262,1.262,0,0,1,.426-.853c.348-.3.708-.085,1.056.177a16.6,16.6,0,0,0,2.67,1.869c5.812,2.735,12.332-1.109,13.086-7.661a9.587,9.587,0,0,0-7.222-10.469,9.3,9.3,0,0,0-10.869,6.435C88.485,33.59,88.472,33.676,88.426,33.879Z" transform="translate(-84.396 -24.453)"/>
  <path id="Path_12869" data-name="Path 12869" d="M96.527,33.085c0-1.049-.007-2.092,0-3.142.007-.708.308-1.109.833-1.122s.872.413.872,1.148c.007,1.869-.013,3.745.02,5.615a1.454,1.454,0,0,0,.335.853c.748.833,1.548,1.62,2.322,2.427.479.5.531,1.01.164,1.4s-.886.348-1.351-.138c-.931-.958-1.876-1.9-2.775-2.893a1.756,1.756,0,0,1-.394-1.017C96.494,35.178,96.527,34.128,96.527,33.085Z" transform="translate(-84.396 -24.453)"/>
</svg>
