<svg id="dr_payment" xmlns="http://www.w3.org/2000/svg" width="24" height="24" viewBox="0 0 24 24">
  <rect id="Rectangle_1381" data-name="Rectangle 1381" width="24" height="24" fill="none"/>
  <path id="Path_12891" data-name="Path 12891" d="M96.948,28.294V23.431a.729.729,0,0,0-.826-.832H95.113V20.122A2.529,2.529,0,0,0,94.1,18.067a2.288,2.288,0,0,1-.232-.208l-2.177-2.177-4.355-4.355c-.086-.086-.177-.159-.263-.232-.037-.031-.073-.061-.116-.092l-.067-.061h-.465l-.073.067c-.116.11-.232.22-.343.33-.263.251-.532.5-.8.758-.092.092-.177.183-.263.281L84.8,12.22l-.887-.887q-.138-.128-.275-.239l-.116-.1-.067-.061H83l-.067.055-.1.086q-.128.1-.257.22c-.716.709-1.425,1.425-2.141,2.135-1.321,1.321-2.685,2.685-4.031,4.024a.3.3,0,0,1-.159.08A2.561,2.561,0,0,0,73.621,20.2v3.511c0,.153,0,.312.006.471,0,.031.006.232.012.508.012.343.024.826.043,1.394-.037,1.193-.055,2.159-.055,2.263v.942c-.006,1.028-.006,2.092.006,3.144a2.329,2.329,0,0,0,1.021,1.957,3.119,3.119,0,0,0,1.15.483c.1.018.2.031.294.043a3.58,3.58,0,0,0,.379.018c.153,0,.306-.006.453-.012s.287-.012.428-.012H91.963a3.206,3.206,0,0,0,2.324-.654,2.544,2.544,0,0,0,.838-1.865c.006-.63.006-1.242,0-1.9v-.624h1.089a.706.706,0,0,0,.746-.758C96.954,28.844,96.954,28.569,96.948,28.294ZM86.661,12.709l4.832,4.832H81.829Zm-3.443.012.691.691-.942.942c-1.021,1.021-2.08,2.08-3.113,3.119a.266.266,0,0,1-.214.092h-.012c-.214-.006-.453-.006-.74-.006h-.508C79.908,16.024,83.217,12.722,83.217,12.722ZM93.706,32.275a1.143,1.143,0,0,1-1.248,1.242H76.269a1.149,1.149,0,0,1-1.248-1.242v-3.9c0-.1-.018-1.064-.055-2.343l.012-.037-.012-.037c.012-.416.024-.789.031-1.083.012-.361.018-.642.018-.679a.8.8,0,0,0,0-.171V20.183a1.129,1.129,0,0,1,1.217-1.223H92.5a1.132,1.132,0,0,1,1.2,1.211v2.422H89.682c-1.07,0-1.945,0-2.752.006A3.639,3.639,0,0,0,87,29.878h6.709v2.4Zm1.823-3.8H90.777c-1.48,0-2.685,0-3.786-.006a2.241,2.241,0,0,1-1.621-.679,2.268,2.268,0,0,1-.624-1.651,2.221,2.221,0,0,1,2.19-2.128c.385-.006.8-.012,1.3-.012h7.291Z" transform="translate(-73.291 -10.936)"/>
  <path id="Path_12892" data-name="Path 12892" d="M87,27.615a1.376,1.376,0,1,1,1.382-1.364A1.377,1.377,0,0,1,87,27.615Zm.465-1.364a.456.456,0,1,0-.477.446A.459.459,0,0,0,87.468,26.251Z" transform="translate(-73.291 -10.936)"/>
</svg>
