<svg xmlns="http://www.w3.org/2000/svg" width="24.032" height="24" viewBox="0 0 24.032 24">
  <g id="dr_rateus" transform="translate(0.016)">
    <rect id="Rectangle_1191" data-name="Rectangle 1191" width="24" height="24" fill="none"/>
    <path id="dr_rateus-2" data-name="dr_rateus" d="M12,18.974,6.293,22A1.1,1.1,0,0,1,4.684,20.85l.986-6.336-4.555-4.47A1.246,1.246,0,0,1,1.8,7.923L8.1,6.96l3.1-5.744a.9.9,0,0,1,1.581,0L15.9,6.96l6.305.964a1.246,1.246,0,0,1,.683,2.121l-4.554,4.47.986,6.336A1.1,1.1,0,0,1,17.709,22Z" transform="translate(0 0.554)" fill="none" stroke="#000" stroke-linecap="round" stroke-linejoin="round" stroke-width="1.482"/>
  </g>
</svg>
