<svg xmlns="http://www.w3.org/2000/svg" width="24" height="24.078" viewBox="0 0 24 24.078">
  <g id="home" transform="translate(0 0.039)">
    <rect id="back" width="24" height="24" fill="none"/>
    <path id="Path_12191" data-name="Path 12191" d="M.268,9.835,1.514,21.583a2.426,2.426,0,0,0,2.413,2.168h15.2a2.424,2.424,0,0,0,2.406-2.128l1.42-11.48a2.424,2.424,0,0,0-.9-2.2L13.056.8a2.429,2.429,0,0,0-3-.031l-8.862,6.9A2.426,2.426,0,0,0,.268,9.835Z" transform="translate(0.388 0.032)" fill="none" stroke="#898989" stroke-linecap="round" stroke-linejoin="round" stroke-width="0.511"/>
    <path id="Path_12192" data-name="Path 12192" d="M14.992,18.577V16.126a3.376,3.376,0,1,0-6.753,0v2.452" transform="translate(0.388 0.032)" fill="none" stroke="#898989" stroke-linecap="round" stroke-linejoin="round" stroke-width="0.511"/>
  </g>
</svg>
