<svg xmlns="http://www.w3.org/2000/svg" width="24" height="24" viewBox="0 0 24 24">
    <path data-name="Rectangle 1402" style="fill:none" d="M0 0h24v24H0z"/>
    <path data-name="Path 12913" d="M73.979 44.923v1.378a.984.984 0 0 1-.767 1.1 22.609 22.609 0 0 1-4.786 1.175A23.466 23.466 0 0 1 57.278 47.4a.991.991 0 0 1-.759-1.078c0-.8.016-1.6 0-2.4a4.171 4.171 0 0 1 1.805-3.594A10.726 10.726 0 0 1 62.3 38.6a.476.476 0 0 1 .3.07 5.25 5.25 0 0 0 5.315 0 .471.471 0 0 1 .3-.068A11.155 11.155 0 0 1 72 40.192a4.168 4.168 0 0 1 1.934 2.966 15.626 15.626 0 0 1 .011 1.765z" transform="translate(-56.513 -27.295)" style="fill:#fff"/>
    <path data-name="Path 12914" d="M65.252 38.425a4.313 4.313 0 1 1 4.319-4.305 4.306 4.306 0 0 1-4.319 4.305z" transform="translate(-56.513 -27.295)" style="fill:#fff"/>
    <path data-name="Path 12915" d="M74.422 47.765a2.4 2.4 0 0 0 .521-1.827 60.27 60.27 0 0 1 0-2.126 5.1 5.1 0 0 0-1.035-3.184 1.454 1.454 0 0 1-.08-.126v-.052a4.557 4.557 0 0 0 2-.6.338.338 0 0 1 .231-.009 8.212 8.212 0 0 1 3.092 1.378 3.253 3.253 0 0 1 1.362 2.787c-.018.638 0 1.277 0 1.917a.692.692 0 0 1-.446.713 18.175 18.175 0 0 1-5.645 1.129z" transform="translate(-56.513 -27.295)" style="fill:#fff"/>
    <path data-name="Path 12916" d="M73.624 39.487a3.355 3.355 0 1 1 3.346-3.359 3.357 3.357 0 0 1-3.346 3.359z" transform="translate(-56.513 -27.295)" style="fill:#fff"/>
</svg>
