<svg id="gpay" xmlns="http://www.w3.org/2000/svg" width="18" height="18" viewBox="0 0 18 18">
  <defs>
    <linearGradient id="linear-gradient" x1="0.15" y1="0.408" x2="0.909" y2="0.622" gradientUnits="objectBoundingBox">
      <stop offset="0.2" stop-color="#d93025"/>
      <stop offset="0.6" stop-color="#ea4335"/>
    </linearGradient>
    <linearGradient id="linear-gradient-2" x1="0.07" y1="0.363" x2="0.99" y2="0.575" gradientUnits="objectBoundingBox">
      <stop offset="0.2" stop-color="#4285f4"/>
      <stop offset="0.8" stop-color="#1b74e8"/>
    </linearGradient>
  </defs>
  <rect id="Rectangle_1303" data-name="Rectangle 1303" width="18" height="18" fill="none"/>
  <g id="art_layer" transform="translate(0.75 1.979)">
    <path id="Google_Red" d="M12.929,11.734l4.08-7.067L19.23,5.95a3,3,0,0,1,1.1,4.1l-2.3,3.979a1.875,1.875,0,0,1-2.561.686l-2.062-1.19A1.309,1.309,0,0,1,12.929,11.734Z" transform="translate(-4.242 -3.256)" fill="url(#linear-gradient)"/>
    <path id="Google_Yellow" d="M10.484,7.4,5.409,16.185l2.222,1.283a3,3,0,0,0,4.1-1.1l3.291-5.7a1.875,1.875,0,0,0-.686-2.561L12.272,6.917a1.309,1.309,0,0,0-1.788.479Z" transform="translate(-2.231 -3.824)" fill="#fdbd00"/>
    <path id="Google_Green" d="M14.894,4.135l-1.572-.908A3.75,3.75,0,0,0,8.2,4.6L5.283,9.652a1.875,1.875,0,0,0,.686,2.561l1.572.908a1.875,1.875,0,0,0,2.561-.686L13.585,6.4h0a2.619,2.619,0,0,1,3.578-.959" transform="translate(-2.128 -2.724)" fill="#2da94f"/>
    <path id="Google_Blue" d="M7.557,6.888l-1.735-1a1.619,1.619,0,0,0-2.209.591l-2.082,3.6A3.7,3.7,0,0,0,2.89,15.135l1.321.761,1.6.923.7.4a2.842,2.842,0,0,1-.872-3.785l.539-.931L8.149,9.091a1.611,1.611,0,0,0-.592-2.2Z" transform="translate(-1.033 -3.531)" fill="url(#linear-gradient-2)"/>
  </g>
</svg>
