<svg id="grid" xmlns="http://www.w3.org/2000/svg" width="16" height="16" viewBox="0 0 16 16">
  <rect id="Rectangle_1157" data-name="Rectangle 1157" width="16" height="16" fill="none"/>
  <path id="Path_12103" data-name="Path 12103" d="M.022,3.451c0-.544,0-1.089,0-1.633A1.759,1.759,0,0,1,1.842,0q1.649,0,3.3,0A1.755,1.755,0,0,1,6.953,1.809q0,1.658,0,3.316A1.758,1.758,0,0,1,5.141,6.933q-1.649,0-3.3,0A1.76,1.76,0,0,1,.022,5.117c0-.555,0-1.111,0-1.666" transform="translate(-0.02)" fill="#2560fc"/>
  <path id="Path_12104" data-name="Path 12104" d="M203.624,3.467c0-.55,0-1.1,0-1.65A1.759,1.759,0,0,1,205.446,0q1.649,0,3.3,0a1.755,1.755,0,0,1,1.811,1.808q0,1.658,0,3.316a1.758,1.758,0,0,1-1.812,1.807q-1.649,0-3.3,0a1.76,1.76,0,0,1-1.82-1.817c0-.55,0-1.1,0-1.65" transform="translate(-194.558)" fill="#2560fc"/>
  <path id="Path_12105" data-name="Path 12105" d="M6.934,207.467c0,.55,0,1.1,0,1.65a1.76,1.76,0,0,1-1.821,1.816q-1.649,0-3.3,0A1.758,1.758,0,0,1,0,209.125q0-1.658,0-3.316A1.757,1.757,0,0,1,1.815,204q1.649,0,3.3,0a1.758,1.758,0,0,1,1.82,1.816c0,.55,0,1.1,0,1.65" transform="translate(0 -194.935)" fill="#2560fc"/>
  <path id="Path_12106" data-name="Path 12106" d="M207.1,210.961a3.466,3.466,0,1,1,3.474-3.454,3.469,3.469,0,0,1-3.474,3.454" transform="translate(-194.574 -194.963)" fill="#2560fc"/>
</svg>
