<svg id="Hindi" xmlns="http://www.w3.org/2000/svg" width="24" height="24" viewBox="0 0 24 24">
  <defs>
    <clipPath id="clip-path">
      <path id="Path_12377" data-name="Path 12377" d="M23.994,12.009A12,12,0,1,1,11.994,0a12,12,0,0,1,12,12.009Z" transform="translate(0.006 0)" fill="none"/>
    </clipPath>
    <clipPath id="clip-path-2">
      <rect id="Rectangle_1334" data-name="Rectangle 1334" width="46.113" height="30.773" fill="none"/>
    </clipPath>
  </defs>
  <rect id="Boundary" width="24" height="24" rx="12" fill="#f5f5f5"/>
  <g id="Group_2242" data-name="Group 2242" clip-path="url(#clip-path)">
    <g id="Group_2241" data-name="Group 2241" transform="translate(-11.056 -3.377)" clip-path="url(#clip-path-2)">
      <rect id="Rectangle_1331" data-name="Rectangle 1331" width="41.946" height="27.457" transform="translate(2.083 1.658)" fill="#fff"/>
      <rect id="Rectangle_1332" data-name="Rectangle 1332" width="41.946" height="9.151" transform="translate(2.083 1.658)" fill="#f0953e"/>
      <rect id="Rectangle_1333" data-name="Rectangle 1333" width="41.946" height="9.151" transform="translate(2.083 19.964)" fill="#3b8916"/>
      <path id="Path_12374" data-name="Path 12374" d="M14.617,10.507a4.125,4.125,0,1,0,2.921,1.208,4.129,4.129,0,0,0-2.921-1.208Zm0,.4-.1,2.074.112,1.182.107-1.182-.1-2.074h.313a.169.169,0,0,0,.336.028,2.191,2.191,0,0,1,.3.065l-.64,1.976-.177,1.205.411-1.112.411-2.037a1,1,0,0,1,.3.089.163.163,0,0,0,0,.065.178.178,0,0,0,.173.173.163.163,0,0,0,.154-.107l.28.145-1.13,1.747-.5,1.079.687-.972.934-1.868.262.168a.21.21,0,0,0-.033.107.168.168,0,0,0,.3.1c.079.065.159.135.234.21L15.7,13.37l-.761.934.934-.757,1.4-1.541a2.443,2.443,0,0,1,.21.229.17.17,0,0,0,.107.3.206.206,0,0,0,.1-.033,3.105,3.105,0,0,1,.168.262L16,13.7l-.967.687,1.079-.5,1.742-1.13a2.891,2.891,0,0,1,.149.294.163.163,0,0,0-.1.154.173.173,0,0,0,.168.173.149.149,0,0,0,.065,0,2.864,2.864,0,0,1,.084.285l-2.046.434-1.112.411,1.168-.2,1.976-.64c.028.1.051.2.07.3a.173.173,0,0,0,.023.341h0v.308l-2.074-.1-1.182.112,1.182.107,2.074-.1v.313h0a.173.173,0,0,0-.023.341,1.19,1.19,0,0,1-.07.3l-.705-.229-1.271-.411-1.149-.192h0l1.112.416,2.027.434a2.448,2.448,0,0,1-.093.3h-.037a.173.173,0,0,0-.168.173.15.15,0,0,0,0,.065h0a.168.168,0,0,0,.047.065h0c-.047.1-.093.187-.145.28l-1.742-1.13h0L15,14.874h0l.561.4.4.285h0l1.868.934c-.056.093-.112.182-.173.271a.145.145,0,0,0-.1-.033.173.173,0,0,0-.173.173.163.163,0,0,0,.061.126,2.392,2.392,0,0,1-.206.229l-1.4-1.541-.934-.757.757.934L17.2,17.3c-.075.07-.149.14-.229.2a.168.168,0,0,0-.107-.037.173.173,0,0,0-.154.243c-.089.065-.182.121-.276.178L15.5,16.014l-.687-.972h0l.5,1.084,1.126,1.742a3.013,3.013,0,0,1-.271.145.178.178,0,0,0-.159-.1.173.173,0,0,0-.168.173.275.275,0,0,0,0,.061l-.3.093-.434-2.032-.341-1.112h0l.2,1.172.64,1.981-.3.065a.173.173,0,0,0-.341.028h0a2.3,2.3,0,0,1-.313,0l.107-2.074-.112-1.182-.107,1.182.1,2.074a2.41,2.41,0,0,1-.318,0,.173.173,0,0,0-.341-.028l-.3-.065.617-1.985.2-1.168-.411,1.112-.434,2.032-.3-.093a.145.145,0,0,0,0-.061.173.173,0,0,0-.327-.07,3.1,3.1,0,0,1-.276-.145l1.126-1.742.5-1.084-.687.972-.934,1.868c-.093-.051-.182-.112-.266-.168a.192.192,0,0,0,.033-.1.173.173,0,0,0-.173-.173.177.177,0,0,0-.131.065c-.079-.065-.154-.135-.229-.206l1.541-1.4.757-.934h0l-.916.766-1.4,1.541c-.075-.075-.145-.149-.21-.229a.182.182,0,0,0,.061-.135.168.168,0,0,0-.168-.168.206.206,0,0,0-.1.033c-.061-.084-.112-.173-.168-.266l1.868-.934.967-.691-1.079.49L11.39,16.5c-.051-.093-.093-.182-.14-.271a.174.174,0,0,0-.061-.336.173.173,0,0,0-.07,0c-.037-.1-.07-.2-.1-.3l2.032-.434,1.112-.383-1.168.2L11.03,15.6c-.028-.1-.051-.2-.07-.3a.173.173,0,0,0,.145-.168.168.168,0,0,0-.168-.173h0v-.313l2.074.107,1.182-.112-1.182-.112-2.074.107v-.308h.028a.173.173,0,0,0,.173-.173.168.168,0,0,0-.159-.168,1.147,1.147,0,0,1,.07-.3L13,14.3l1.168.2-1.112-.411-2.023-.425c.028-.1.061-.2.093-.294a.149.149,0,0,0,.065,0,.173.173,0,0,0,.168-.173.178.178,0,0,0-.1-.159c.047-.093.093-.187.145-.276l1.742,1.13,1.079.5-.967-.691-1.868-.934.168-.266a.17.17,0,1,0,.21-.266,1.971,1.971,0,0,1,.21-.229l1.4,1.541.925.761-.757-.934L12,11.969a2.5,2.5,0,0,1,.234-.21.163.163,0,0,0,.131.065.178.178,0,0,0,.14-.271c.084-.061.168-.117.262-.173l.934,1.868.687.972-.5-1.079-1.126-1.747a2.971,2.971,0,0,1,.271-.14.168.168,0,0,0,.159.107.173.173,0,0,0,.173-.168.266.266,0,0,0,0-.07,2.219,2.219,0,0,1,.3-.093l.434,2.027.416,1.116-.22-1.163-.64-1.976c.1-.028.2-.051.3-.07a.178.178,0,0,0,.173.149.173.173,0,0,0,.163-.173h.308Z" transform="translate(8.439 0.75)" fill="#16007e"/>
      <path id="Path_12375" data-name="Path 12375" d="M15.794,15.19a.617.617,0,1,1-.438.182.621.621,0,0,1,.438-.182Z" transform="translate(7.267 -0.42)" fill="#fff"/>
      <path id="Path_12376" data-name="Path 12376" d="M15.844,15.377a.467.467,0,1,1-.467.467A.467.467,0,0,1,15.844,15.377Z" transform="translate(7.217 -0.467)" fill="#16007e"/>
    </g>
  </g>
</svg>
