<svg xmlns="http://www.w3.org/2000/svg" width="24" height="23.234" viewBox="0 0 24 23.234">
    <path data-name="Path 12909" d="M52.794 34.22v-.42a1.924 1.924 0 0 1 .572-.806q5.2-4.759 10.4-9.527a1.374 1.374 0 0 1 2.076-.022l8.92 7.8c.523.458 1.048.913 1.568 1.373a1.1 1.1 0 0 1 .37 1.322 2.308 2.308 0 0 1-1.21 1.183.591.591 0 0 1-.69-.123c-.112-.111-.239-.209-.4-.348v10.291a1.168 1.168 0 0 1-1.2 1.269c-1.46.012-2.92.008-4.381 0a1 1 0 0 1-.972-.575 1.82 1.82 0 0 1-.147-.721c-.011-2.319-.006-4.638-.006-6.957v-.273h-5.353v7.232a1.182 1.182 0 0 1-1.23 1.294c-1.359.008-2.717.006-4.076 0a1.13 1.13 0 0 1-1.119-.7 1.723 1.723 0 0 1-.111-.662q-.009-5.013 0-10.026V34.5c-.287.257-.522.472-.763.68a1.145 1.145 0 0 1-1.538.007 2.018 2.018 0 0 1-.71-.967z" transform="translate(-52.794 -22.98)" style="fill:#fff"/>
</svg>
