<svg id="Layer_1" height="512" viewBox="0 0 64 64" width="512" xmlns="http://www.w3.org/2000/svg"><g><g><path d="m43.3 60.7h-42.3c-.5 0-1-.4-1-1s.4-1 1-1h42.3c.5 0 1 .4 1 1s-.5 1-1 1z"/></g><g><g><path d="m43.3 60.7h-36.2c-.5 0-1-.4-1-1v-25.5c0-.5.4-1 1-1s1 .4 1 1v24.5h35.2c.5 0 1 .4 1 1s-.5 1-1 1z"/></g><g><path d="m4.5 36.2c-1.2 0-2.3-.4-3.2-1.3-.8-.8-1.3-2-1.3-3.2 0-1.1.5-2.2 1.2-3.1l22.9-22.9c3.2-3.2 8.3-3.2 11.5 0l9.8 9.8c.4.4.4 1 0 1.4s-1 .4-1.4 0l-9.8-9.8c-2.4-2.4-6.3-2.4-8.7 0l-22.8 22.8c-.4.5-.7 1.2-.7 1.8 0 .5.1 1.2.7 1.8 1 1 2.7 1 3.7 0l22.8-22.8c.4-.4 1-.4 1.4 0l8.3 8.3c.4.4.4 1 0 1.4s-1 .4-1.4 0l-7.6-7.6-22.1 22.1c-.9.9-2.1 1.3-3.3 1.3z"/></g><g><path d="m32.9 60.7h-14.2c-.5 0-1-.4-1-1v-18.2c0-1.6 1.3-3 3-3h10.3c1.6 0 2.9 1.4 2.9 3v18.2c0 .5-.5 1-1 1zm-13.2-2h12.2v-17.2c0-.6-.5-1-.9-1h-10.3c-.6 0-1 .5-1 1z"/></g><g><path d="m49.5 60.6c-1.3 0-2.5-.7-3.2-1.8-3.5-5.8-11.4-19.8-11.4-25.8 0-8 6.5-14.5 14.5-14.5s14.6 6.5 14.6 14.5c0 4.2-3.8 12.8-11.2 25.8-.8 1.1-2 1.8-3.3 1.8zm-.1-40.1c-6.9 0-12.5 5.6-12.5 12.5 0 5.6 8.5 20.4 11.1 24.8.3.5.9.9 1.6.9s1.2-.3 1.6-.9c8.9-15.7 10.8-22.2 10.8-24.8 0-6.9-5.6-12.5-12.6-12.5z"/></g><g><path d="m49.5 42.3c-5.1 0-9.3-4.2-9.3-9.3s4.2-9.3 9.3-9.3 9.3 4.2 9.3 9.3-4.2 9.3-9.3 9.3zm0-16.6c-4 0-7.3 3.3-7.3 7.3s3.3 7.3 7.3 7.3 7.3-3.3 7.3-7.3-3.3-7.3-7.3-7.3z"/></g><g><path d="m21.7 51.4c-.5 0-1-.4-1-1v-1.3c0-.5.4-1 1-1s1 .4 1 1v1.3c0 .5-.5 1-1 1z"/></g></g></g></svg>