<svg id="location" xmlns="http://www.w3.org/2000/svg" width="26" height="26" viewBox="0 0 26 26">
  <rect id="Rectangle_1177" data-name="Rectangle 1177" width="26" height="26" fill="none"/>
  <g id="location-2" data-name="location" transform="translate(1 1)">
    <path id="Path_12113" data-name="Path 12113" d="M.309,10.915H1.946a.308.308,0,0,0,.3-.246,9.932,9.932,0,0,1,8.424-8.434.307.307,0,0,0,.245-.3V.309A.309.309,0,0,1,11.227,0h1.557a.309.309,0,0,1,.309.309V1.934a.308.308,0,0,0,.246.3,9.931,9.931,0,0,1,8.429,8.42.309.309,0,0,0,.3.246h1.622a.308.308,0,0,1,.308.31v1.559a.308.308,0,0,1-.308.309H22.07a.308.308,0,0,0-.3.246,9.929,9.929,0,0,1-8.435,8.43.308.308,0,0,0-.246.3v1.634a.308.308,0,0,1-.308.308H11.238a.308.308,0,0,1-.309-.308V22.056a.307.307,0,0,0-.245-.3,9.935,9.935,0,0,1-8.437-8.435.307.307,0,0,0-.3-.246H.309A.309.309,0,0,1,0,12.764V11.226a.309.309,0,0,1,.309-.311Zm19.342,1.077a7.642,7.642,0,1,0-7.635,7.643A7.666,7.666,0,0,0,19.651,11.992Z" transform="translate(0)" fill="#343f53"/>
    <path id="Path_12114" data-name="Path 12114" d="M14.617,10.493a4.107,4.107,0,1,1-4.106,4.115,4.107,4.107,0,0,1,4.106-4.115Z" transform="translate(-2.61 -2.606)" fill="#343f53"/>
  </g>
</svg>
