<svg id="mastercard" xmlns="http://www.w3.org/2000/svg" width="18" height="18" viewBox="0 0 18 18">
  <rect id="Rectangle_1327" data-name="Rectangle 1327" width="18" height="18" fill="none"/>
  <path id="rect887" d="M6.323,1.19h5.355V9.937H6.323Z" transform="translate(0 3.437)" fill="#ff5f00"/>
  <path id="path889" d="M6.875,5.564A5.553,5.553,0,0,1,9,1.191,5.562,5.562,0,1,0,9,9.938,5.553,5.553,0,0,1,6.875,5.564Z" transform="translate(0 3.437)" fill="#eb001b"/>
  <path id="path891" d="M17.468,9.011V8.832h.077V8.795h-.184v.037h.073v.179Zm.357,0V8.795H17.77l-.065.154-.065-.155h-.056v.216h.04V8.847l.06.141h.042l.06-.141v.164Z" transform="translate(0 3.437)" fill="#f79e1b"/>
  <path id="path893" d="M18,5.564A5.562,5.562,0,0,1,9,9.937,5.562,5.562,0,0,0,9,1.19a5.562,5.562,0,0,1,9,4.373Z" transform="translate(0 3.437)" fill="#f79e1b"/>
</svg>
