<svg id="netbank" xmlns="http://www.w3.org/2000/svg" width="18" height="18" viewBox="0 0 18 18">
  <rect id="Rectangle_1304" data-name="Rectangle 1304" width="18" height="18" fill="none"/>
  <g id="dr_theme">
    <path id="Path_12276" data-name="Path 12276" d="M9,0a9,9,0,1,0,9,9A9.01,9.01,0,0,0,9,0ZM9,16.82A7.82,7.82,0,1,1,16.82,9,7.829,7.829,0,0,1,9,16.82Z"/>
  </g>
  <path id="Path_12277" data-name="Path 12277" d="M12.93,9.153a.974.974,0,0,0,.973-.974V7.285a.967.967,0,0,0-.462-.826L9.86,4.244a1.7,1.7,0,0,0-1.8,0L4.482,6.459a.967.967,0,0,0-.462.826v.894a.974.974,0,0,0,.973.974h.354v2.765H4.6a.59.59,0,1,0,0,1.18h8.71a.59.59,0,0,0,0-1.18h-.767V9.153ZM7.352,11.918H6.526V9.153h.826Zm2.007,0H8.533V9.153h.826Zm2.007,0h-.826V9.153h.826ZM5.2,7.973V7.4L8.682,5.247a.524.524,0,0,1,.554,0L12.719,7.4v.572Z"/>
</svg>
