<svg id="Group_2458" data-name="Group 2458" xmlns="http://www.w3.org/2000/svg" width="500" height="368.762" viewBox="0 0 500 368.762">
  <defs>
    <clipPath id="clip-path">
      <rect id="Rectangle_1251" data-name="Rectangle 1251" width="500" height="368.762" fill="none"/>
    </clipPath>
    <clipPath id="clip-path-5">
      <rect id="Rectangle_1183" data-name="Rectangle 1183" width="43.005" height="45.01" transform="translate(201.549 97.771)" fill="none"/>
    </clipPath>
    <clipPath id="clip-path-6">
      <rect id="Rectangle_1184" data-name="Rectangle 1184" width="15.681" height="11.494" transform="translate(219.204 97.771)" fill="none"/>
    </clipPath>
    <clipPath id="clip-path-7">
      <rect id="Rectangle_1187" data-name="Rectangle 1187" width="25.197" height="20.433" transform="translate(210.577 108.435)" fill="none"/>
    </clipPath>
    <clipPath id="clip-path-8">
      <rect id="Rectangle_1188" data-name="Rectangle 1188" width="8.913" height="6.08" transform="translate(216.587 122.32)" fill="none"/>
    </clipPath>
    <clipPath id="clip-path-9">
      <rect id="Rectangle_1189" data-name="Rectangle 1189" width="12.278" height="9.182" transform="translate(223.496 116.7)" fill="none"/>
    </clipPath>
    <clipPath id="clip-path-10">
      <rect id="Rectangle_1190" data-name="Rectangle 1190" width="29.831" height="11.119" transform="translate(237.804 144.395)" fill="none"/>
    </clipPath>
    <clipPath id="clip-path-11">
      <rect id="Rectangle_1191" data-name="Rectangle 1191" width="21.832" height="8.488" transform="translate(240.953 150.176)" fill="none"/>
    </clipPath>
    <clipPath id="clip-path-12">
      <rect id="Rectangle_1192" data-name="Rectangle 1192" width="6.658" height="6.658" transform="translate(263.188 149.295)" fill="none"/>
    </clipPath>
    <clipPath id="clip-path-13">
      <rect id="Rectangle_1193" data-name="Rectangle 1193" width="11.57" height="2.189" transform="translate(253.677 211.884)" fill="none"/>
    </clipPath>
    <clipPath id="clip-path-14">
      <rect id="Rectangle_1194" data-name="Rectangle 1194" width="8.822" height="8.822" transform="translate(252.12 201.492)" fill="none"/>
    </clipPath>
    <clipPath id="clip-path-15">
      <rect id="Rectangle_1195" data-name="Rectangle 1195" width="2.188" height="11.57" transform="translate(248.362 217.2)" fill="none"/>
    </clipPath>
    <clipPath id="clip-path-16">
      <rect id="Rectangle_1196" data-name="Rectangle 1196" width="8.822" height="8.822" transform="translate(252.12 215.643)" fill="none"/>
    </clipPath>
    <clipPath id="clip-path-17">
      <rect id="Rectangle_1197" data-name="Rectangle 1197" width="2.188" height="11.569" transform="translate(248.362 197.188)" fill="none"/>
    </clipPath>
    <clipPath id="clip-path-18">
      <rect id="Rectangle_1198" data-name="Rectangle 1198" width="8.822" height="8.822" transform="translate(237.97 201.492)" fill="none"/>
    </clipPath>
    <clipPath id="clip-path-19">
      <rect id="Rectangle_1199" data-name="Rectangle 1199" width="22.583" height="22.583" transform="translate(178.181 130.292)" fill="none"/>
    </clipPath>
    <clipPath id="clip-path-20">
      <rect id="Rectangle_1200" data-name="Rectangle 1200" width="15.069" height="15.069" transform="translate(181.938 134.049)" fill="none"/>
    </clipPath>
    <clipPath id="clip-path-21">
      <rect id="Rectangle_1201" data-name="Rectangle 1201" width="19.714" height="29.973" transform="translate(214.609 231.324)" fill="none"/>
    </clipPath>
    <clipPath id="clip-path-22">
      <rect id="Rectangle_1202" data-name="Rectangle 1202" width="31.27" height="22.493" transform="translate(277.847 126.161)" fill="none"/>
    </clipPath>
    <clipPath id="clip-path-24">
      <rect id="Rectangle_1204" data-name="Rectangle 1204" width="10.781" height="8.767" transform="translate(302.136 321.096)" fill="none"/>
    </clipPath>
    <clipPath id="clip-path-25">
      <rect id="Rectangle_1205" data-name="Rectangle 1205" width="21.493" height="38.653" transform="translate(366.958 202.349)" fill="none"/>
    </clipPath>
    <clipPath id="clip-path-26">
      <rect id="Rectangle_1206" data-name="Rectangle 1206" width="11.884" height="2.699" transform="translate(384.805 341.276)" fill="none"/>
    </clipPath>
    <clipPath id="clip-path-27">
      <rect id="Rectangle_1207" data-name="Rectangle 1207" width="20.539" height="26.545" transform="translate(365.815 137.081)" fill="none"/>
    </clipPath>
    <clipPath id="clip-path-28">
      <rect id="Rectangle_1208" data-name="Rectangle 1208" width="11.792" height="10.454" transform="translate(397.063 114.639)" fill="none"/>
    </clipPath>
    <clipPath id="clip-path-29">
      <rect id="Rectangle_1209" data-name="Rectangle 1209" width="84.697" height="161.512" transform="translate(364.943 188.318)" fill="none"/>
    </clipPath>
    <clipPath id="clip-path-30">
      <rect id="Rectangle_1210" data-name="Rectangle 1210" width="74.426" height="45.699" transform="translate(305.206 169.363)" fill="none"/>
    </clipPath>
    <clipPath id="clip-path-31">
      <rect id="Rectangle_1211" data-name="Rectangle 1211" width="74.426" height="23.349" transform="translate(305.206 191.713)" fill="none"/>
    </clipPath>
    <clipPath id="clip-path-32">
      <rect id="Rectangle_1212" data-name="Rectangle 1212" width="63.784" height="27.872" transform="translate(276.807 162.57)" fill="none"/>
    </clipPath>
    <clipPath id="clip-path-33">
      <rect id="Rectangle_1213" data-name="Rectangle 1213" width="37.527" height="57.696" transform="translate(276.807 162.57)" fill="none"/>
    </clipPath>
    <clipPath id="clip-path-34">
      <rect id="Rectangle_1216" data-name="Rectangle 1216" width="26.257" height="44.109" transform="translate(314.334 176.157)" fill="none"/>
    </clipPath>
    <clipPath id="clip-path-35">
      <rect id="Rectangle_1217" data-name="Rectangle 1217" width="24.52" height="40.008" transform="translate(283.31 172.415)" fill="none"/>
    </clipPath>
    <clipPath id="clip-path-36">
      <rect id="Rectangle_1218" data-name="Rectangle 1218" width="20.136" height="12.706" transform="translate(287.694 196.453)" fill="none"/>
    </clipPath>
    <clipPath id="clip-path-37">
      <rect id="Rectangle_1221" data-name="Rectangle 1221" width="4.383" height="8.679" transform="translate(303.447 202.157)" fill="none"/>
    </clipPath>
    <clipPath id="clip-path-39">
      <rect id="Rectangle_1223" data-name="Rectangle 1223" width="35.447" height="32.771" transform="translate(131.478 216.11)" fill="none"/>
    </clipPath>
    <clipPath id="clip-path-40">
      <rect id="Rectangle_1224" data-name="Rectangle 1224" width="26.63" height="29.993" transform="translate(112.871 220.626)" fill="none"/>
    </clipPath>
    <clipPath id="clip-path-41">
      <rect id="Rectangle_1225" data-name="Rectangle 1225" width="17.881" height="22.779" transform="translate(129.026 140.633)" fill="none"/>
    </clipPath>
    <clipPath id="clip-path-42">
      <rect id="Rectangle_1226" data-name="Rectangle 1226" width="15.25" height="11.019" transform="translate(133.242 153.977)" fill="none"/>
    </clipPath>
    <clipPath id="clip-path-43">
      <rect id="Rectangle_1227" data-name="Rectangle 1227" width="37.322" height="28.352" transform="translate(121.172 218.496)" fill="none"/>
    </clipPath>
    <clipPath id="clip-path-44">
      <rect id="Rectangle_1228" data-name="Rectangle 1228" width="6.815" height="5.623" transform="translate(110.933 131.288)" fill="none"/>
    </clipPath>
    <clipPath id="clip-path-45">
      <rect id="Rectangle_1229" data-name="Rectangle 1229" width="25.383" height="11.888" transform="translate(104.574 140.925)" fill="none"/>
    </clipPath>
    <clipPath id="clip-path-46">
      <rect id="Rectangle_1230" data-name="Rectangle 1230" width="109.423" height="162.316" transform="translate(46.645 186.932)" fill="none"/>
    </clipPath>
    <clipPath id="clip-path-47">
      <rect id="Rectangle_1231" data-name="Rectangle 1231" width="51.193" height="31.434" transform="translate(130.497 173.432)" fill="none"/>
    </clipPath>
    <clipPath id="clip-path-48">
      <rect id="Rectangle_1232" data-name="Rectangle 1232" width="51.193" height="16.061" transform="translate(130.497 188.805)" fill="none"/>
    </clipPath>
    <clipPath id="clip-path-49">
      <rect id="Rectangle_1233" data-name="Rectangle 1233" width="48.492" height="16.682" transform="translate(161.225 170.758)" fill="none"/>
    </clipPath>
    <clipPath id="clip-path-50">
      <rect id="Rectangle_1234" data-name="Rectangle 1234" width="22.46" height="34.532" transform="translate(187.257 170.758)" fill="none"/>
    </clipPath>
    <clipPath id="clip-path-51">
      <rect id="Rectangle_1237" data-name="Rectangle 1237" width="26.032" height="26.4" transform="translate(161.225 178.89)" fill="none"/>
    </clipPath>
    <clipPath id="clip-path-52">
      <rect id="Rectangle_1238" data-name="Rectangle 1238" width="16.823" height="9.682" transform="translate(187.921 167.185)" fill="none"/>
    </clipPath>
    <clipPath id="clip-path-53">
      <rect id="Rectangle_1239" data-name="Rectangle 1239" width="12.105" height="9.682" transform="translate(192.639 167.185)" fill="none"/>
    </clipPath>
    <clipPath id="clip-path-54">
      <rect id="Rectangle_1240" data-name="Rectangle 1240" width="34.826" height="9.104" transform="translate(190.009 182.097)" fill="none"/>
    </clipPath>
    <clipPath id="clip-path-55">
      <rect id="Rectangle_1243" data-name="Rectangle 1243" width="22.569" height="14.407" transform="translate(190.009 186.535)" fill="none"/>
    </clipPath>
    <clipPath id="clip-path-56">
      <rect id="Rectangle_1244" data-name="Rectangle 1244" width="12.257" height="18.845" transform="translate(212.578 182.097)" fill="none"/>
    </clipPath>
    <clipPath id="clip-path-57">
      <rect id="Rectangle_1245" data-name="Rectangle 1245" width="24.081" height="11.257" transform="translate(194.668 171.585)" fill="none"/>
    </clipPath>
    <clipPath id="clip-path-58">
      <rect id="Rectangle_1246" data-name="Rectangle 1246" width="7.05" height="5.911" transform="translate(211.7 179.142)" fill="none"/>
    </clipPath>
    <clipPath id="clip-path-59">
      <rect id="Rectangle_1247" data-name="Rectangle 1247" width="17.606" height="8.884" transform="translate(194.094 176.169)" fill="none"/>
    </clipPath>
    <clipPath id="clip-path-60">
      <rect id="Rectangle_1248" data-name="Rectangle 1248" width="13.789" height="21.183" transform="translate(92.739 148.29)" fill="none"/>
    </clipPath>
    <clipPath id="clip-path-61">
      <rect id="Rectangle_1249" data-name="Rectangle 1249" width="16.415" height="7.842" transform="translate(91.369 163.105)" fill="none"/>
    </clipPath>
  </defs>
  <g id="Group_2457" data-name="Group 2457" clip-path="url(#clip-path)">
    <rect id="Rectangle_1145" data-name="Rectangle 1145" width="33.122" height="0.25" transform="translate(416.779 343.542)" fill="#ebebeb"/>
    <rect id="Rectangle_1146" data-name="Rectangle 1146" width="8.693" height="0.25" transform="translate(322.527 346.256)" fill="#ebebeb"/>
    <rect id="Rectangle_1147" data-name="Rectangle 1147" width="19.192" height="0.25" transform="translate(396.586 334.256)" fill="#ebebeb"/>
    <rect id="Rectangle_1148" data-name="Rectangle 1148" width="43.193" height="0.25" transform="translate(52.459 335.936)" fill="#ebebeb"/>
    <rect id="Rectangle_1149" data-name="Rectangle 1149" width="6.333" height="0.25" transform="translate(104.556 335.936)" fill="#ebebeb"/>
    <rect id="Rectangle_1150" data-name="Rectangle 1150" width="93.676" height="0.25" transform="translate(131.471 340.158)" fill="#ebebeb"/>
    <g id="Group_2283" data-name="Group 2283">
      <g id="Group_2282" data-name="Group 2282" clip-path="url(#clip-path)">
        <path id="Path_11700" data-name="Path 11700" d="M238.4,282.847H45.3a5.714,5.714,0,0,1-5.708-5.708V5.708A5.715,5.715,0,0,1,45.3,0H238.4a5.715,5.715,0,0,1,5.707,5.708V277.139a5.714,5.714,0,0,1-5.707,5.708M45.3.25a5.464,5.464,0,0,0-5.458,5.458V277.139A5.464,5.464,0,0,0,45.3,282.6H238.4a5.464,5.464,0,0,0,5.457-5.458V5.708A5.464,5.464,0,0,0,238.4.25Z" fill="#ebebeb"/>
        <path id="Path_11701" data-name="Path 11701" d="M454.7,282.847H261.6a5.714,5.714,0,0,1-5.707-5.708V5.708A5.715,5.715,0,0,1,261.6,0H454.7a5.715,5.715,0,0,1,5.708,5.708V277.139a5.714,5.714,0,0,1-5.708,5.708M261.6.25a5.463,5.463,0,0,0-5.457,5.458V277.139A5.463,5.463,0,0,0,261.6,282.6H454.7a5.464,5.464,0,0,0,5.458-5.458V5.708A5.464,5.464,0,0,0,454.7.25Z" fill="#ebebeb"/>
        <rect id="Rectangle_1151" data-name="Rectangle 1151" width="500" height="0.25" transform="translate(0 327.446)" fill="#ebebeb"/>
        <path id="Path_11702" data-name="Path 11702" d="M73.668,218.931c2.217-2.471,5.413-5.163,8.776-5.7,10.313-1.642,9.161,19.512,9.061,24.924a.75.75,0,0,0,1.5,0c.117-6.381,1.251-26.393-9.438-26.522-4.178-.051-8.3,3.274-10.96,6.236-.643.717.415,1.781,1.061,1.061" fill="#e0e0e0"/>
        <path id="Path_11703" data-name="Path 11703" d="M105.743,205.926c-2.128.336-3.8,2.814-4.788,4.476-4.741,8-5.056,18.773-5.359,27.755-.032.966,1.468.964,1.5,0,.291-8.612.562-18.722,4.868-26.487.821-1.483,2.255-3.994,4.178-4.3.951-.15.547-1.6-.4-1.446" fill="#e0e0e0"/>
        <path id="Path_11704" data-name="Path 11704" d="M73.138,218.4s-9.289-15.354-16.106-1.514a23.6,23.6,0,0,0-2.133,6.95c2.852-1.252,8.933-3.553,9.017-.43.068,2.513-3.485,6.655-6.224,9.466a6.237,6.237,0,0,0-1.527,6.032,48.251,48.251,0,0,0,3.606,9.251s2.043-.775,5.043-2.2a6.582,6.582,0,0,0,3.63-4.726c.424-2.255,1.15-4.643,2.364-5.351s2.188.616,2.854,2.148a2.136,2.136,0,0,0,3.215.9,48.641,48.641,0,0,0,4.294-3.473,2.114,2.114,0,0,0,.246-2.853c-1.477-1.89-2.853-4.141-2.288-5.44.541-1.245,3.064-1.268,5.493-.968a3.658,3.658,0,0,0,4.081-3.206l0-.039c1.73-14.921-15.57-4.541-15.57-4.541" fill="#ebebeb"/>
        <path id="Path_11705" data-name="Path 11705" d="M109.269,202.63s9.289-15.354,16.106-1.514a23.6,23.6,0,0,1,2.133,6.95c-2.852-1.252-8.933-3.553-9.017-.43-.068,2.513,3.485,6.655,6.224,9.466a6.237,6.237,0,0,1,1.527,6.032,48.329,48.329,0,0,1-3.606,9.251s-2.043-.775-5.043-2.2a6.582,6.582,0,0,1-3.63-4.726c-.424-2.255-1.15-4.643-2.364-5.351s-2.188.616-2.854,2.148a2.136,2.136,0,0,1-3.215.9,48.641,48.641,0,0,1-4.294-3.473,2.114,2.114,0,0,1-.246-2.853c1.477-1.89,2.853-4.141,2.288-5.44-.541-1.245-3.064-1.268-5.493-.968A3.658,3.658,0,0,1,93.7,207.21l-.005-.039c-1.73-14.921,15.57-4.541,15.57-4.541" fill="#e6e6e6"/>
        <path id="Path_11706" data-name="Path 11706" d="M70.327,271.187c0-8.513,13.346-4.979,16.71-18.186,1.275-5.005-9.58-16.332-9.58-16.332H111.3S100.447,248,101.722,253c3.364,13.207,16.71,9.673,16.71,18.186,0,9.376-18.826,28.9-19.734,50.882-.081,1.965,3.541,6.036,3.541,6.036H86.52s3.623-4.071,3.541-6.036c-.907-21.979-19.734-41.506-19.734-50.882" fill="#f0f0f0"/>
        <path id="Path_11707" data-name="Path 11707" d="M101.209,232.512s9.636-7.268,11.352,2.882a14.3,14.3,0,0,1-.022,4.791c-1.686-1.448-5.359-4.307-6.083-2.4-.583,1.534.967,4.93,2.242,7.312a3.792,3.792,0,0,1-.24,4.082,29.8,29.8,0,0,1-4.443,4.85s-1.234-.962-2.983-2.553a4.387,4.387,0,0,1-1.478-3.775c.191-1.49.2-3.135-.477-3.859s-1.63-.139-2.413.648a1.63,1.63,0,0,1-2.393-.208,34.621,34.621,0,0,1-2.2-3.158,1.282,1.282,0,0,1,.439-1.818c1.416-.815,2.838-1.878,2.728-2.812-.1-.9-1.828-1.509-3.555-1.9a2.607,2.607,0,0,1-2.111-2.944l.005-.025c2-9.611,11.631.888,11.631.888" fill="#e0e0e0"/>
        <rect id="Rectangle_1152" data-name="Rectangle 1152" width="161.592" height="86.965" transform="translate(266.77 229.446)" fill="#e6e6e6"/>
        <rect id="Rectangle_1153" data-name="Rectangle 1153" width="10.156" height="7.673" transform="translate(269.569 320.022)" fill="#e6e6e6"/>
        <rect id="Rectangle_1154" data-name="Rectangle 1154" width="10.156" height="104.719" transform="translate(430.542 222.976)" fill="#e6e6e6"/>
        <path id="Path_11708" data-name="Path 11708" d="M427.955,222.976h-163.8V327.7h5.417v-5.868H425.246V327.7h5.417V222.976Zm-2.709,45.85H350.115V232.455h75.131ZM269.569,232.455H344.7v79.893h-75.13Zm80.547,41.788h75.131v38.1H350.116Z" fill="#f0f0f0"/>
        <rect id="Rectangle_1155" data-name="Rectangle 1155" width="70.053" height="75.981" transform="translate(274.646 236.367)" fill="#f5f5f5"/>
        <path id="Path_11709" data-name="Path 11709" d="M341.527,272.081a3.255,3.255,0,1,1-3.255-3.255,3.255,3.255,0,0,1,3.255,3.255" fill="#fafafa"/>
        <path id="Path_11710" data-name="Path 11710" d="M338.272,275.336a3.247,3.247,0,0,1-2.951-1.9,3.213,3.213,0,0,0-.3,1.354,3.255,3.255,0,0,0,6.51,0,3.213,3.213,0,0,0-.3-1.354,3.247,3.247,0,0,1-2.951,1.9" fill="#e0e0e0"/>
        <path id="Path_11711" data-name="Path 11711" d="M301.815,312.348h16.712l7.986-75.981H309.8Z" fill="#fafafa"/>
        <path id="Path_11712" data-name="Path 11712" d="M322.808,312.348h3.327l7.985-75.981h-3.326Z" fill="#fafafa"/>
        <rect id="Rectangle_1156" data-name="Rectangle 1156" width="6.62" height="32.499" transform="translate(360.428 236.292)" fill="#fafafa"/>
        <rect id="Rectangle_1157" data-name="Rectangle 1157" width="6.62" height="32.499" transform="translate(387.876 236.292)" fill="#f5f5f5"/>
        <rect id="Rectangle_1158" data-name="Rectangle 1158" width="6.62" height="30.215" transform="translate(367.048 238.576)" fill="#f5f5f5"/>
        <rect id="Rectangle_1159" data-name="Rectangle 1159" width="6.62" height="30.215" transform="translate(381.256 238.576)" fill="#fafafa"/>
        <rect id="Rectangle_1160" data-name="Rectangle 1160" width="4.278" height="32.499" transform="translate(376.978 236.292)" fill="#ebebeb"/>
        <rect id="Rectangle_1161" data-name="Rectangle 1161" width="3.31" height="30.215" transform="translate(373.668 238.576)" fill="#fafafa"/>
        <rect id="Rectangle_1162" data-name="Rectangle 1162" width="6.62" height="32.499" transform="translate(394.496 236.292)" fill="#ebebeb"/>
        <rect id="Rectangle_1163" data-name="Rectangle 1163" width="6.62" height="30.215" transform="translate(401.117 238.576)" fill="#e6e6e6"/>
        <rect id="Rectangle_1164" data-name="Rectangle 1164" width="6.62" height="30.215" transform="translate(415.325 238.576)" fill="#e6e6e6"/>
        <rect id="Rectangle_1165" data-name="Rectangle 1165" width="4.278" height="32.499" transform="translate(411.047 236.292)" fill="#fafafa"/>
        <rect id="Rectangle_1166" data-name="Rectangle 1166" width="3.31" height="30.215" transform="translate(407.737 238.576)" fill="#ebebeb"/>
        <rect id="Rectangle_1167" data-name="Rectangle 1167" width="3.31" height="31.729" transform="translate(421.945 237.062)" fill="#ebebeb"/>
        <rect id="Rectangle_1168" data-name="Rectangle 1168" width="6.62" height="32.499" transform="translate(418.635 279.849)" fill="#ebebeb"/>
        <rect id="Rectangle_1169" data-name="Rectangle 1169" width="6.62" height="32.499" transform="translate(391.186 279.849)" fill="#fafafa"/>
        <rect id="Rectangle_1170" data-name="Rectangle 1170" width="6.62" height="30.215" transform="translate(412.015 282.133)" fill="#fafafa"/>
        <rect id="Rectangle_1171" data-name="Rectangle 1171" width="6.62" height="30.215" transform="translate(397.806 282.133)" fill="#ebebeb"/>
        <rect id="Rectangle_1172" data-name="Rectangle 1172" width="4.278" height="32.499" transform="translate(404.427 279.849)" fill="#fafafa"/>
        <rect id="Rectangle_1173" data-name="Rectangle 1173" width="3.31" height="30.215" transform="translate(408.705 282.133)" fill="#f5f5f5"/>
        <rect id="Rectangle_1174" data-name="Rectangle 1174" width="6.62" height="32.499" transform="translate(384.566 279.849)" fill="#ebebeb"/>
        <rect id="Rectangle_1175" data-name="Rectangle 1175" width="6.62" height="30.215" transform="translate(377.946 282.133)" fill="#f5f5f5"/>
        <rect id="Rectangle_1176" data-name="Rectangle 1176" width="6.62" height="30.215" transform="translate(363.738 282.133)" fill="#e6e6e6"/>
        <rect id="Rectangle_1177" data-name="Rectangle 1177" width="4.278" height="32.499" transform="translate(370.358 279.849)" fill="#fafafa"/>
        <rect id="Rectangle_1178" data-name="Rectangle 1178" width="4.278" height="32.499" transform="translate(356.15 279.849)" fill="#fafafa"/>
        <rect id="Rectangle_1179" data-name="Rectangle 1179" width="3.31" height="30.215" transform="translate(374.636 282.133)" fill="#ebebeb"/>
        <rect id="Rectangle_1180" data-name="Rectangle 1180" width="3.31" height="31.729" transform="translate(360.428 280.619)" fill="#ebebeb"/>
        <path id="Path_11713" data-name="Path 11713" d="M165.714,51.358l16.264-26.276-10.4,29.1,30.685-3.667L173.022,60.523l22,21.7L168.966,65.61l-3.253,30.731L162.46,65.61,136.406,82.227l22-21.7L129.167,50.514l30.685,3.667-10.4-29.1Z" fill="#f0f0f0"/>
        <path id="Path_11714" data-name="Path 11714" d="M203.981,233.458l14.239-23-9.107,25.475,26.863-3.21-25.6,8.763,19.259,19-22.81-14.548-2.848,26.9-2.848-26.9-22.81,14.548,19.259-19-25.6-8.763,26.863,3.21-9.107-25.475Z" fill="#f0f0f0"/>
        <path id="Path_11715" data-name="Path 11715" d="M302.469,66.7,313.91,48.211l-7.318,20.47,21.585-2.58-20.566,7.041L323.086,88.41,304.757,76.721l-2.288,21.617-2.288-21.617L281.853,88.41l15.474-15.268L276.761,66.1l21.585,2.58-7.318-20.47Z" fill="#f0f0f0"/>
      </g>
    </g>
    <g id="Group_2285" data-name="Group 2285">
      <g id="Group_2284" data-name="Group 2284" clip-path="url(#clip-path)">
        <path id="Path_11716" data-name="Path 11716" d="M439.067,357.439c0,6.254-86.807,11.323-193.889,11.323S51.289,363.693,51.289,357.439s86.807-11.323,193.889-11.323,193.889,5.07,193.889,11.323" fill="#f5f5f5"/>
      </g>
    </g>
    <g id="Group_2341" data-name="Group 2341">
      <g id="Group_2340" data-name="Group 2340" clip-path="url(#clip-path)">
        <path id="Path_11717" data-name="Path 11717" d="M243.948,132.64l-27.677,10.085a.92.92,0,0,1-1.18-.55L201.6,105.165a.921.921,0,0,1,.55-1.181L219.2,97.772l15.716,7.4,9.579,26.287a.921.921,0,0,1-.55,1.181" fill="#407bff"/>
        <g id="Group_2288" data-name="Group 2288" opacity="0.5">
          <g id="Group_2287" data-name="Group 2287">
            <g id="Group_2286" data-name="Group 2286" clip-path="url(#clip-path-5)">
              <path id="Path_11718" data-name="Path 11718" d="M243.948,132.64l-27.677,10.085a.92.92,0,0,1-1.18-.55L201.6,105.165a.921.921,0,0,1,.55-1.181L219.2,97.772l15.716,7.4,9.579,26.287a.921.921,0,0,1-.55,1.181" fill="#fff"/>
            </g>
          </g>
        </g>
        <g id="Group_2291" data-name="Group 2291" opacity="0.1">
          <g id="Group_2290" data-name="Group 2290">
            <g id="Group_2289" data-name="Group 2289" clip-path="url(#clip-path-6)">
              <path id="Path_11719" data-name="Path 11719" d="M234.885,105.077l-11.493,4.188L219.2,97.772Z"/>
            </g>
          </g>
        </g>
        <rect id="Rectangle_1185" data-name="Rectangle 1185" width="21.786" height="13.808" transform="matrix(0.94, -0.342, 0.342, 0.94, 210.576, 115.894)" fill="#407bff"/>
        <g id="Group_2294" data-name="Group 2294" opacity="0.7">
          <g id="Group_2293" data-name="Group 2293">
            <g id="Group_2292" data-name="Group 2292" clip-path="url(#clip-path-7)">
              <rect id="Rectangle_1186" data-name="Rectangle 1186" width="21.786" height="13.808" transform="matrix(0.94, -0.342, 0.342, 0.94, 210.576, 115.894)" fill="#fff"/>
            </g>
          </g>
        </g>
        <path id="Path_11720" data-name="Path 11720" d="M219.42,122.32l-2.832,6.08,8.912-3.248Z" fill="#407bff"/>
        <g id="Group_2297" data-name="Group 2297" opacity="0.2">
          <g id="Group_2296" data-name="Group 2296">
            <g id="Group_2295" data-name="Group 2295" clip-path="url(#clip-path-8)">
              <path id="Path_11721" data-name="Path 11721" d="M219.42,122.32l-2.832,6.08,8.912-3.248Z" fill="#fff"/>
            </g>
          </g>
        </g>
        <path id="Path_11722" data-name="Path 11722" d="M223.5,125.882l12.278-4.474-.431-1.182-7.569-3.526Z" fill="#407bff"/>
        <g id="Group_2300" data-name="Group 2300" opacity="0.4">
          <g id="Group_2299" data-name="Group 2299">
            <g id="Group_2298" data-name="Group 2298" clip-path="url(#clip-path-9)">
              <path id="Path_11723" data-name="Path 11723" d="M223.5,125.882l12.278-4.474-.431-1.182-7.569-3.526Z" fill="#fff"/>
            </g>
          </g>
        </g>
        <path id="Path_11724" data-name="Path 11724" d="M222.637,116.725a2.328,2.328,0,1,1-2.985-1.39,2.329,2.329,0,0,1,2.985,1.39" fill="#fff"/>
        <path id="Path_11725" data-name="Path 11725" d="M265.626,155.514a19.191,19.191,0,0,0-26.517-5.636l-1.3-2.01a21.59,21.59,0,0,1,29.831,6.341Z" fill="#407bff"/>
        <path id="Path_11726" data-name="Path 11726" d="M242.258,154.727l-1.3-2.008a15.8,15.8,0,0,1,21.832,4.64l-2.009,1.3a13.4,13.4,0,0,0-18.518-3.936" fill="#407bff"/>
        <g id="Group_2303" data-name="Group 2303" opacity="0.6">
          <g id="Group_2302" data-name="Group 2302">
            <g id="Group_2301" data-name="Group 2301" clip-path="url(#clip-path-10)">
              <path id="Path_11727" data-name="Path 11727" d="M265.626,155.514a19.191,19.191,0,0,0-26.517-5.636l-1.3-2.01a21.59,21.59,0,0,1,29.831,6.341Z" fill="#fff"/>
            </g>
          </g>
        </g>
        <g id="Group_2306" data-name="Group 2306" opacity="0.6">
          <g id="Group_2305" data-name="Group 2305">
            <g id="Group_2304" data-name="Group 2304" clip-path="url(#clip-path-11)">
              <path id="Path_11728" data-name="Path 11728" d="M242.258,154.727l-1.3-2.008a15.8,15.8,0,0,1,21.832,4.64l-2.009,1.3a13.4,13.4,0,0,0-18.518-3.936" fill="#fff"/>
            </g>
          </g>
        </g>
        <path id="Path_11729" data-name="Path 11729" d="M256.35,161.537a8.12,8.12,0,0,0-11.218-2.385l-1.305-2.009a10.517,10.517,0,0,1,14.532,3.089Z" fill="#407bff"/>
        <path id="Path_11730" data-name="Path 11730" d="M253.891,163.134a5.184,5.184,0,0,0-7.162-1.522l-.5.326,3.146,4.845,4.845-3.147Z" fill="#407bff"/>
        <path id="Path_11731" data-name="Path 11731" d="M271.4,153.661a4.988,4.988,0,1,1-3.843-5.916,4.99,4.99,0,0,1,3.843,5.916" fill="#407bff"/>
        <g id="Group_2309" data-name="Group 2309" opacity="0.8">
          <g id="Group_2308" data-name="Group 2308">
            <g id="Group_2307" data-name="Group 2307" clip-path="url(#clip-path-12)">
              <path id="Path_11732" data-name="Path 11732" d="M269.846,151.219l-.692-1.066-2.45,1.591-1.591-2.449-1.066.692,1.591,2.449-2.45,1.592.692,1.065,2.45-1.591,1.591,2.45,1.066-.692-1.591-2.45Z" fill="#fff"/>
            </g>
          </g>
        </g>
        <path id="Path_11733" data-name="Path 11733" d="M249.456,208.757h0a1.094,1.094,0,0,1-1.094-1.094v-9.38a1.094,1.094,0,1,1,2.188,0v9.38a1.094,1.094,0,0,1-1.094,1.094" fill="#407bff"/>
        <path id="Path_11734" data-name="Path 11734" d="M249.456,228.77h0a1.094,1.094,0,0,1-1.094-1.094v-9.381a1.094,1.094,0,1,1,2.188,0v9.381a1.094,1.094,0,0,1-1.094,1.094" fill="#407bff"/>
        <path id="Path_11735" data-name="Path 11735" d="M264.152,214.073h-9.381a1.094,1.094,0,0,1,0-2.189h9.381a1.094,1.094,0,0,1,0,2.189" fill="#407bff"/>
        <path id="Path_11736" data-name="Path 11736" d="M244.14,214.073h-9.381a1.094,1.094,0,0,1,0-2.189h9.381a1.094,1.094,0,0,1,0,2.189" fill="#407bff"/>
        <path id="Path_11737" data-name="Path 11737" d="M252.441,209.994h0a1.1,1.1,0,0,1,0-1.548l6.633-6.633a1.095,1.095,0,0,1,1.548,1.548l-6.633,6.633a1.1,1.1,0,0,1-1.548,0" fill="#407bff"/>
        <g id="Group_2312" data-name="Group 2312" opacity="0.5">
          <g id="Group_2311" data-name="Group 2311">
            <g id="Group_2310" data-name="Group 2310" clip-path="url(#clip-path-13)">
              <path id="Path_11738" data-name="Path 11738" d="M264.152,214.073h-9.381a1.094,1.094,0,0,1,0-2.189h9.381a1.094,1.094,0,0,1,0,2.189" fill="#fff"/>
            </g>
          </g>
        </g>
        <g id="Group_2315" data-name="Group 2315" opacity="0.5">
          <g id="Group_2314" data-name="Group 2314">
            <g id="Group_2313" data-name="Group 2313" clip-path="url(#clip-path-14)">
              <path id="Path_11739" data-name="Path 11739" d="M252.441,209.994h0a1.1,1.1,0,0,1,0-1.548l6.633-6.633a1.095,1.095,0,0,1,1.548,1.548l-6.633,6.633a1.1,1.1,0,0,1-1.548,0" fill="#fff"/>
            </g>
          </g>
        </g>
        <path id="Path_11740" data-name="Path 11740" d="M238.29,224.145h0a1.094,1.094,0,0,1,0-1.548l6.633-6.633a1.095,1.095,0,1,1,1.548,1.548l-6.633,6.633a1.1,1.1,0,0,1-1.548,0" fill="#407bff"/>
        <path id="Path_11741" data-name="Path 11741" d="M259.074,224.145l-6.633-6.633a1.095,1.095,0,0,1,1.548-1.548l6.633,6.633a1.095,1.095,0,0,1-1.548,1.548" fill="#407bff"/>
        <g id="Group_2318" data-name="Group 2318" opacity="0.3">
          <g id="Group_2317" data-name="Group 2317">
            <g id="Group_2316" data-name="Group 2316" clip-path="url(#clip-path-15)">
              <path id="Path_11742" data-name="Path 11742" d="M249.456,228.77h0a1.094,1.094,0,0,1-1.094-1.094v-9.381a1.094,1.094,0,1,1,2.188,0v9.381a1.094,1.094,0,0,1-1.094,1.094" fill="#fff"/>
            </g>
          </g>
        </g>
        <g id="Group_2321" data-name="Group 2321" opacity="0.3">
          <g id="Group_2320" data-name="Group 2320">
            <g id="Group_2319" data-name="Group 2319" clip-path="url(#clip-path-16)">
              <path id="Path_11743" data-name="Path 11743" d="M259.074,224.145l-6.633-6.633a1.095,1.095,0,0,1,1.548-1.548l6.633,6.633a1.095,1.095,0,0,1-1.548,1.548" fill="#fff"/>
            </g>
          </g>
        </g>
        <path id="Path_11744" data-name="Path 11744" d="M244.923,209.994l-6.633-6.633a1.095,1.095,0,0,1,1.548-1.548l6.633,6.633a1.095,1.095,0,1,1-1.548,1.548" fill="#407bff"/>
        <g id="Group_2324" data-name="Group 2324" opacity="0.7">
          <g id="Group_2323" data-name="Group 2323">
            <g id="Group_2322" data-name="Group 2322" clip-path="url(#clip-path-17)">
              <path id="Path_11745" data-name="Path 11745" d="M249.456,208.757h0a1.094,1.094,0,0,1-1.094-1.094v-9.38a1.094,1.094,0,1,1,2.188,0v9.38a1.094,1.094,0,0,1-1.094,1.094" fill="#fff"/>
            </g>
          </g>
        </g>
        <g id="Group_2327" data-name="Group 2327" opacity="0.7">
          <g id="Group_2326" data-name="Group 2326">
            <g id="Group_2325" data-name="Group 2325" clip-path="url(#clip-path-18)">
              <path id="Path_11746" data-name="Path 11746" d="M244.923,209.994l-6.633-6.633a1.095,1.095,0,0,1,1.548-1.548l6.633,6.633a1.095,1.095,0,1,1-1.548,1.548" fill="#fff"/>
            </g>
          </g>
        </g>
        <path id="Path_11747" data-name="Path 11747" d="M200.515,143.931a11.289,11.289,0,1,1-8.695-13.39,11.288,11.288,0,0,1,8.695,13.39" fill="#407bff"/>
        <g id="Group_2330" data-name="Group 2330" opacity="0.6">
          <g id="Group_2329" data-name="Group 2329">
            <g id="Group_2328" data-name="Group 2328" clip-path="url(#clip-path-19)">
              <path id="Path_11748" data-name="Path 11748" d="M200.515,143.931a11.289,11.289,0,1,1-8.695-13.39,11.288,11.288,0,0,1,8.695,13.39" fill="#fff"/>
            </g>
          </g>
        </g>
        <g id="Group_2333" data-name="Group 2333" opacity="0.8">
          <g id="Group_2332" data-name="Group 2332">
            <g id="Group_2331" data-name="Group 2331" clip-path="url(#clip-path-20)">
              <path id="Path_11749" data-name="Path 11749" d="M197.007,138.4l-1.566-2.412-5.546,3.6-3.6-5.545-2.412,1.566,3.6,5.546-5.545,3.6,1.566,2.412,5.546-3.6,3.6,5.546,2.412-1.566-3.6-5.546Z" fill="#fff"/>
            </g>
          </g>
        </g>
        <path id="Path_11750" data-name="Path 11750" d="M222.451,231.543a9.9,9.9,0,0,0-7.624,11.739c1.137,5.347,13.948,18.015,13.948,18.015s6.551-16.784,5.415-22.131a9.9,9.9,0,0,0-11.739-7.623m2.784,13.1a3.493,3.493,0,1,1,2.691-4.143,3.493,3.493,0,0,1-2.691,4.143" fill="#407bff"/>
        <g id="Group_2336" data-name="Group 2336" opacity="0.5">
          <g id="Group_2335" data-name="Group 2335">
            <g id="Group_2334" data-name="Group 2334" clip-path="url(#clip-path-21)">
              <path id="Path_11751" data-name="Path 11751" d="M222.451,231.543a9.9,9.9,0,0,0-7.624,11.739c1.137,5.347,13.948,18.015,13.948,18.015s6.551-16.784,5.415-22.131a9.9,9.9,0,0,0-11.739-7.623m2.784,13.1a3.493,3.493,0,1,1,2.691-4.143,3.493,3.493,0,0,1-2.691,4.143" fill="#fff"/>
            </g>
          </g>
        </g>
        <path id="Path_11752" data-name="Path 11752" d="M305.58,147.213c-5.878,3.305-22.133.557-26.6-4.5-2.478-2.8-.555-12.592,2.495-14.76,5.5-3.907,22.691-1,26.6,4.5,2.168,3.05.767,12.926-2.5,14.76" fill="#407bff"/>
        <g id="Group_2339" data-name="Group 2339" opacity="0.4">
          <g id="Group_2338" data-name="Group 2338">
            <g id="Group_2337" data-name="Group 2337" clip-path="url(#clip-path-22)">
              <path id="Path_11753" data-name="Path 11753" d="M305.58,147.213c-5.878,3.305-22.133.557-26.6-4.5-2.478-2.8-.555-12.592,2.495-14.76,5.5-3.907,22.691-1,26.6,4.5,2.168,3.05.767,12.926-2.5,14.76" fill="#fff"/>
            </g>
          </g>
        </g>
        <path id="Path_11754" data-name="Path 11754" d="M300.046,138.485l-11.666,4.129,2.006-11.863Z" fill="#fff"/>
      </g>
    </g>
    <path id="Path_11755" data-name="Path 11755" d="M314.591,324.819,304.247,339.2l-6.742-3.906,7.211-16.1Z" fill="#b55b52"/>
    <g id="Group_2385" data-name="Group 2385">
      <g id="Group_2384" data-name="Group 2384" clip-path="url(#clip-path)">
        <path id="Path_11756" data-name="Path 11756" d="M300.257,329.612l6.716,6.135a.7.7,0,0,1,.136.873l-3.673,6.393a1.19,1.19,0,0,1-1.846.263c-2.308-2.182-3.322-3.36-6.275-6.058-1.817-1.66-8.372-7.3-10.881-9.593-2.454-2.242-.571-5.072.662-4.359,5.526,3.2,11.169,5.806,13.855,5.827a1.964,1.964,0,0,1,1.306.519" fill="#263238"/>
        <path id="Path_11757" data-name="Path 11757" d="M296.417,327.5c.142,1.067,1.723,2.085,2.652,2.6a.227.227,0,0,0,.329-.26c-.153-.551-.967-3.307-1.936-3.571a.647.647,0,0,0-.643.187,1.832,1.832,0,0,0-.129.139,1.146,1.146,0,0,0-.273.908m.452-.06a.751.751,0,0,1,.266-.658c.1-.092.158-.09.208-.077.457.125,1.066,1.515,1.451,2.706-1.143-.7-1.851-1.422-1.925-1.971" fill="#407bff"/>
        <path id="Path_11758" data-name="Path 11758" d="M298.963,329.971a.231.231,0,0,0,.178.151.221.221,0,0,0,.217-.085c.062-.079,1.5-1.947,1.326-3.164a1.086,1.086,0,0,0-.452-.757.66.66,0,0,0-.832-.04.829.829,0,0,0-.138.134c-.608.737-.592,2.912-.3,3.761m.71-3.53c.036-.027.112-.084.295.046a.64.64,0,0,1,.265.452,4.458,4.458,0,0,1-.948,2.419c-.158-1.015-.012-2.621.388-2.917" fill="#407bff"/>
        <path id="Path_11759" data-name="Path 11759" d="M303.345,322.048c8.119-18.863,15.844-42.411,22.71-59.36,9.276-22.9,41.967-66.086,41.967-66.086l2.374-2.873,28.121-1.567v10.362s-49.772,57.967-55.358,73.5c-6.109,16.983-19.111,36.48-30.868,52.488Z" fill="#407bff"/>
        <path id="Path_11760" data-name="Path 11760" d="M312.917,328.119l-1.687,1.744s-9.169-6.411-9.1-6.519,1.189-2.248,1.189-2.248Z" fill="#407bff"/>
        <g id="Group_2344" data-name="Group 2344" opacity="0.4">
          <g id="Group_2343" data-name="Group 2343">
            <g id="Group_2342" data-name="Group 2342" clip-path="url(#clip-path-24)">
              <path id="Path_11761" data-name="Path 11761" d="M312.917,328.119l-1.687,1.744s-9.169-6.411-9.1-6.519,1.189-2.248,1.189-2.248Z" fill="#fff"/>
            </g>
          </g>
        </g>
        <g id="Group_2347" data-name="Group 2347" opacity="0.2">
          <g id="Group_2346" data-name="Group 2346">
            <g id="Group_2345" data-name="Group 2345" clip-path="url(#clip-path-25)">
              <path id="Path_11762" data-name="Path 11762" d="M366.958,241c5.292-24.873,14.832-38.653,14.832-38.653l5.048,3.658,1.613,8.454c-6.015,7.22-13.932,16.871-21.493,26.541"/>
            </g>
          </g>
        </g>
        <path id="Path_11763" data-name="Path 11763" d="M396.254,334.9l-1.741,17.631H386.72l-1.828-17.544Z" fill="#b55b52"/>
        <path id="Path_11764" data-name="Path 11764" d="M385.9,350.348l9.1-.18a.706.706,0,0,1,.7.539l1.742,7.164a1.191,1.191,0,0,1-1.157,1.463c-3.176.008-4.722-.147-8.722-.068-2.46.049-11.1.476-14.5.543-3.323.066-3.908-3.283-2.523-3.615,6.21-1.488,12.1-3.488,14.057-5.322a1.964,1.964,0,0,1,1.3-.524" fill="#263238"/>
        <path id="Path_11765" data-name="Path 11765" d="M381.664,351.462c.838.675,2.685.325,3.711.055a.227.227,0,0,0,.059-.415c-.49-.294-2.979-1.731-3.863-1.255a.646.646,0,0,0-.337.579,1.7,1.7,0,0,0,0,.19,1.149,1.149,0,0,0,.428.846m.286-.355a.753.753,0,0,1-.261-.661c.006-.131.053-.173.1-.2.417-.224,1.816.364,2.916.961a3.771,3.771,0,0,1-2.753-.1" fill="#407bff"/>
        <path id="Path_11766" data-name="Path 11766" d="M385.212,351.5a.227.227,0,0,0,.232-.014.219.219,0,0,0,.1-.211c-.01-.1-.251-2.446-1.219-3.207a1.083,1.083,0,0,0-.849-.236.657.657,0,0,0-.63.544.751.751,0,0,0-.008.191c.068.954,1.577,2.519,2.375,2.933m-1.918-3.048c.008-.045.023-.138.246-.17a.642.642,0,0,1,.5.145,4.466,4.466,0,0,1,.98,2.406c-.815-.626-1.815-1.891-1.729-2.381" fill="#407bff"/>
        <path id="Path_11767" data-name="Path 11767" d="M398.463,278.138c2.293,14.471-.014,43.172-2.352,63.873l-10.7-.265c-2.57-21.5-6.577-51.934-8.363-67.059-2.9-24.536,3.57-81.512,3.57-81.512l29.228-.612A68.589,68.589,0,0,1,408.4,204.88c-4.317,21.933-11.869,61.1-9.942,73.258" fill="#407bff"/>
        <path id="Path_11768" data-name="Path 11768" d="M396.689,341.58l-.392,2.394s-11.188-.043-11.188-.174-.3-2.525-.3-2.525Z" fill="#407bff"/>
        <g id="Group_2350" data-name="Group 2350" opacity="0.4">
          <g id="Group_2349" data-name="Group 2349">
            <g id="Group_2348" data-name="Group 2348" clip-path="url(#clip-path-26)">
              <path id="Path_11769" data-name="Path 11769" d="M396.689,341.58l-.392,2.394s-11.188-.043-11.188-.174-.3-2.525-.3-2.525Z" fill="#fff"/>
            </g>
          </g>
        </g>
        <path id="Path_11770" data-name="Path 11770" d="M370.979,137.466l-6.565,13.8c-1.116,2.277-2.216,4.565-3.369,6.774-.582,1.1-1.159,2.2-1.747,3.252-.292.541-.59,1.053-.891,1.545l-.433.723c-.089.1-.1.188-.224.322a11.142,11.142,0,0,1-2,1.794,28.161,28.161,0,0,1-2.866,1.8,72.336,72.336,0,0,1-6.569,3.213c-4.57,1.973-9.383,3.814-14.145,5.507l1.13,4.975a103.12,103.12,0,0,0,15.626-3.257,65.744,65.744,0,0,0,7.749-2.767,36.946,36.946,0,0,0,3.907-1.983,18.529,18.529,0,0,0,4.007-3.085,13.929,13.929,0,0,0,1-1.182l.64-.893c.42-.582.818-1.161,1.187-1.732.778-1.149,1.474-2.3,2.168-3.451,1.385-2.3,2.669-4.608,3.909-6.938,2.49-4.658,4.752-9.34,6.88-14.184Z" fill="#b55b52"/>
        <path id="Path_11771" data-name="Path 11771" d="M386.261,136.753c1.36,6.835-15.379,26.874-15.379,26.874l-11.9-6.734a87.675,87.675,0,0,1,9.371-18.469c6.162-8.847,16.4-9.27,17.913-1.671" fill="#263238"/>
        <g id="Group_2353" data-name="Group 2353" opacity="0.2">
          <g id="Group_2352" data-name="Group 2352">
            <g id="Group_2351" data-name="Group 2351" clip-path="url(#clip-path-27)">
              <path id="Path_11772" data-name="Path 11772" d="M386.354,137.611c-2.865-1.392-8.543-.192-12.986,5.44-4.388,5.576-6.852,15.034-7.553,17.711l5.069,2.864s15.6-18.551,15.47-26.015"/>
            </g>
          </g>
        </g>
        <path id="Path_11773" data-name="Path 11773" d="M332.784,176.061l-4.749-.424a4.316,4.316,0,1,0,1.72,8.067,21.335,21.335,0,0,0,4.077-2.847Z" fill="#b55b52"/>
        <path id="Path_11774" data-name="Path 11774" d="M377.744,131.607s-9.479,20.919-7.834,63.592c12.753-.072,33.378-2.129,39.584-2.164,1.277-5.919,1.3-29.589,11-57.537a4.02,4.02,0,0,0-3.23-5.318c-2.544-.353-5.788-.72-9-.851a162.064,162.064,0,0,0-17.992.1,90.431,90.431,0,0,0-12.528,2.177" fill="#263238"/>
        <path id="Path_11775" data-name="Path 11775" d="M413.167,110.273c-3.085,5.451-7.77,15.433-4.921,19.054-6.446,2.235-8.379,7.755-15.879,6.722-3.349-.461-3.875-3.689-2.572-6.47,7.1-1.47,8.612-6.169,8.961-10.4Z" fill="#b55b52"/>
        <g id="Group_2356" data-name="Group 2356" opacity="0.2">
          <g id="Group_2355" data-name="Group 2355">
            <g id="Group_2354" data-name="Group 2354" clip-path="url(#clip-path-28)">
              <path id="Path_11776" data-name="Path 11776" d="M397.063,125.006a13.017,13.017,0,0,0,1.693-5.825l7.348-4.542,2.751,4.644s-4.088,6.643-11.792,5.723"/>
            </g>
          </g>
        </g>
        <path id="Path_11777" data-name="Path 11777" d="M398.135,91.142c-6.173,1.374-6.251,14.816-3.922,16.578,4.355,3.3,11.578-18.282,3.922-16.578" fill="#263238"/>
        <path id="Path_11778" data-name="Path 11778" d="M414.647,105.514c-1.848,7.466-2.551,11.93-7.075,15.106-6.806,4.778-15.493-.39-15.912-8.257-.377-7.082,2.709-18.1,10.651-19.751a10.49,10.49,0,0,1,12.336,12.9" fill="#b55b52"/>
        <path id="Path_11779" data-name="Path 11779" d="M421.854,100.7c-.624,4.475-7.808,15.384-10.926,14.521s-1.787-10.923.95-16.859c-2.775-1.408-25.538-2.707-17.766-8.592,0,0-4.974-8.865,4.163-4.49,0,0,2.878-11.375,7.47-1.125,0,0,6-8,8,2.375,0,0,5.945-3.07,5.625,4.513,0,0,7.333.112,2.25,5.112,0,0,6.5,3.01.237,4.545" fill="#263238"/>
        <path id="Path_11780" data-name="Path 11780" d="M416.531,114.463a7.317,7.317,0,0,1-5.064,2.354c-2.562.089-3.242-2.347-2.027-4.451,1.093-1.893,3.744-4.221,6.074-3.311,2.295.9,2.606,3.648,1.017,5.408" fill="#b55b52"/>
        <path id="Path_11781" data-name="Path 11781" d="M401.618,106.119c-.113.615-.53,1.053-.932.98s-.636-.632-.523-1.247.53-1.053.932-.98.636.632.523,1.247" fill="#263238"/>
        <path id="Path_11782" data-name="Path 11782" d="M394.669,104.844c-.113.615-.53,1.053-.932.98s-.636-.632-.523-1.247.53-1.053.932-.98.636.632.523,1.247" fill="#263238"/>
        <path id="Path_11783" data-name="Path 11783" d="M397.891,105.793a22.393,22.393,0,0,1-3.9,4.72,3.6,3.6,0,0,0,2.836,1.09Z" fill="#a02724"/>
        <path id="Path_11784" data-name="Path 11784" d="M397.928,114.455a.184.184,0,0,1,.088-.356,4.947,4.947,0,0,0,4.32-1.175.184.184,0,1,1,.267.252,5.24,5.24,0,0,1-4.653,1.284l-.022,0" fill="#263238"/>
        <path id="Path_11785" data-name="Path 11785" d="M404.912,103.894a.369.369,0,0,1-.219-.185,2.91,2.91,0,0,0-2.093-1.631.367.367,0,0,1,.083-.729,3.642,3.642,0,0,1,2.666,2.029.367.367,0,0,1-.437.516" fill="#263238"/>
        <path id="Path_11786" data-name="Path 11786" d="M393.328,101.888a.368.368,0,0,1-.187-.568,3.645,3.645,0,0,1,2.968-1.557.367.367,0,0,1-.04.733,2.915,2.915,0,0,0-2.336,1.259.367.367,0,0,1-.4.133" fill="#263238"/>
        <path id="Path_11787" data-name="Path 11787" d="M400.859,93.9s-5.433.584-4.558,2.792,9.8-.917,9.8-.917Z" fill="#263238"/>
        <path id="Path_11788" data-name="Path 11788" d="M406.732,95.027s-5.433.584-4.558,2.792,9.8-.917,9.8-.917Z" fill="#263238"/>
        <path id="Path_11789" data-name="Path 11789" d="M448.535,349.83c-.082-.019-3.593-1.215-41.85-1.215a17.679,17.679,0,0,1-13.78-6.308c-17.338-19.74-2.614-81.79,2.207-118.865,1.267-9.74,2.267-17.433,2.267-20.765a7.26,7.26,0,0,0-2.719-6.043c-6.5-5.218-22.875-3.049-28.636-1.775l-1.081-4.881c.941-.209,23.167-5.015,32.847,2.757a12.129,12.129,0,0,1,4.589,9.942c0,3.656-.968,11.1-2.309,21.411-4.4,33.857-19.253,96.88-3.409,114.919a12.711,12.711,0,0,0,10.024,4.608c39.185,0,42.57,1.251,42.955,1.338Z" fill="#407bff"/>
        <g id="Group_2359" data-name="Group 2359" opacity="0.7">
          <g id="Group_2358" data-name="Group 2358">
            <g id="Group_2357" data-name="Group 2357" clip-path="url(#clip-path-29)">
              <path id="Path_11790" data-name="Path 11790" d="M448.535,349.83c-.082-.019-3.593-1.215-41.85-1.215a17.679,17.679,0,0,1-13.78-6.308c-17.338-19.74-2.614-81.79,2.207-118.865,1.267-9.74,2.267-17.433,2.267-20.765a7.26,7.26,0,0,0-2.719-6.043c-6.5-5.218-22.875-3.049-28.636-1.775l-1.081-4.881c.941-.209,23.167-5.015,32.847,2.757a12.129,12.129,0,0,1,4.589,9.942c0,3.656-.968,11.1-2.309,21.411-4.4,33.857-19.253,96.88-3.409,114.919a12.711,12.711,0,0,0,10.024,4.608c39.185,0,42.57,1.251,42.955,1.338Z" fill="#fff"/>
            </g>
          </g>
        </g>
        <path id="Path_11791" data-name="Path 11791" d="M305.206,169.363v45.7l68.716-10.771a6.758,6.758,0,0,0,5.71-6.675V186.81a6.756,6.756,0,0,0-5.71-6.675Z" fill="#407bff"/>
        <g id="Group_2362" data-name="Group 2362" opacity="0.4">
          <g id="Group_2361" data-name="Group 2361">
            <g id="Group_2360" data-name="Group 2360" clip-path="url(#clip-path-30)">
              <path id="Path_11792" data-name="Path 11792" d="M305.206,169.363v45.7l68.716-10.771a6.758,6.758,0,0,0,5.71-6.675V186.81a6.756,6.756,0,0,0-5.71-6.675Z" fill="#fff"/>
            </g>
          </g>
        </g>
        <g id="Group_2365" data-name="Group 2365" opacity="0.2">
          <g id="Group_2364" data-name="Group 2364">
            <g id="Group_2363" data-name="Group 2363" clip-path="url(#clip-path-31)">
              <path id="Path_11793" data-name="Path 11793" d="M373.922,198.388l-68.716,10.771v5.9l68.716-10.772a6.756,6.756,0,0,0,5.71-6.675v-5.9a6.757,6.757,0,0,1-5.71,6.675" fill="#263238"/>
            </g>
          </g>
        </g>
        <path id="Path_11794" data-name="Path 11794" d="M303.064,162.57H276.807v27.873h63.784V176.157Z" fill="#407bff"/>
        <g id="Group_2368" data-name="Group 2368" opacity="0.6">
          <g id="Group_2367" data-name="Group 2367">
            <g id="Group_2366" data-name="Group 2366" clip-path="url(#clip-path-32)">
              <path id="Path_11795" data-name="Path 11795" d="M303.064,162.57H276.807v27.873h63.784V176.157Z" fill="#fff"/>
            </g>
          </g>
        </g>
        <path id="Path_11796" data-name="Path 11796" d="M314.334,220.266l-37.527-13.587V162.57l37.527,13.587Z" fill="#407bff"/>
        <g id="Group_2371" data-name="Group 2371" opacity="0.4">
          <g id="Group_2370" data-name="Group 2370">
            <g id="Group_2369" data-name="Group 2369" clip-path="url(#clip-path-33)">
              <path id="Path_11797" data-name="Path 11797" d="M314.334,220.266l-37.527-13.587V162.57l37.527,13.587Z" fill="#fff"/>
            </g>
          </g>
        </g>
        <rect id="Rectangle_1214" data-name="Rectangle 1214" width="26.257" height="44.109" transform="translate(314.334 176.157)" fill="#407bff"/>
        <g id="Group_2374" data-name="Group 2374" opacity="0.2">
          <g id="Group_2373" data-name="Group 2373">
            <g id="Group_2372" data-name="Group 2372" clip-path="url(#clip-path-34)">
              <rect id="Rectangle_1215" data-name="Rectangle 1215" width="26.257" height="44.109" transform="translate(314.334 176.157)" fill="#fff"/>
            </g>
          </g>
        </g>
        <path id="Path_11798" data-name="Path 11798" d="M302.3,186.741v-9.454l-13.458-4.872v9.453l-5.531-2v23.679l24.52,8.878V188.744Z" fill="#263238"/>
        <g id="Group_2377" data-name="Group 2377" opacity="0.1">
          <g id="Group_2376" data-name="Group 2376">
            <g id="Group_2375" data-name="Group 2375" clip-path="url(#clip-path-35)">
              <path id="Path_11799" data-name="Path 11799" d="M302.3,186.741v-9.454l-13.458-4.872v9.453l-5.531-2v23.679l24.52,8.878V188.744Z" fill="#fff"/>
            </g>
          </g>
        </g>
        <path id="Path_11800" data-name="Path 11800" d="M307.83,209.159V196.453H287.693v8.679l11.123,4.027Z" fill="#407bff"/>
        <g id="Group_2380" data-name="Group 2380" opacity="0.2">
          <g id="Group_2379" data-name="Group 2379">
            <g id="Group_2378" data-name="Group 2378" clip-path="url(#clip-path-36)">
              <path id="Path_11801" data-name="Path 11801" d="M307.83,209.159V196.453H287.693v8.679l11.123,4.027Z" fill="#fff"/>
            </g>
          </g>
        </g>
        <path id="Path_11802" data-name="Path 11802" d="M286.562,175.984l-3.252-1.177v-4.394l3.252,1.177Z" fill="#fff"/>
        <path id="Path_11803" data-name="Path 11803" d="M307.83,183.684l-3.252-1.177v-4.394l3.252,1.177Z" fill="#407bff"/>
        <rect id="Rectangle_1219" data-name="Rectangle 1219" width="4.383" height="8.679" transform="translate(303.447 202.157)" fill="#407bff"/>
        <g id="Group_2383" data-name="Group 2383" opacity="0.2">
          <g id="Group_2382" data-name="Group 2382">
            <g id="Group_2381" data-name="Group 2381" clip-path="url(#clip-path-37)">
              <rect id="Rectangle_1220" data-name="Rectangle 1220" width="4.383" height="8.679" transform="translate(303.447 202.157)"/>
            </g>
          </g>
        </g>
        <path id="Path_11804" data-name="Path 11804" d="M287.694,205.132l15.753,5.7v-8.679l-15.753-5.7Z" fill="#407bff"/>
        <path id="Path_11805" data-name="Path 11805" d="M415.071,139.419c-.9,2.129-1.877,4.468-2.915,6.649-1.025,2.216-8.772,20.451-9.421,21.166S377.485,178.5,371.67,181.1l.49,3.051c.2,1.237.293,1.627,1.544,1.55,4.442-.278,27.709-6.763,29.061-7.106a39.5,39.5,0,0,0,4.469-1.523c5.538-1.96,11.571-18.845,12.72-21.257.566-1.211,3.073-7.6,3.6-8.821s1.015-2.425,1.514-3.784Z" fill="#b55b52"/>
        <path id="Path_11806" data-name="Path 11806" d="M372.138,181.176l-7.151,1.879c-2.349.458-3.609,3.141-2.743,5.838,1.153,3.59,5.18,4.887,7.24,2.336a51.283,51.283,0,0,0,3.953-5.261,1.418,1.418,0,0,0-.039-1.337Z" fill="#b55b52"/>
        <path id="Path_11807" data-name="Path 11807" d="M422.389,131.93c10.843,3.962-2.548,32.351-2.548,32.351l-15.374-5.646a121.727,121.727,0,0,0,6.277-15.342c2.81-8.432,4.761-13.878,11.645-11.363" fill="#263238"/>
      </g>
    </g>
    <g id="Group_2456" data-name="Group 2456">
      <g id="Group_2455" data-name="Group 2455" clip-path="url(#clip-path)">
        <path id="Path_11808" data-name="Path 11808" d="M141.611,189.724s-3.681,54.57-5.589,79.918c-2.005,26.62-.239,63.577,2.11,80.7-1.407.971-5.793.79-8.766.108,0,0-17.315-46.7-12.046-76.819-4.153-19.2-2.68-34-4.3-44.987-3.358-22.714,4.126-33.073,4.126-33.073Z" fill="#b55b52"/>
        <path id="Path_11809" data-name="Path 11809" d="M146.544,189.2s19.106,49.426,27.27,73.5c8.574,25.281,22.9,56.424,31.761,71.262-.915,1.444-4.942,3.386-7.945,3.921,0,0-32.721-36.137-38.545-64.584-35.555-50.32-33.77-79.141-33.77-79.141Z" fill="#b55b52"/>
        <g id="Group_2388" data-name="Group 2388" opacity="0.2">
          <g id="Group_2387" data-name="Group 2387">
            <g id="Group_2386" data-name="Group 2386" clip-path="url(#clip-path-39)">
              <path id="Path_11810" data-name="Path 11810" d="M166.925,243.294a202.429,202.429,0,0,1-23.282,5.587,184.4,184.4,0,0,1-12.165-26.161l25.332-6.61c3.251,8.611,6.847,18.23,10.115,27.184"/>
            </g>
          </g>
        </g>
        <g id="Group_2391" data-name="Group 2391" opacity="0.2">
          <g id="Group_2390" data-name="Group 2390">
            <g id="Group_2389" data-name="Group 2389" clip-path="url(#clip-path-40)">
              <path id="Path_11811" data-name="Path 11811" d="M139.5,220.626c-.647,9.379-1.365,19.706-2.039,29.186-8.311,1.054-16.708,1.258-23.177-.5-.413-8-.413-14.868-1.269-20.665-.054-.362-.1-.712-.145-1.068Z"/>
            </g>
          </g>
        </g>
        <path id="Path_11812" data-name="Path 11812" d="M128.839,149.638c2.1,4.384,4.331,8.5,6.824,12.636a77.816,77.816,0,0,0,8.771,12.1,23.384,23.384,0,0,0,3.378,3.016,10.407,10.407,0,0,0,1.181.747c.447.26.8.4,1.205.589a18.434,18.434,0,0,0,2.139.751,42.505,42.505,0,0,0,7.6,1.336,83,83,0,0,0,14.429.058,2.781,2.781,0,0,0,.4-5.483l-.077-.016c-4.447-1.015-8.976-2-13.244-3.13a45.387,45.387,0,0,1-5.927-1.936c-.422-.186-.784-.37-1.1-.541a2.975,2.975,0,0,1-.332-.229c-.061-.046-.157-.133-.26-.227a15.042,15.042,0,0,1-1.645-1.793,53.392,53.392,0,0,1-3.575-5.135c-1.154-1.855-2.3-3.764-3.384-5.725-2.2-3.883-4.362-7.955-6.4-11.892l-.04-.077a5.561,5.561,0,0,0-9.957,4.952" fill="#b55b52"/>
        <path id="Path_11813" data-name="Path 11813" d="M129.026,141.07s10.379-4.552,17.881,15.75c0,0-2.5,5.133-11.249,6.592,0,0-6.639-12.269-6.632-22.342" fill="#407bff"/>
        <g id="Group_2394" data-name="Group 2394" opacity="0.2">
          <g id="Group_2393" data-name="Group 2393">
            <g id="Group_2392" data-name="Group 2392" clip-path="url(#clip-path-41)">
              <path id="Path_11814" data-name="Path 11814" d="M129.026,141.07s10.379-4.552,17.881,15.75c0,0-2.5,5.133-11.249,6.592,0,0-6.639-12.269-6.632-22.342"/>
            </g>
          </g>
        </g>
        <path id="Path_11815" data-name="Path 11815" d="M135.825,165a19.007,19.007,0,0,0,12.667-7.667l-.868-1.773-2.369-1.579s-2.68,4.8-12.013,6.91Z" fill="#407bff"/>
        <g id="Group_2397" data-name="Group 2397" opacity="0.7">
          <g id="Group_2396" data-name="Group 2396">
            <g id="Group_2395" data-name="Group 2395" clip-path="url(#clip-path-42)">
              <path id="Path_11816" data-name="Path 11816" d="M135.825,165a19.007,19.007,0,0,0,12.667-7.667l-.868-1.773-2.369-1.579s-2.68,4.8-12.013,6.91Z" fill="#fff"/>
            </g>
          </g>
        </g>
        <path id="Path_11817" data-name="Path 11817" d="M146.621,358.327c-6.291.489-7.13.456-10.673.612-3.035.127-3.73.562-6.166.7-2.036.114-2.111-1.837-1.658-4.124.226-1.148.524-3.561.816-5.41l9.164-1.386c1.489,2.375,4.69,5.678,8.272,5.879,3.418.191,2.753,3.537.245,3.732" fill="#263238"/>
        <path id="Path_11818" data-name="Path 11818" d="M217.057,338.543c-5.6,2.912-6.382,3.21-9.582,4.74-2.744,1.305-3.213,1.977-5.4,3.054-1.829.9-2.662-.864-3.14-3.145-.241-1.145-.911-3.483-1.366-5.3l7.891-4.861c2.3,1.6,6.538,3.39,9.913,2.172,3.22-1.162,3.918,2.178,1.686,3.339" fill="#263238"/>
        <path id="Path_11819" data-name="Path 11819" d="M147.492,188.746l19.333,49.75s-26.851,10.833-54.675,7.833c0,0,1.337-8.167,0-14.666a60.857,60.857,0,0,1,3.509-36.042l.791-1.375,29.584-6.75Z" fill="#407bff"/>
        <g id="Group_2400" data-name="Group 2400" opacity="0.5">
          <g id="Group_2399" data-name="Group 2399">
            <g id="Group_2398" data-name="Group 2398" clip-path="url(#clip-path-43)">
              <path id="Path_11820" data-name="Path 11820" d="M144.059,244.749,142.825,218.5l4.919,25.521q-1.785.38-3.685.732"/>
              <path id="Path_11821" data-name="Path 11821" d="M135.825,236.663l.434,9.289c-1.174.145-2.362.279-3.572.393Z"/>
              <path id="Path_11822" data-name="Path 11822" d="M154.925,242.3l-5.1-23.8,8.67,22.8c-1.1.324-2.294.661-3.57,1"/>
              <path id="Path_11823" data-name="Path 11823" d="M124.88,230l.238,16.817c-1.3.036-2.622.041-3.946.028Z"/>
            </g>
          </g>
        </g>
        <path id="Path_11824" data-name="Path 11824" d="M184.228,175.216l-2.21-1.255a2.954,2.954,0,0,0-2.705-.11l-4.051,1.881a5.513,5.513,0,0,0-3.1,4l-.2,1.087c3.523,2.332,9.048,2.257,9.048,2.257l1.577.153a2.46,2.46,0,0,0,2.753-2.16l.344-3.121a2.835,2.835,0,0,0-1.457-2.73" fill="#b55b52"/>
        <path id="Path_11825" data-name="Path 11825" d="M146.469,190.733l-29.656,5.917a2.191,2.191,0,0,1-2.616-1.919c-.464-4.6-3.011-16.746-15.3-44.864,0,0,9.271-9.1,28.414-8.94a11.815,11.815,0,0,1,10.347,6.24c3.186,5.993,7.392,17.859,10.565,41.113a2.2,2.2,0,0,1-1.75,2.453" fill="#263238"/>
        <path id="Path_11826" data-name="Path 11826" d="M123.251,141.041c1.108.948,3.418,3.6,1.631,8.247,0,0-9.038-4.368-15.665-5.346a48.458,48.458,0,0,1,14.034-2.9" fill="#b55b52"/>
        <path id="Path_11827" data-name="Path 11827" d="M98.676,110s.3-17.035-4.08-19c-4.089-1.833-3.089,4.833-3.089,4.833s-5.154-9.823-10.167-8.666c-4.333,1,2,7.5,2,7.5s-9-4-10.833-1.167,3.333,6.167,3.333,6.167-8,.38-7.667,3.773,8.667,3.613,8.667,3.613-7.052,1.389-6.167,5.427c.834,3.8,10.334,2.05,10.334,2.05s-6.372,1.527-5.167,4.9c1.5,4.2,10.5.371,10.5.371s-4.663,2.8-2.9,5.2c3.071,4.184,13.533-8.345,13.533-8.345Z" fill="#263238"/>
        <path id="Path_11828" data-name="Path 11828" d="M102.757,108.33s-5.787-2-7.75,4.146c-2.246,7.036,5.448,8.558,5.448,8.558Z" fill="#407bff"/>
        <path id="Path_11829" data-name="Path 11829" d="M106.479,129.179c2.3,4.226,5.78,12.144,3.565,15.86,0,0,4.125-1.665,14.552,1.782,1.729-4.4-.512-5.137-.512-5.137-5.415.023-6.456-3.679-6.679-7.337Z" fill="#b55b52"/>
        <g id="Group_2403" data-name="Group 2403" opacity="0.2">
          <g id="Group_2402" data-name="Group 2402">
            <g id="Group_2401" data-name="Group 2401" clip-path="url(#clip-path-44)">
              <path id="Path_11830" data-name="Path 11830" d="M110.934,131.288l6.466,3.056a14.364,14.364,0,0,0,.348,2.551c-2.012.187-5.318-1.257-6.154-3.187a6.947,6.947,0,0,1-.66-2.42"/>
            </g>
          </g>
        </g>
        <path id="Path_11831" data-name="Path 11831" d="M100.455,121.033c3.114,6.968,4.282,9.974,9.28,12.477,7.519,3.767,15.455-1.072,14.5-8.7-.86-6.871-5.807-17.11-13.9-17.722a9.774,9.774,0,0,0-9.882,13.95" fill="#b55b52"/>
        <path id="Path_11832" data-name="Path 11832" d="M111.843,119.978c.236.6.742.979,1.13.855s.512-.707.276-1.3-.742-.979-1.13-.856-.512.707-.276,1.3" fill="#263238"/>
        <path id="Path_11833" data-name="Path 11833" d="M119.328,117.34c.236.6.742.979,1.13.855s.512-.707.276-1.3-.742-.979-1.13-.856-.512.707-.276,1.3" fill="#263238"/>
        <path id="Path_11834" data-name="Path 11834" d="M119.446,116.125l1.263-.867s-.289,1.351-1.263.867" fill="#263238"/>
        <path id="Path_11835" data-name="Path 11835" d="M116.827,119.161a18.811,18.811,0,0,0,3.624,3.13,2.553,2.553,0,0,1-1.96,1.073Z" fill="#a02724"/>
        <path id="Path_11836" data-name="Path 11836" d="M118.042,127.5a5.938,5.938,0,0,0,1.03-.231.172.172,0,0,0,.105-.231.2.2,0,0,0-.244-.119,5.314,5.314,0,0,1-4.566-.625.188.188,0,0,0-.262.026.185.185,0,0,0,.045.258,5.6,5.6,0,0,0,3.892.922" fill="#263238"/>
        <path id="Path_11837" data-name="Path 11837" d="M107.466,116.643a.343.343,0,0,0,.228-.169A2.743,2.743,0,0,1,109.838,115a.342.342,0,0,0,.332-.381.406.406,0,0,0-.414-.353,3.421,3.421,0,0,0-2.732,1.827.381.381,0,0,0,.165.5.391.391,0,0,0,.277.043" fill="#263238"/>
        <path id="Path_11838" data-name="Path 11838" d="M119.092,112.475a.343.343,0,0,0,.239-.124.368.368,0,0,0-.074-.518,3.918,3.918,0,0,0-3.363-.872.34.34,0,0,0-.225.453.405.405,0,0,0,.48.254,3.132,3.132,0,0,1,2.656.718.4.4,0,0,0,.287.089" fill="#263238"/>
        <path id="Path_11839" data-name="Path 11839" d="M111.96,118.763l1.263-.867s-.289,1.351-1.263.867" fill="#263238"/>
        <path id="Path_11840" data-name="Path 11840" d="M104.574,126.969s3.932-1.361-1.817-11.667c0,0,4.675.719,3.129-3.627,0,0,5.451,2.655,4.286-2.179,0,0,4.169,2.335,4.169-1.249,0,0,3.646.416,3.323-2.751s-17.719-4.166-19.771,8.167c0,0-4.586,6.779,6.681,13.306" fill="#263238"/>
        <path id="Path_11841" data-name="Path 11841" d="M100.28,127.637a6.109,6.109,0,0,0,4.423,1.526c2.067-.172,2.233-2.328.932-4.013-1.171-1.517-3.657-3.256-5.382-2.25-1.7.993-1.52,3.383.027,4.737" fill="#b55b52"/>
        <path id="Path_11842" data-name="Path 11842" d="M121.491,140.925s4.21,1.592,3.064,7.769c0,0-1.952-3.68-16.018-5.364l-3.963,2.688s8,5.236,13.916,6.795a4.943,4.943,0,0,1,1.794-4.972A10.2,10.2,0,0,1,125.148,151s1.262-1.506,1.015-5.382c0,0,2.5.382,3.5,4.132,0,0,1.535-2.513-2.357-8.819Z" fill="#407bff"/>
        <g id="Group_2406" data-name="Group 2406" opacity="0.7">
          <g id="Group_2405" data-name="Group 2405">
            <g id="Group_2404" data-name="Group 2404" clip-path="url(#clip-path-45)">
              <path id="Path_11843" data-name="Path 11843" d="M121.491,140.925s4.21,1.592,3.064,7.769c0,0-1.952-3.68-16.018-5.364l-3.963,2.688s8,5.236,13.916,6.795a4.943,4.943,0,0,1,1.794-4.972A10.2,10.2,0,0,1,125.148,151s1.262-1.506,1.015-5.382c0,0,2.5.382,3.5,4.132,0,0,1.535-2.513-2.357-8.819Z" fill="#fff"/>
            </g>
          </g>
        </g>
        <path id="Path_11844" data-name="Path 11844" d="M47.75,349.248c.082-.018,9.723-2.02,47.979-2.02,5.467,0,22.045-2.123,25.722-6.308,17.338-19.739,9.268-81.789,4.447-118.863-1.267-9.741-2.268-17.435-2.268-20.766a7.264,7.264,0,0,1,2.72-6.044c6.5-5.217,22.875-3.048,28.636-1.773l1.081-4.882c-.942-.209-23.167-5.015-32.847,2.758a12.128,12.128,0,0,0-4.59,9.941c0,3.656.969,11.1,2.309,21.411,4.4,33.857,12.6,96.879-3.244,114.918-2.724,3.1-17.945,4.608-21.966,4.608-39.184,0-48.7,2.056-49.084,2.143Z" fill="#407bff"/>
        <g id="Group_2409" data-name="Group 2409" opacity="0.7">
          <g id="Group_2408" data-name="Group 2408">
            <g id="Group_2407" data-name="Group 2407" clip-path="url(#clip-path-46)">
              <path id="Path_11845" data-name="Path 11845" d="M47.75,349.248c.082-.018,9.723-2.02,47.979-2.02,5.467,0,22.045-2.123,25.722-6.308,17.338-19.739,9.268-81.789,4.447-118.863-1.267-9.741-2.268-17.435-2.268-20.766a7.264,7.264,0,0,1,2.72-6.044c6.5-5.217,22.875-3.048,28.636-1.773l1.081-4.882c-.942-.209-23.167-5.015-32.847,2.758a12.128,12.128,0,0,0-4.59,9.941c0,3.656.969,11.1,2.309,21.411,4.4,33.857,12.6,96.879-3.244,114.918-2.724,3.1-17.945,4.608-21.966,4.608-39.184,0-48.7,2.056-49.084,2.143Z" fill="#fff"/>
            </g>
          </g>
        </g>
        <path id="Path_11846" data-name="Path 11846" d="M181.69,173.432v31.433l-47.266-7.409a4.647,4.647,0,0,1-3.928-4.591v-7.432a4.649,4.649,0,0,1,3.928-4.592Z" fill="#407bff"/>
        <g id="Group_2412" data-name="Group 2412" opacity="0.4">
          <g id="Group_2411" data-name="Group 2411">
            <g id="Group_2410" data-name="Group 2410" clip-path="url(#clip-path-47)">
              <path id="Path_11847" data-name="Path 11847" d="M181.69,173.432v31.433l-47.266-7.409a4.647,4.647,0,0,1-3.928-4.591v-7.432a4.649,4.649,0,0,1,3.928-4.592Z" fill="#fff"/>
            </g>
          </g>
        </g>
        <g id="Group_2415" data-name="Group 2415" opacity="0.2">
          <g id="Group_2414" data-name="Group 2414">
            <g id="Group_2413" data-name="Group 2413" clip-path="url(#clip-path-48)">
              <path id="Path_11848" data-name="Path 11848" d="M134.424,193.4l47.266,7.409v4.06l-47.266-7.409a4.649,4.649,0,0,1-3.928-4.592V188.8a4.649,4.649,0,0,0,3.928,4.592" fill="#263238"/>
            </g>
          </g>
        </g>
        <path id="Path_11849" data-name="Path 11849" d="M183.685,170.758h26.033V187.44H161.225v-8.55Z" fill="#407bff"/>
        <g id="Group_2418" data-name="Group 2418" opacity="0.6">
          <g id="Group_2417" data-name="Group 2417">
            <g id="Group_2416" data-name="Group 2416" clip-path="url(#clip-path-49)">
              <path id="Path_11850" data-name="Path 11850" d="M183.685,170.758h26.033V187.44H161.225v-8.55Z" fill="#fff"/>
            </g>
          </g>
        </g>
        <path id="Path_11851" data-name="Path 11851" d="M187.257,205.29l22.46-8.132v-26.4l-22.46,8.132Z" fill="#407bff"/>
        <g id="Group_2421" data-name="Group 2421" opacity="0.4">
          <g id="Group_2420" data-name="Group 2420">
            <g id="Group_2419" data-name="Group 2419" clip-path="url(#clip-path-50)">
              <path id="Path_11852" data-name="Path 11852" d="M187.257,205.29l22.46-8.132v-26.4l-22.46,8.132Z" fill="#fff"/>
            </g>
          </g>
        </g>
        <rect id="Rectangle_1235" data-name="Rectangle 1235" width="26.033" height="26.4" transform="translate(161.225 178.89)" fill="#407bff"/>
        <g id="Group_2424" data-name="Group 2424" opacity="0.2">
          <g id="Group_2423" data-name="Group 2423">
            <g id="Group_2422" data-name="Group 2422" clip-path="url(#clip-path-51)">
              <rect id="Rectangle_1236" data-name="Rectangle 1236" width="26.033" height="26.4" transform="translate(161.225 178.89)" fill="#fff"/>
            </g>
          </g>
        </g>
        <path id="Path_11853" data-name="Path 11853" d="M204.744,172.571c-.781-3.119-3.133-5.386-5.914-5.386h-4.719c-3.419,0-6.19,3.425-6.19,7.65a9.358,9.358,0,0,0,.227,2.032h4.732Z" fill="#407bff"/>
        <g id="Group_2427" data-name="Group 2427" opacity="0.6">
          <g id="Group_2426" data-name="Group 2426">
            <g id="Group_2425" data-name="Group 2425" clip-path="url(#clip-path-52)">
              <path id="Path_11854" data-name="Path 11854" d="M204.744,172.571c-.781-3.119-3.133-5.386-5.914-5.386h-4.719c-3.419,0-6.19,3.425-6.19,7.65a9.358,9.358,0,0,0,.227,2.032h4.732Z" fill="#fff"/>
            </g>
          </g>
        </g>
        <path id="Path_11855" data-name="Path 11855" d="M192.88,176.867l11.864-4.3c-.781-3.119-3.133-5.385-5.914-5.385-3.419,0-6.191,3.425-6.191,7.649a9.289,9.289,0,0,0,.228,2.032Z" fill="#407bff"/>
        <g id="Group_2430" data-name="Group 2430" opacity="0.4">
          <g id="Group_2429" data-name="Group 2429">
            <g id="Group_2428" data-name="Group 2428" clip-path="url(#clip-path-53)">
              <path id="Path_11856" data-name="Path 11856" d="M192.88,176.867l11.864-4.3c-.781-3.119-3.133-5.385-5.914-5.385-3.419,0-6.191,3.425-6.191,7.649a9.289,9.289,0,0,0,.228,2.032Z" fill="#fff"/>
            </g>
          </g>
        </g>
        <path id="Path_11857" data-name="Path 11857" d="M202.715,176.22v-3.144a4.327,4.327,0,0,0-3.932-3.58c-2.272,0-4.115,2.277-4.115,5.085v4.552l-4.659,1.688v20.547l16.957-6.14V174.681Z" fill="#263238"/>
        <path id="Path_11858" data-name="Path 11858" d="M190.009,182.1h34.826v9.1H190.009v-9.1Z" fill="#263238"/>
        <g id="Group_2433" data-name="Group 2433" opacity="0.8">
          <g id="Group_2432" data-name="Group 2432">
            <g id="Group_2431" data-name="Group 2431" clip-path="url(#clip-path-54)">
              <path id="Path_11859" data-name="Path 11859" d="M190.009,182.1h34.826v9.1H190.009v-9.1Z" fill="#fff"/>
            </g>
          </g>
        </g>
        <path id="Path_11860" data-name="Path 11860" d="M212.578,200.942l12.257-4.438V182.1l-12.257,4.438Z" fill="#263238"/>
        <rect id="Rectangle_1241" data-name="Rectangle 1241" width="22.569" height="14.407" transform="translate(190.009 186.535)" fill="#263238"/>
        <g id="Group_2436" data-name="Group 2436" opacity="0.4">
          <g id="Group_2435" data-name="Group 2435">
            <g id="Group_2434" data-name="Group 2434" clip-path="url(#clip-path-55)">
              <rect id="Rectangle_1242" data-name="Rectangle 1242" width="22.569" height="14.407" transform="translate(190.009 186.535)" fill="#fff"/>
            </g>
          </g>
        </g>
        <g id="Group_2439" data-name="Group 2439" opacity="0.6">
          <g id="Group_2438" data-name="Group 2438">
            <g id="Group_2437" data-name="Group 2437" clip-path="url(#clip-path-56)">
              <path id="Path_11861" data-name="Path 11861" d="M212.578,200.942l12.257-4.438V182.1l-12.257,4.438Z" fill="#fff"/>
            </g>
          </g>
        </g>
        <path id="Path_11862" data-name="Path 11862" d="M214.52,200.239l8.374-3.032v-4.056l-8.374,3.032Z" fill="#407bff"/>
        <path id="Path_11863" data-name="Path 11863" d="M195.464,171.585a5.875,5.875,0,0,0-.8,3v2.552l17.594,5.709,6.486-1.7v-2Z" fill="#263238"/>
        <g id="Group_2442" data-name="Group 2442" opacity="0.8">
          <g id="Group_2441" data-name="Group 2441">
            <g id="Group_2440" data-name="Group 2440" clip-path="url(#clip-path-57)">
              <path id="Path_11864" data-name="Path 11864" d="M195.464,171.585a5.875,5.875,0,0,0-.8,3v2.552l17.594,5.709,6.486-1.7v-2Z" fill="#fff"/>
            </g>
          </g>
        </g>
        <path id="Path_11865" data-name="Path 11865" d="M218.75,179.142l-7.05,2.553v3.358l7.05-2.553Z" fill="#263238"/>
        <g id="Group_2445" data-name="Group 2445" opacity="0.6">
          <g id="Group_2444" data-name="Group 2444">
            <g id="Group_2443" data-name="Group 2443" clip-path="url(#clip-path-58)">
              <path id="Path_11866" data-name="Path 11866" d="M218.75,179.142l-7.05,2.553v3.358l7.05-2.553Z" fill="#fff"/>
            </g>
          </g>
        </g>
        <path id="Path_11867" data-name="Path 11867" d="M194.668,176.169v2.964l-.575.208,17.607,5.711v-3.358Z" fill="#263238"/>
        <g id="Group_2448" data-name="Group 2448" opacity="0.4">
          <g id="Group_2447" data-name="Group 2447">
            <g id="Group_2446" data-name="Group 2446" clip-path="url(#clip-path-59)">
              <path id="Path_11868" data-name="Path 11868" d="M194.668,176.169v2.964l-.575.208,17.607,5.711v-3.358Z" fill="#fff"/>
            </g>
          </g>
        </g>
        <path id="Path_11869" data-name="Path 11869" d="M136.22,180.362l-1.978-1.6a2.959,2.959,0,0,0-2.653-.546l-4.3,1.2a5.51,5.51,0,0,0-3.7,3.446l-.374,1.04c3.1,2.87,8.565,3.687,8.565,3.687l1.532.4a2.459,2.459,0,0,0,3.065-1.687l.843-3.025a2.836,2.836,0,0,0-1-2.929" fill="#b55b52"/>
        <path id="Path_11870" data-name="Path 11870" d="M95.295,158.809a68.819,68.819,0,0,0-1.883,13.5,33.242,33.242,0,0,0,.5,7.578,16.244,16.244,0,0,0,.654,2.291,10.692,10.692,0,0,0,1.48,2.754,8.989,8.989,0,0,0,2.616,2.308,12.336,12.336,0,0,0,2.377,1.075,19.934,19.934,0,0,0,4.068.829,33.228,33.228,0,0,0,3.644.183,56.909,56.909,0,0,0,6.82-.476,81.09,81.09,0,0,0,12.939-2.712,2.774,2.774,0,0,0-.839-5.432l-.088,0c-4.127.079-8.351.145-12.4.009-2.028-.091-4.033-.188-5.924-.446-.942-.127-1.859-.261-2.7-.455a9.969,9.969,0,0,1-2.114-.687c-.517-.205-.713-.575-.226-.114.228.288,0-.245-.019-.9a28.468,28.468,0,0,1,.126-5.141c.188-1.9.459-3.861.784-5.833.276-1.958.7-4.016,1.03-5.873l.04-.223a5.559,5.559,0,0,0-10.886-2.239" fill="#b55b52"/>
        <path id="Path_11871" data-name="Path 11871" d="M106.465,169.473s-7.844.087-13.725-3.534c0,0-.207-12.961,7.337-17.17s6.388,20.7,6.388,20.7" fill="#407bff"/>
        <g id="Group_2451" data-name="Group 2451" opacity="0.2">
          <g id="Group_2450" data-name="Group 2450">
            <g id="Group_2449" data-name="Group 2449" clip-path="url(#clip-path-60)">
              <path id="Path_11872" data-name="Path 11872" d="M106.465,169.473s-7.844.087-13.725-3.534c0,0-.207-12.961,7.337-17.17s6.388,20.7,6.388,20.7"/>
            </g>
          </g>
        </g>
        <path id="Path_11873" data-name="Path 11873" d="M95.763,164.745l1.13,3.5,1.3-2.926a58.19,58.19,0,0,0,9.574,1.053l.015,4.562a34.182,34.182,0,0,1-16.415-3.927l.046-3.9a18.3,18.3,0,0,0,4.347,1.64" fill="#407bff"/>
        <g id="Group_2454" data-name="Group 2454" opacity="0.7">
          <g id="Group_2453" data-name="Group 2453">
            <g id="Group_2452" data-name="Group 2452" clip-path="url(#clip-path-61)">
              <path id="Path_11874" data-name="Path 11874" d="M95.763,164.745l1.13,3.5,1.3-2.926a58.19,58.19,0,0,0,9.574,1.053l.015,4.562a34.182,34.182,0,0,1-16.415-3.927l.046-3.9a18.3,18.3,0,0,0,4.347,1.64" fill="#fff"/>
            </g>
          </g>
        </g>
      </g>
    </g>
  </g>
</svg>
