<svg id="notification" xmlns="http://www.w3.org/2000/svg" width="17.69" height="21.217" viewBox="0 0 17.69 21.217">
  <g id="Group_43" data-name="Group 43" transform="translate(-0.042 -0.084)">
    <g id="notification-2" data-name="notification">
      <path id="Path_11968" data-name="Path 11968" d="M8.86,17.74H1.65A1.55,1.55,0,0,1,.6,15a6,6,0,0,0,1.73-2.55,6.39,6.39,0,0,0,.33-2.12q0-1.335,0-2.67A6.15,6.15,0,0,1,7.74,1.88c.18,0,.25-.1.24-.28A5.93,5.93,0,0,1,8,.87a.88.88,0,0,1,1.75,0v.75c0,.16,0,.22.21.25a6.13,6.13,0,0,1,4.61,3.66,6,6,0,0,1,.5,2.55c0,.94,0,1.88,0,2.81a5.72,5.72,0,0,0,2,4,1.68,1.68,0,0,1,.66,1.42,1.52,1.52,0,0,1-1.31,1.41h-.45Z" fill="#485a6f"/>
      <path id="Path_11969" data-name="Path 11969" d="M12.07,18.67a3.28,3.28,0,0,1-6.43,0Z" fill="#485a6f"/>
    </g>
  </g>
</svg>
