<svg xmlns="http://www.w3.org/2000/svg" width="24" height="24" viewBox="0 0 24 24">
    <path data-name="Rectangle 1401" style="fill:none" d="M0 0h24v24H0z"/>
    <path data-name="Path 12910" d="M30.042 12.24v11.843c0 .2.012.41 0 .614q0 .059-.013.118a3.834 3.834 0 0 1-.63 1.613 3.307 3.307 0 0 1-1.117 1.011 3.685 3.685 0 0 1-1.523.435c-.1.007-.2.011-.3.011H9.549a3.511 3.511 0 0 1-2.323-.871 3.556 3.556 0 0 1-1.175-2.454c-.013-.277.008-.555.008-.833V12.24a.719.719 0 0 1 .038.132 7.666 7.666 0 0 0 2.09 4.5 12.2 12.2 0 0 0 6.609 3.6.382.382 0 0 1 .348.343 2.987 2.987 0 0 0 5.812 0 .382.382 0 0 1 .35-.341 12.715 12.715 0 0 0 5.449-2.514 8.468 8.468 0 0 0 3.072-4.581c.094-.371.144-.758.215-1.139z" transform="translate(-6.047 -5.296)" style="fill:#fff"/>
    <path data-name="Path 12911" d="M22.979 10.949h5.644a6.868 6.868 0 0 1-.15 2.06 7.248 7.248 0 0 1-2.825 4.043 11.613 11.613 0 0 1-4.44 2.015 1.124 1.124 0 0 1-.159.013v-1.175a.717.717 0 0 0-.784-.787h-4.426a.716.716 0 0 0-.786.784v1.124a.461.461 0 0 1-.031.087c-.5-.151-1.015-.283-1.512-.456a10.138 10.138 0 0 1-4.3-2.74 6.364 6.364 0 0 1-1.729-4.958h5.636c0-.457-.025-.884.007-1.308a4.362 4.362 0 0 1 .195-1.119A2.772 2.772 0 0 1 15.87 6.72c1.452-.015 2.9-.019 4.356 0a2.817 2.817 0 0 1 2.749 2.717c.018.492.004.983.004 1.512zm-8.438-.007h7.034c0-.487.012-.961 0-1.434a1.4 1.4 0 0 0-1.4-1.382q-2.129-.018-4.259 0a1.373 1.373 0 0 0-1.364 1.184c-.052.533-.011 1.074-.011 1.632z" transform="translate(-6.047 -5.296)" style="fill:#fff"/>
    <path data-name="Path 12912" d="M16.458 18.536h3.164a1 1 0 0 1 .021.151c0 .483.006.967 0 1.45a1.592 1.592 0 0 1-3.183 0c-.008-.537-.002-1.061-.002-1.601z" transform="translate(-6.047 -5.296)" style="fill:#fff"/>
</svg>
