<svg id="payonservice" xmlns="http://www.w3.org/2000/svg" width="18" height="18" viewBox="0 0 18 18">
  <rect id="Rectangle_1304" data-name="Rectangle 1304" width="18" height="18" fill="none"/>
  <path id="Path_12278" data-name="Path 12278" d="M14.295,13.815H12.112a.55.55,0,0,1,0-1.1h2.182a2.606,2.606,0,0,0,2.6-2.6V3.7a2.606,2.606,0,0,0-2.6-2.6H4.639a2.606,2.606,0,0,0-2.6,2.6V5.25a.55.55,0,1,1-1.1,0V3.7A3.708,3.708,0,0,1,4.639,0h9.655A3.708,3.708,0,0,1,18,3.7v6.408A3.708,3.708,0,0,1,14.295,13.815Z" transform="translate(0.002 0.826)"/>
  <path id="Path_12279" data-name="Path 12279" d="M6.848,8.982a3.7,3.7,0,1,0-3.7,5.614,3.7,3.7,0,1,0,3.7-5.614ZM3.523,13.533h0A2.6,2.6,0,1,1,6,9.7a0,0,0,0,0,0,0c.015.029.031.055.045.088h0A2.6,2.6,0,0,1,3.7,13.54Q3.612,13.54,3.523,13.533Zm2.768,1.713a2.594,2.594,0,0,1-1.773-.7,3.707,3.707,0,0,0,2.829-4.286,2.6,2.6,0,0,1-1.056,4.982Z" transform="translate(0.002 0.826)"/>
  <path id="Path_12280" data-name="Path 12280" d="M6.041,9.793A.5.5,0,0,1,6,9.705C6.012,9.734,6.027,9.763,6.041,9.793Z" transform="translate(0.002 0.826)"/>
  <path id="Path_12281" data-name="Path 12281" d="M11.04,8.945a.55.55,0,0,1-.406-.922A1.637,1.637,0,1,0,8.2,5.834a.55.55,0,0,1-.826-.727,2.738,2.738,0,1,1,4.073,3.659A.55.55,0,0,1,11.04,8.945Z" transform="translate(0.002 0.826)"/>
  <path id="Path_12282" data-name="Path 12282" d="M14.751,11.173h-1.1a.55.55,0,0,1,0-1.1h1.1a.55.55,0,1,1,0,1.1Z" transform="translate(0.002 0.826)"/>
  <path id="Path_12283" data-name="Path 12283" d="M5.119,3.963h-1.1a.55.55,0,1,1,0-1.1h1.1a.55.55,0,1,1,0,1.1Z" transform="translate(0.002 0.826)"/>
</svg>
