<svg id="phonepe" xmlns="http://www.w3.org/2000/svg" width="18" height="18" viewBox="0 0 18 18">
  <rect id="Rectangle_1306" data-name="Rectangle 1306" width="18" height="18" fill="none"/>
  <circle id="ellipse30" cx="9" cy="9" r="9" fill="#5f259f"/>
  <path id="path36" d="M13.085,6.651A.666.666,0,0,0,12.432,6H11.225L8.459,2.83a1.019,1.019,0,0,0-1.056-.3l-.955.3a.223.223,0,0,0-.1.352L9.365,6.048H4.789a.237.237,0,0,0-.251.251v.5a.666.666,0,0,0,.654.654h.7V9.869c0,1.81.955,2.866,2.564,2.866a3.479,3.479,0,0,0,1.408-.251v1.609a.794.794,0,0,0,.8.8h.7a.324.324,0,0,0,.3-.3V7.406h1.156a.237.237,0,0,0,.251-.251ZM9.867,10.975a2.4,2.4,0,0,1-1.006.2c-.8,0-1.207-.4-1.207-1.307V7.456H9.867Z" fill="#fff"/>
</svg>
