<svg id="rating" xmlns="http://www.w3.org/2000/svg" width="12" height="12" viewBox="0 0 12 12">
  <rect id="Rectangle_982" data-name="Rectangle 982" width="12" height="12" fill="none"/>
  <path id="Path_11948" data-name="Path 11948" d="M0,4.632c.011-.037.025-.072.034-.11a.668.668,0,0,1,.587-.517c.48-.031.959-.089,1.439-.132.387-.035.774-.065,1.161-.1.248-.022.5-.043.742-.073a.163.163,0,0,0,.11-.082c.154-.361.3-.726.45-1.089.088-.212.182-.422.27-.634C5,1.4,5.2.909,5.406.419a.608.608,0,0,1,.448-.4.561.561,0,0,1,.653.311,4.683,4.683,0,0,1,.25.552c.1.236.195.475.293.712q.36.868.722,1.735c.04.1.071.2.118.292A.168.168,0,0,0,8,3.7c.371.038.743.066,1.114.1s.765.074,1.148.11c.36.034.719.08,1.08.095a.647.647,0,0,1,.55.89.99.99,0,0,1-.208.289c-.185.178-.386.34-.577.511-.307.275-.612.552-.918.828-.286.258-.573.515-.858.774a1.083,1.083,0,0,0-.167.177.2.2,0,0,0-.019.139c.1.449.2.9.3,1.344.149.676.3,1.351.443,2.028a.619.619,0,0,1-.235.675.6.6,0,0,1-.721.008q-.8-.492-1.6-.982c-.411-.252-.822-.5-1.23-.76a.183.183,0,0,0-.222,0c-.355.218-.715.427-1.071.643-.445.271-.888.545-1.331.819-.172.106-.335.227-.512.322a.594.594,0,0,1-.764-.168.661.661,0,0,1-.115-.554q.3-1.367.6-2.734c.048-.216.092-.434.143-.649a.147.147,0,0,0-.051-.164c-.261-.233-.518-.47-.778-.7l-1-.9C.756,5.62.518,5.4.272,5.181a.712.712,0,0,1-.243-.438A.561.561,0,0,0,0,4.656V4.632" transform="translate(0.029 0.107)" fill="#fec134"/>
</svg>
