<svg id="Rescheduled" xmlns="http://www.w3.org/2000/svg" xmlns:xlink="http://www.w3.org/1999/xlink" width="27" height="27" viewBox="0 0 27 27">
  <defs>
    <clipPath id="clip-path">
      <rect id="back" width="27" height="27" transform="translate(30 370)" fill="#2560fc" opacity="0.26"/>
    </clipPath>
  </defs>
  <g id="Rescheduled-2" data-name="Rescheduled" transform="translate(-30 -370)" clip-path="url(#clip-path)">
    <g id="Rescheduled-3" data-name="Rescheduled" transform="translate(30 370.002)">
      <path id="Path_13206" data-name="Path 13206" d="M24.053,24.463C19.916,27.84,7,27.84,2.946,24.463c-4.137-3.377-3.715-17.814,0-21.613s17.392-3.8,21.107,0S28.19,21.085,24.053,24.463Z" fill="#2560fc"/>
      <g id="layer1">
        <path id="path2452" d="M18.448,15a3.425,3.425,0,1,0,3.427,3.421A3.408,3.408,0,0,0,18.448,15h0Zm-.562,1.915a.761.761,0,0,1,.758.764h0v.76h.764a.761.761,0,0,1,.758.764h0a.761.761,0,0,1-.758.758H17.886a.761.761,0,0,1-.764-.758V17.68a.761.761,0,0,1,.758-.764h.006Z" fill="#fff"/>
        <path id="path712" d="M9.694,5.105a.761.761,0,0,0-.759.759V7.386a.761.761,0,0,0,.758.764h0a.761.761,0,0,0,.764-.758V5.864a.761.761,0,0,0-.764-.759h0Z" fill="#fff"/>
        <path id="path714" d="M16.543,5.105a.761.761,0,0,0-.759.759V7.386a.761.761,0,0,0,.758.764h0a.761.761,0,0,0,.764-.758V5.864a.761.761,0,0,0-.764-.759h0Z" fill="#fff"/>
        <path id="path716" d="M8.525,6.628a3.408,3.408,0,0,0-3.4,3.394V16.17a3.411,3.411,0,0,0,3.4,3.4h5.119a4.933,4.933,0,0,1,7.468-5.3V10.022a3.4,3.4,0,0,0-3.394-3.394H8.526ZM6.683,9.674H19.555a1.963,1.963,0,0,1,.034.348V11.2H6.649V10.022a1.909,1.909,0,0,1,.034-.348Zm2.252,2.584h1.522a.761.761,0,0,1,.758.764h0a.761.761,0,0,1-.758.758H8.935a.761.761,0,0,1-.764-.758h0a.761.761,0,0,1,.758-.764h.006Zm4.6,0h1.522a.761.761,0,0,1,.758.764h0a.761.761,0,0,1-.758.758H13.532a.761.761,0,0,1-.764-.758h0a.761.761,0,0,1,.758-.764Zm-4.6,3.23h1.522a.762.762,0,0,1,0,1.524H8.935a.761.761,0,0,1-.764-.758v-.006a.762.762,0,0,1,.763-.76h0Z" fill="#fff"/>
      </g>
    </g>
  </g>
</svg>
