<svg id="schedule_timmer" xmlns="http://www.w3.org/2000/svg" width="18" height="18" viewBox="0 0 18 18">
  <rect id="Rectangle_1325" data-name="Rectangle 1325" width="18" height="18" fill="none"/>
  <g id="timmer" transform="translate(0.06 0.273)">
    <g id="Layer_1" data-name="Layer 1">
      <g id="schedule">
        <path id="Path_12328" data-name="Path 12328" d="M7.837,16.55H5.06A5.066,5.066,0,0,1,0,11.49V5.06A5.066,5.066,0,0,1,5.06,0H11.6a5.066,5.066,0,0,1,5.06,5.06V6.852a.6.6,0,1,1-1.191,0V5.06a3.874,3.874,0,0,0-3.87-3.87H5.06a3.874,3.874,0,0,0-3.87,3.87v6.43a3.874,3.874,0,0,0,3.87,3.87H7.837a.6.6,0,0,1,0,1.191Z" fill="#343f53"/>
        <path id="Path_12329" data-name="Path 12329" d="M18.65,22.277a4.391,4.391,0,0,1-4.386-4.386v-.158a4.386,4.386,0,0,1,8.772,0v.158A4.391,4.391,0,0,1,18.65,22.277Zm0-7.739a3.2,3.2,0,0,0-3.2,3.2v.158a3.2,3.2,0,1,0,6.39,0v-.158a3.2,3.2,0,0,0-3.2-3.2Z" transform="translate(-5.155 -4.824)" fill="#343f53"/>
        <path id="Path_12330" data-name="Path 12330" d="M21.756,20.792a.6.6,0,0,1-.327-.1l-1.211-.8a.6.6,0,0,1-.267-.5V17.96a.6.6,0,0,1,1.191,0v1.116l.944.622a.6.6,0,0,1-.328,1.092Z" transform="translate(-7.21 -6.276)" fill="#343f53"/>
        <path id="Path_12331" data-name="Path 12331" d="M17.138,10.279H13.77a.6.6,0,0,1,0-1.191h3.368a.6.6,0,1,1,0,1.191Z" transform="translate(-4.762 -3.285)" fill="#343f53"/>
        <path id="Path_12332" data-name="Path 12332" d="M7.417,9.846a.6.6,0,0,1-.357-.119L6.222,9.1a.6.6,0,0,1,.714-.953l.438.327L8.622,7.3a.6.6,0,1,1,.814.866L7.829,9.685A.6.6,0,0,1,7.417,9.846Z" transform="translate(-2.163 -2.571)" fill="#343f53"/>
        <path id="Path_12333" data-name="Path 12333" d="M7.417,16.613a.6.6,0,0,1-.357-.119l-.838-.624a.6.6,0,1,1,.714-.953l.438.327,1.247-1.175a.6.6,0,1,1,.816.867L7.831,16.453a.6.6,0,0,1-.414.16Z" transform="translate(-2.163 -5.026)" fill="#343f53"/>
      </g>
    </g>
  </g>
</svg>
