<svg id="splash_logo" xmlns="http://www.w3.org/2000/svg" width="239.63" height="217.702" viewBox="0 0 239.63 217.702">
  <g id="Group_1" data-name="Group 1" transform="translate(0 137.278)">
    <path id="Path_1" data-name="Path 1" d="M391.635,644.051l4.812,4.915c-2.38,2.483-6.984,4.139-10.916,4.139a13.761,13.761,0,0,1-14.176-14.072,13.475,13.475,0,0,1,13.762-13.917c8.382,0,13.3,6.363,13.3,16.452h-19.3a6.5,6.5,0,0,0,6.364,4.863A9.682,9.682,0,0,0,391.635,644.051Zm-12.416-7.915H391.17a5.582,5.582,0,0,0-5.743-4.346A6.464,6.464,0,0,0,379.219,636.136Z" transform="translate(-371.355 -616.321)" fill="#fff"/>
    <path id="Path_2" data-name="Path 2" d="M474.68,599.283h12.727c11.951,0,20.435,7.346,20.435,17.745s-8.485,17.8-20.435,17.8H474.68Zm13.71,28.61c6.777,0,11.589-4.5,11.589-10.864,0-6.312-4.811-10.813-11.589-10.813h-6.1v21.677Z" transform="translate(-441.985 -598.662)" fill="#fff"/>
    <path id="Path_3" data-name="Path 3" d="M613,644.051l4.811,4.915c-2.38,2.483-6.984,4.139-10.916,4.139a13.761,13.761,0,0,1-14.176-14.072,13.475,13.475,0,0,1,13.762-13.917c8.381,0,13.3,6.363,13.3,16.452h-19.3a6.494,6.494,0,0,0,6.363,4.863A9.683,9.683,0,0,0,613,644.051Zm-12.416-7.915h11.951a5.582,5.582,0,0,0-5.742-4.346A6.464,6.464,0,0,0,600.583,636.136Z" transform="translate(-522.672 -616.321)" fill="#fff"/>
    <path id="Path_4" data-name="Path 4" d="M735.773,635.463v17.073H728.53V636.757c0-3.1-1.966-5.277-4.76-5.277a4.843,4.843,0,0,0-5.173,4.863v16.193h-7.243V636.757c0-3.1-1.966-5.277-4.708-5.277-3.052,0-5.174,2.018-5.174,4.863v16.142h-7.554V625.737h7.554v3.518a7.832,7.832,0,0,1,7.243-4.139,9.513,9.513,0,0,1,8.485,4.863c1.4-2.949,4.708-4.863,8.691-4.863C731.479,625.116,735.773,629.41,735.773,635.463Z" transform="translate(-591.85 -616.321)" fill="#fff"/>
    <path id="Path_5" data-name="Path 5" d="M866.633,636.5v15.986h-7.294v-2.69a10.626,10.626,0,0,1-7.864,3.311c-5.691,0-10.089-3.415-10.089-8.537,0-5.277,4.915-8.9,11.124-8.9a19.3,19.3,0,0,1,6.829,1.345V636.5c0-2.846-1.759-5.329-6.156-5.329a15.292,15.292,0,0,0-6.933,1.914l-2.535-5.018a24.543,24.543,0,0,1,11.175-2.949C861.873,625.116,866.633,629.513,866.633,636.5Zm-7.294,7.553v-2.483a16.923,16.923,0,0,0-5.743-.983c-2.742,0-4.915,1.6-4.915,3.777s1.914,3.518,4.5,3.518C856.079,647.879,858.821,646.534,859.339,644.051Z" transform="translate(-692.653 -616.321)" fill="#fff"/>
    <path id="Path_6" data-name="Path 6" d="M966.347,635.463v17.021h-7.295V637.067c0-3.311-2.069-5.587-5.07-5.587a5.323,5.323,0,0,0-5.587,5.174l-.052-.155v15.986H940.79V625.737h7.553V629.1a9.529,9.529,0,0,1,8.071-3.984C962.208,625.116,966.347,629.41,966.347,635.463Z" transform="translate(-760.603 -616.321)" fill="#fff"/>
    <path id="Path_7" data-name="Path 7" d="M1066.282,597.321v36.163h-7.553v-3.828a10.984,10.984,0,0,1-9,4.449c-7.14,0-12.313-5.794-12.313-14.021,0-8.174,5.173-13.969,12.313-13.969a10.984,10.984,0,0,1,9,4.449V597.321Zm-7.553,22.764c0-4.449-2.845-7.605-6.829-7.605-4.19,0-7.14,3.156-7.14,7.605,0,4.5,2.949,7.657,7.14,7.657C1055.884,627.741,1058.729,624.586,1058.729,620.085Z" transform="translate(-826.652 -597.321)" fill="#fff"/>
  </g>
  <text id="Home_service" data-name="Home service" transform="translate(41.5 212.702)" fill="#fff" font-size="24" font-family="PlusJakartaSans-Regular, Plus Jakarta Sans"><tspan x="0" y="0">Home service</tspan></text>
  <path id="Path_8" data-name="Path 8" d="M651.529,224.142a26.013,26.013,0,0,0,0-13.92h10.915a2.686,2.686,0,0,0,2.6-3.376,39.776,39.776,0,1,0-38.415,50.107h21.308a4.473,4.473,0,0,1,4.473,4.473V266.4a4.473,4.473,0,0,1-4.473,4.473H626.264a53.363,53.363,0,0,1-53.327-53.932c0-.024,0-.049,0-.073a53.69,53.69,0,0,1,107.38.314q0,1.4-.07,2.775a4.426,4.426,0,0,1-4.429,4.185Z" transform="translate(-509.147 -163.491)" fill="#fff"/>
  <path id="Path_9" data-name="Path 9" d="M731.525,277.322a25.852,25.852,0,0,1-46.546,15.493,2.222,2.222,0,0,1,1.77-3.562h16.936l3.977-3.977V269.368l-3.977-3.977H686.68a2.188,2.188,0,0,1-1.742-3.507,25.844,25.844,0,0,1,46.588,15.438Z" transform="translate(-585.407 -223.631)" fill="#fff"/>
  <path id="Path_10" data-name="Path 10" d="M722.692,277.322a25.851,25.851,0,0,1-46.53,15.514,2.229,2.229,0,0,1,1.765-3.582H692.04a6.79,6.79,0,0,0,4.8-1.989h0a6.79,6.79,0,0,0,1.988-4.8V272.18a6.79,6.79,0,0,0-1.988-4.8h0a6.791,6.791,0,0,0-4.8-1.988H677.847a2.184,2.184,0,0,1-1.768-3.472,25.844,25.844,0,0,1,46.613,15.4Z" transform="translate(-579.362 -223.631)" fill="#fff"/>
  <g id="Group_2" data-name="Group 2" transform="translate(153.858 78.02)">
    <path id="Rectangle_1" data-name="Rectangle 1" d="M8.656,0h0a8.656,8.656,0,0,1,8.656,8.656v1.712A3.208,3.208,0,0,1,14.1,13.575H3.208A3.208,3.208,0,0,1,0,10.368V8.656A8.656,8.656,0,0,1,8.656,0Z" transform="translate(0 15.787)" fill="#fff"/>
    <rect id="Rectangle_2" data-name="Rectangle 2" width="11.47" height="11.47" rx="5.735" transform="translate(2.921)" fill="#fff"/>
  </g>
</svg>
