<svg id="Started" xmlns="http://www.w3.org/2000/svg" xmlns:xlink="http://www.w3.org/1999/xlink" width="27" height="27" viewBox="0 0 27 27">
  <defs>
    <clipPath id="clip-path">
      <rect id="back" width="27" height="27" transform="translate(30 370)" fill="#23aefe" opacity="0.26"/>
    </clipPath>
  </defs>
  <g id="Started-2" data-name="Started" transform="translate(-30 -370)" clip-path="url(#clip-path)">
    <g id="Started-3" data-name="Started" transform="translate(30 370.002)">
      <path id="Path_13209" data-name="Path 13209" d="M24.053,24.463C19.916,27.84,7,27.84,2.946,24.463c-4.137-3.377-3.715-17.814,0-21.613s17.392-3.8,21.107,0S28.19,21.085,24.053,24.463Z" fill="#23aefe"/>
      <g id="Group_2392" data-name="Group 2392">
        <path id="Path_13210" data-name="Path 13210" d="M12.749,18.146a5.252,5.252,0,0,0-.765.82.028.028,0,0,1-.028.009,6.771,6.771,0,0,1-2.04-.846A.027.027,0,0,1,9.9,18.1a7.739,7.739,0,0,0,.053-.988A1.335,1.335,0,0,0,8.529,15.9q-.386.033-.772.058a.027.027,0,0,1-.025-.013,6.815,6.815,0,0,1-.847-2.038.032.032,0,0,1,.01-.031q.289-.249.575-.5a1.332,1.332,0,0,0,.24-1.775A5.111,5.111,0,0,0,6.9,10.85a.037.037,0,0,1-.012-.036A6.75,6.75,0,0,1,7.73,8.78a.035.035,0,0,1,.033-.017l.714.054A1.331,1.331,0,0,0,9.949,7.66,6.307,6.307,0,0,0,9.9,6.621a.029.029,0,0,1,.014-.027,6.783,6.783,0,0,1,2.039-.846.026.026,0,0,1,.028.009,5.17,5.17,0,0,0,.761.817,1.349,1.349,0,0,0,1.548-.025,6.069,6.069,0,0,0,.724-.794.027.027,0,0,1,.028-.009,6.8,6.8,0,0,1,2.039.847.028.028,0,0,1,.014.027,7.673,7.673,0,0,0-.055.984A1.338,1.338,0,0,0,18.518,8.82q.361-.033.722-.057a.03.03,0,0,1,.028.014,6.735,6.735,0,0,1,.846,2.041.027.027,0,0,1-.009.028,4.877,4.877,0,0,0-.833.783,1.349,1.349,0,0,0,.026,1.5,5.521,5.521,0,0,0,.807.745.027.027,0,0,1,.009.028,6.771,6.771,0,0,1-.842,2.034.045.045,0,0,1-.042.021,7.2,7.2,0,0,0-.973-.055,1.333,1.333,0,0,0-1.215,1.474q.025.28.053.723a.032.032,0,0,1-.014.028,6.732,6.732,0,0,1-2.037.845.028.028,0,0,1-.031-.01,4.805,4.805,0,0,0-.778-.83,1.35,1.35,0,0,0-1.488.01Zm4.574-5.785A3.823,3.823,0,1,0,13.5,16.185a3.823,3.823,0,0,0,3.823-3.823Z" fill="#fff"/>
        <path id="Path_13211" data-name="Path 13211" d="M16.335,12.362A2.835,2.835,0,0,1,13.5,15.2h0a2.835,2.835,0,0,1-2.835-2.835h0a2.835,2.835,0,0,1,5.67,0Zm-1.234,0a1.6,1.6,0,1,0-1.6,1.6A1.6,1.6,0,0,0,15.1,12.362Z" fill="#fff"/>
        <circle id="Ellipse_88" data-name="Ellipse 88" cx="0.615" cy="0.615" r="0.615" transform="translate(12.885 11.747)" fill="#fff"/>
        <path id="Path_13212" data-name="Path 13212" d="M5.072,21.2V19.972l1.955,0A.029.029,0,0,1,7.056,20h0v1.185a.015.015,0,0,1-.017.017Z" fill="#fff"/>
        <rect id="Rectangle_1457" data-name="Rectangle 1457" width="1.992" height="1.235" rx="0.027" transform="translate(8.043 19.967)" fill="#fff"/>
        <rect id="Rectangle_1458" data-name="Rectangle 1458" width="1.983" height="1.235" rx="0.014" transform="translate(11.023 19.967)" fill="#fff"/>
        <path id="Path_13213" data-name="Path 13213" d="M21.928,19.967V21.2h-7.87a.06.06,0,0,0-.023,0,.045.045,0,0,1-.025,0,.019.019,0,0,1-.016-.019v-1.2a.024.024,0,0,1,.024-.024h7.91Z" fill="#fff"/>
      </g>
    </g>
  </g>
</svg>
