<?xml version="1.0" encoding="UTF-8"?>
<svg xmlns="http://www.w3.org/2000/svg" id="Icons" viewBox="0 0 60 60" width="512" height="512"><path d="M2,25.975V57a3,3,0,0,0,3,3H45a1,1,0,0,0,.581-.186C46.17,59.393,60,49.373,60,37A15.013,15.013,0,0,0,49.917,22.845,27.235,27.235,0,0,0,50,18.83a3.973,3.973,0,0,0-.571-2.054L45.024,9.42A5.048,5.048,0,0,0,40.74,7H9.26A5.052,5.052,0,0,0,4.972,9.426l-4.4,7.345A3.97,3.97,0,0,0,0,18.83V22A4.906,4.906,0,0,0,2,25.975ZM8,19v3a3,3,0,1,1-6,0V19Zm31.828,3.938A14.938,14.938,0,0,0,36.2,24.876,3,3,0,0,1,34,22V19h6v3A2.926,2.926,0,0,1,39.828,22.938ZM10,19h6v3a3,3,0,0,1-6,0Zm8,0h6v3a3,3,0,0,1-6,0Zm8,0h6v3a3,3,0,0,1-6,0Zm7.82-2-1.6-8h4.1l3.2,8Zm-2.04,0H26V9h4.18ZM24,17H18.22l1.6-8H24Zm-7.82,0h-5.7l3.2-8h4.1ZM4,57V26.9a4.961,4.961,0,0,0,5-1.928,4.954,4.954,0,0,0,8,0,4.954,4.954,0,0,0,8,0,4.955,4.955,0,0,0,8.005-.006,5.026,5.026,0,0,0,1.489,1.348A14.95,14.95,0,0,0,30,37c0,9.451,8.065,17.524,12.139,21H25V33a3,3,0,0,0-3-3H10a3,3,0,0,0-3,3V58H5A1,1,0,0,1,4,57Zm5,1V33a1,1,0,0,1,1-1H22a1,1,0,0,1,1,1V58ZM58,37c0,9.973-10.4,18.718-13,20.745C42.4,55.718,32,46.973,32,37a13,13,0,0,1,26,0ZM45,22a15.009,15.009,0,0,0-2.972.3A30.916,30.916,0,0,1,42,19h6c-.013,2.215.023,2.767-.028,3.3A15.009,15.009,0,0,0,45,22ZM43.312,10.454,47.231,17H41.677l-3.2-8H40.74A3.033,3.033,0,0,1,43.312,10.454Zm-36.627,0A3.035,3.035,0,0,1,9.26,9h2.263l-3.2,8H2.769Z"/><path d="M35,37A10,10,0,1,0,45,27,10.011,10.011,0,0,0,35,37Zm18,0a8,8,0,1,1-8-8A8.009,8.009,0,0,1,53,37Z"/></svg>
