<svg id="visa" xmlns="http://www.w3.org/2000/svg" width="18" height="18" viewBox="0 0 18 18">
  <rect id="back" width="18" height="18" fill="none"/>
  <path id="Path_12343" data-name="Path 12343" d="M74.544-16.294c-.01.81.722,1.262,1.273,1.53.566.276.757.452.755.7,0,.377-.452.544-.871.55a3.039,3.039,0,0,1-1.493-.355l-.263,1.232a4.379,4.379,0,0,0,1.617.3c1.527,0,2.527-.754,2.532-1.923.006-1.484-2.052-1.566-2.038-2.229,0-.2.2-.416.617-.47a2.738,2.738,0,0,1,1.434.251l.256-1.192A3.9,3.9,0,0,0,77-18.152c-1.438,0-2.449.764-2.457,1.858m6.275-1.756a.663.663,0,0,0-.619.412l-2.182,5.21h1.526l.3-.839h1.865l.176.839h1.345L82.06-18.049H80.818m.214,1.519.441,2.111H80.266l.766-2.111m-8.339-1.519-1.2,5.622h1.455l1.2-5.622H72.693m-2.152,0-1.514,3.827-.612-3.254a.678.678,0,0,0-.671-.573H65.269l-.035.163a6.055,6.055,0,0,1,1.435.478.616.616,0,0,1,.345.494l1.16,4.487h1.537l2.357-5.622H70.541" transform="translate(-65.234 24.245)" fill="#254aa5"/>
</svg>
