<svg id="wallets" xmlns="http://www.w3.org/2000/svg" width="18" height="18" viewBox="0 0 18 18">
  <rect id="Rectangle_1304" data-name="Rectangle 1304" width="18" height="18" fill="none"/>
  <path id="Path_12284" data-name="Path 12284" d="M13.2,15.572H3.167A3.171,3.171,0,0,1,0,12.4V3.167A3.171,3.171,0,0,1,3.167,0H13.2a3.171,3.171,0,0,1,3.167,3.167.528.528,0,1,1-1.056,0A2.111,2.111,0,0,0,13.2,1.056H3.167A2.111,2.111,0,0,0,1.056,3.167V12.4a2.111,2.111,0,0,0,2.111,2.111H13.2A2.111,2.111,0,0,0,15.308,12.4a.528.528,0,0,1,1.056,0A3.171,3.171,0,0,1,13.2,15.572Z" transform="translate(0 1.214)"/>
  <path id="Path_12285" data-name="Path 12285" d="M15.889,11.217h-2.8a3.431,3.431,0,1,1,0-6.862h2.8A2.111,2.111,0,0,1,18,6.466V9.106A2.111,2.111,0,0,1,15.889,11.217Zm-2.8-5.806a2.375,2.375,0,0,0,0,4.751h2.8a1.056,1.056,0,0,0,1.056-1.056V6.466a1.056,1.056,0,0,0-1.056-1.056Z" transform="translate(0 1.214)"/>
  <path id="Path_12286" data-name="Path 12286" d="M13.144,8.419a.633.633,0,1,1,.633-.633A.633.633,0,0,1,13.144,8.419Z" transform="translate(0 1.214)"/>
</svg>
